<?xml version="1.0" standalone="no"?>
<!DOCTYPE svg PUBLIC "-//W3C//DTD SVG 1.1//EN" "http://www.w3.org/Graphics/SVG/1.1/DTD/svg11.dtd" >
<svg xmlns="http://www.w3.org/2000/svg">
<metadata></metadata>
<defs>
<font id="aa_zuehlke_med_otpsregular" horiz-adv-x="1062" >
<font-face units-per-em="2048" ascent="1638" descent="-410" />
<missing-glyph horiz-adv-x="555" />
<glyph unicode="&#xfb01;" horiz-adv-x="1058" d="M2 983q0 7 1 20.5t1 20.5v-4q0 26 7.5 33.5t33.5 7.5h111q2 64 11.5 128t34.5 138t62.5 129t101 92t144.5 37q52 0 87.5 -25t35.5 -77q0 -42 -25 -70.5t-65 -28.5q-14 0 -39.5 5.5t-36.5 5.5q-56 0 -81.5 -43t-25.5 -103q0 -47 13.5 -105t32.5 -83h155q27 0 36 -10t9 -31 q0 -7 -1 -21t-1 -22v4q0 -23 -7.5 -29t-31.5 -6h-155v-899q0 -25 -8 -36t-31 -11h-178q-24 0 -30.5 10.5t-6.5 36.5v899h-113q-25 0 -33 9t-8 28zM690 1329q0 60 38 95.5t97 35.5q57 0 97.5 -33t40.5 -92q0 -60 -37.5 -94.5t-98.5 -34.5q-59 0 -98 32t-39 91zM696 31v985 q0 25 7.5 35t29.5 10h180q27 0 35 -8t8 -37v-979q0 -23 -10 -30t-35 -7h-186q-29 0 -29 31z" />
<glyph unicode="&#xfb02;" horiz-adv-x="1058" d="M2 983q0 7 1 20.5t1 20.5v-4q0 26 7.5 33.5t33.5 7.5h111q2 64 11.5 128t34.5 138t62.5 129t101 92t144.5 37q52 0 87.5 -25t35.5 -77q0 -42 -25 -70.5t-65 -28.5q-14 0 -39.5 5.5t-36.5 5.5q-56 0 -81.5 -43t-25.5 -103q0 -47 13.5 -105t32.5 -83h155q27 0 36 -10t9 -31 q0 -7 -1 -21t-1 -22v4q0 -23 -7.5 -29t-31.5 -6h-155v-899q0 -25 -8 -36t-31 -11h-178q-24 0 -30.5 10.5t-6.5 36.5v899h-113q-25 0 -33 9t-8 28zM696 43v1489q0 35 35 35h180q24 0 31.5 -7.5t7.5 -31.5v-1485q0 -24 -8 -33.5t-31 -9.5h-174q-29 0 -35 6.5t-6 36.5z" />
<glyph horiz-adv-x="0" />
<glyph horiz-adv-x="682" />
<glyph unicode=" "  horiz-adv-x="555" />
<glyph unicode="&#x09;" horiz-adv-x="555" />
<glyph unicode="&#xa0;" horiz-adv-x="555" />
<glyph unicode="!" horiz-adv-x="589" d="M178 139q0 63 45.5 109.5t108.5 46.5q68 0 114 -43t46 -109t-45 -109.5t-111 -43.5q-65 0 -111.5 42t-46.5 107zM188 1415q0 15 7 22t14.5 8t23.5 1h216q38 0 38 -41v-8q-13 -146 -40 -427.5t-41 -441.5q-2 -25 -8.5 -34t-28.5 -9h-60q-24 0 -31.5 8.5t-9.5 34.5 q-30 347 -78 875q-2 2 -2 12z" />
<glyph unicode="&#x22;" horiz-adv-x="792" d="M98 1423q0 50 31.5 80.5t81.5 30.5q98 0 98 -113q0 -6 2 -8q-52 -282 -86 -528h-45q-3 39 -12 88q-16 87 -40 238.5t-28 177.5q-2 6 -2 34zM481 1423q0 49 30.5 80t78.5 31q100 0 100 -113v-8q-19 -126 -69 -436q-11 -55 -13 -92h-45q-10 84 -22.5 164.5t-31.5 190 t-26 149.5q-2 14 -2 34z" />
<glyph unicode="#" horiz-adv-x="1193" d="M-6 479v56v106q14 -2 51 -2h258q5 37 16.5 109.5t16.5 109.5h-295v55v105h315q7 48 22.5 141.5t26 166.5t17.5 142h55h111q-19 -86 -39 -252.5t-25 -197.5h226q53 357 63 450h55h107q-12 -115 -62 -450h287v-162q-16 2 -51 2h-258q-5 -37 -16.5 -109.5t-16.5 -109.5h232 q41 0 59 2v-55v-107h-311q-8 -53 -23 -149t-27 -176.5t-20 -153.5h-55h-111q8 72 20 152.5t27 177t23 149.5h-228q-51 -347 -65 -479h-57h-113q11 96 39 271t33 208h-287zM469 639h225q5 37 15.5 109.5t15.5 109.5h-225q-5 -37 -15.5 -109.5t-15.5 -109.5z" />
<glyph unicode="$" horiz-adv-x="1105" d="M78 289q0 48 29 80t75 32q64 0 105 -63q59 -107 81 -132q37 -44 112 -67q10 -3 22 -6v496q-160 74 -215 108q-138 86 -177 212q-18 60 -18 132q0 168 115.5 281t294.5 113v135q0 17 8.5 22.5t28.5 5.5h14.5h12.5h10t8 -0.5t5.5 -2t4.5 -3t2 -4.5t1.5 -7t0.5 -9v-137 q66 -2 158 -35q77 -30 145 -95t68 -139q0 -47 -29 -76.5t-76 -29.5q-21 0 -39 8.5t-28.5 16.5t-24.5 29.5t-18 29.5t-17 35q0 -1 1 -3.5t1 -3.5q-26 50 -56 72.5t-85 36.5v-473q53 -22 86 -37t84 -42t83 -50.5t69.5 -59.5t59 -74t36 -88t14.5 -106q0 -179 -110.5 -287 t-321.5 -137v-133q0 -18 -3.5 -22.5t-21.5 -4.5h-43q-18 0 -23 4t-5 21v135q-128 14 -214 51t-155 129q-55 69 -55 142zM307 1118q0 -151 195 -233v444q-87 0 -141 -62.5t-54 -148.5zM598 131q95 5 152 58t57 149q0 49 -16.5 89.5t-48 70.5t-65 50.5t-79.5 41.5v-459z" />
<glyph unicode="%" horiz-adv-x="1605" d="M55 995q0 59 6 115.5t25 123t48.5 115.5t82 82t121.5 33q65 0 116.5 -33.5t81 -83.5t48.5 -116t25.5 -122.5t6.5 -111.5q0 -50 -4.5 -97.5t-15 -104t-32 -103t-51 -86t-76.5 -62t-105 -22.5q-67 0 -119 33.5t-81 83.5t-47 117t-24 124t-6 115zM219 1024q0 -389 117 -389 q115 0 115 389q0 25 -1 48t-4 68t-10.5 80.5t-19.5 71.5t-33.5 56t-48.5 20t-47.5 -19.5t-32.5 -54.5t-19.5 -70t-10.5 -80t-4 -68.5t-1 -51.5zM371 16q0 16 14 41q120 225 356.5 674t356.5 674q12 27 25.5 34t37.5 7h41h-4q33 0 33 -21q0 -16 -17 -39 q-120 -225 -355 -673.5t-355 -673.5q-13 -26 -23.5 -33.5t-29.5 -7.5q-6 0 -23.5 1t-30.5 1h2q-28 0 -28 16zM987 451q0 59 6 116t25 124t48.5 116.5t82 83t121.5 33.5q67 0 119 -33.5t81 -83.5t47.5 -117t24.5 -123t6 -112q0 -60 -6 -117t-24.5 -124t-48 -116.5t-82 -82.5 t-121.5 -33q-57 0 -102.5 22.5t-75 62.5t-50.5 87t-31.5 102.5t-15 102t-4.5 92.5zM1151 475q0 -291 72 -363q20 -20 45 -20q116 0 116 375q0 356 -116 356q-24 0 -43 -17t-31 -41t-21 -61t-13 -66.5t-6 -68t-2.5 -55.5t-0.5 -39z" />
<glyph unicode="&#x26;" horiz-adv-x="1355" d="M61 326q0 68 24 130t57.5 106t90.5 90.5t100.5 74t110.5 66.5q-40 57 -58.5 86t-46.5 80.5t-40 98.5t-12 97q0 108 56.5 182.5t142.5 107t192 32.5q71 0 132.5 -17t112 -50.5t80 -90.5t29.5 -131q0 -53 -19.5 -102.5t-47 -86.5t-72 -75t-80.5 -62.5t-86 -54.5 q29 -40 88.5 -114.5t89.5 -114.5q50 88 140.5 159.5t181.5 71.5q49 0 80.5 -27.5t31.5 -76.5q0 -103 -151 -103h-21q-81 0 -182 -127q204 -268 309 -403q27 -36 27 -43q0 -29 -39 -29h-180q-45 0 -59 7t-37 42q-28 36 -80 107.5t-80 107.5q-45 -72 -80.5 -117.5t-86 -90.5 t-112.5 -66t-139 -21q-154 0 -260.5 102.5t-106.5 254.5zM307 408q0 -88 61 -156t148 -68q44 0 81 15t68 45.5t51 57t48 69.5q-40 52 -119 156.5t-119 156.5q-11 -8 -49 -35t-53 -38.5t-43 -38t-40 -47t-23 -52t-11 -65.5zM512 1176q0 -36 10.5 -70.5t37 -74.5t39 -56 t48.5 -60q39 25 66 46.5t58 53t47 69t16 79.5q0 72 -47 121t-119 49q-66 0 -111 -45.5t-45 -111.5z" />
<glyph unicode="'" horiz-adv-x="417" d="M102 1425q0 49 31.5 79t81.5 30q98 0 98 -113v-8q-25 -154 -73 -442q-8 -35 -11 -86h-45q-16 113 -80 504q-2 6 -2 36z" />
<glyph unicode="(" horiz-adv-x="634" d="M90 729q0 436 205 741q39 60 143 172q29 33 71 67t69 34q19 0 31 -12t12 -31q0 -16 -19 -49q-133 -184 -194.5 -423t-61.5 -495q0 -483 178 -809q11 -21 39.5 -60.5t46 -69.5t17.5 -48t-11 -30.5t-28 -12.5q-46 0 -144 98q3 0 7 -4q-190 193 -275.5 421t-85.5 511z" />
<glyph unicode=")" horiz-adv-x="634" d="M4 1700q0 18 11 30.5t28 12.5q30 0 86 -45q414 -356 414 -991q0 -260 -82 -478.5t-264 -421.5q-6 -5 -38.5 -37t-58 -49.5t-47.5 -17.5q-18 0 -29.5 13t-11.5 32q0 25 21 49q252 382 252 912q0 490 -189 833q-7 11 -27.5 39t-32 45t-22 38.5t-10.5 35.5z" />
<glyph unicode="*" horiz-adv-x="655" d="M47 1253q0 51 16 68.5t56 24.5q125 0 125 57q0 10 -8 18t-22.5 13.5t-27 9t-28.5 6.5t-19 4q-48 8 -66 25.5t-18 68.5q0 74 56 74q21 0 40.5 -23t32.5 -50.5t35.5 -50.5t48.5 -23q31 0 31 43q0 32 -15.5 89.5t-15.5 86.5q0 32 16 56t46 24q24 0 39.5 -28.5t15.5 -53.5 q0 -30 -14.5 -87t-14.5 -85q0 -17 7.5 -31t23.5 -14q27 0 49 22.5t35 50t32.5 50t41.5 22.5q28 0 40.5 -22t12.5 -52q0 -41 -20 -62.5t-49.5 -27.5t-60 -9.5t-54 -16t-27.5 -39.5q0 -40 111 -60q30 -4 45.5 -8.5t32 -15t23.5 -29.5t7 -49q0 -29 -13 -52.5t-42 -23.5 q-22 0 -43 24.5t-36 53.5t-37.5 53.5t-47.5 24.5q-21 0 -28 -11.5t-9 -33.5q0 -28 11.5 -85t11.5 -85q-2 0 -2 2q0 -33 -14 -56.5t-44 -23.5q-61 0 -61 80q3 25 20.5 78.5t18.5 82.5q0 12 -0.5 19t-3 17t-9.5 15t-18 5q-23 0 -45.5 -21t-37.5 -45.5t-36 -45.5t-41 -21 q-53 0 -53 73z" />
<glyph unicode="+" horiz-adv-x="1017" d="M61 512q0 7 1 20.5t1 20.5v82q0 7 -1 20.5t-1 20.5h365v366q14 -2 41 -2h80q27 0 41 2v-366h364v-166q-18 2 -53 2h-311v-367h-41h-121v367h-365z" />
<glyph unicode="," horiz-adv-x="507" d="M94 -248q0 20 17.5 47t39 50.5t39 57.5t17.5 66q0 29 -16 52.5t-35.5 38.5t-35.5 41t-16 59q0 58 43 93.5t101 35.5q80 0 123 -62.5t43 -144.5q0 -89 -49.5 -180.5t-126.5 -149.5q-54 -43 -91 -45q-19 0 -35.5 11.5t-17.5 29.5z" />
<glyph unicode="-" horiz-adv-x="641" d="M123 518v105q0 24 6.5 31.5t30.5 7.5h368q23 0 29 -6t6 -29v-115q0 -25 -6 -31t-31 -6h-370q-22 0 -27.5 9t-5.5 34z" />
<glyph unicode="." horiz-adv-x="507" d="M102 139q0 66 43 111t109 45q65 0 107 -46.5t42 -111.5q0 -63 -43 -106t-106 -43t-107.5 44t-44.5 107z" />
<glyph unicode="/" horiz-adv-x="931" d="M18 -223q0 3 2.5 9t2.5 9q143 372 403.5 1057.5t327.5 861.5q12 27 28 27q34 0 81.5 -24t47.5 -38q0 -6 -4 -22q-47 -124 -315 -835t-412 -1088q-9 -25 -26 -25q-23 0 -79.5 26t-56.5 42z" />
<glyph unicode="0" horiz-adv-x="1105" d="M102 735q0 66 5 131.5t18 143.5t34.5 146t57 133t81 111.5t112 74.5t145.5 28q78 0 143.5 -29t110.5 -76t80 -113t56 -135t34 -148t17.5 -145t4.5 -132q0 -64 -5 -129t-19 -141.5t-35 -144t-56.5 -131.5t-80.5 -110t-109.5 -74t-140.5 -28q-80 0 -146 28t-112 74 t-81.5 110.5t-56.5 132.5t-34.5 146t-18 144t-4.5 133zM360 736q0 -7 1 -59.5t3.5 -79.5t6.5 -83.5t11 -91t17 -84t24.5 -79.5t33 -60t43 -44t53.5 -14q188 0 188 645q0 562 -190 562q-39 0 -70 -26t-50.5 -64.5t-33.5 -96t-21 -106.5t-11 -111.5t-4.5 -94.5t-0.5 -71v-42z " />
<glyph unicode="1" horiz-adv-x="1124" d="M86 1122q0 16 6.5 29t12 19.5t23 13t21.5 8t25 6.5q96 33 156.5 56.5t140 68.5t133.5 98q2 2 13.5 14t14.5 14.5t13.5 11.5t16 12t15 8t18 6.5t18.5 1.5q29 0 45 -20.5t16 -51.5v-1378q0 -39 -41 -39h-168q-26 0 -36.5 9t-10.5 34v1102q-11 -3 -77 -24t-102.5 -31.5 t-89.5 -21.5t-85 -11t-55 17.5t-23 47.5z" />
<glyph unicode="2" horiz-adv-x="1114" d="M84 47q0 25 29 62q73 95 214 284.5t214 284.5q15 25 55.5 84t60.5 92.5t39 88t19 106.5q0 96 -58 166.5t-151 70.5q-44 0 -78 -12t-56.5 -30t-41.5 -50t-29.5 -59.5t-24.5 -71.5q-8 -20 -12.5 -28.5t-13.5 -20.5t-21 -16.5t-30 -4.5q-38 0 -58 30.5t-20 70.5q0 80 35 155 q108 254 407 254q109 0 201.5 -45.5t150.5 -134.5t58 -203q0 -113 -52.5 -214.5t-146.5 -223.5q-58 -75 -172.5 -223t-171.5 -223h510q25 0 34 -6.5t9 -30.5v-164q0 -35 -35 -35h-809q-55 0 -55 47z" />
<glyph unicode="3" horiz-adv-x="1112" d="M76 295q0 50 33.5 85.5t83.5 35.5q38 0 66.5 -26.5t50 -64t46.5 -75t68 -64t102 -26.5q96 0 152.5 62t56.5 157v6q0 198 -243 293q-5 2 -51 15t-72.5 30t-26.5 43q0 34 35 55q10 4 46.5 20t51 23t46.5 24.5t47 30t37.5 34t33 42.5t19 50t8.5 61q0 87 -53.5 142t-139.5 55 q-49 0 -86.5 -17t-58 -43t-38 -56t-29.5 -56t-30.5 -43t-42.5 -17q-33 0 -52 26.5t-19 61.5q0 55 33 127q55 111 156 164t231 53q154 0 266 -91.5t112 -244.5q0 -193 -208 -315q134 -63 208 -168.5t74 -249.5q0 -202 -135 -322t-340 -120q-56 0 -100 8q-29 2 -70.5 15 t-88.5 39t-86.5 59.5t-66 81.5t-26.5 100z" />
<glyph unicode="4" horiz-adv-x="1107" d="M49 401q0 27 35 84q98 156 285 473.5t284 473.5q20 29 38.5 43t45.5 14q47 0 66.5 -24t19.5 -70v-910h107q35 0 35 -30v4v-74q0 -35 -7 -44t-36 -9q-4 0 -38 1t-61 1v-281q0 -26 -7.5 -35.5t-31.5 -9.5h-176q-22 0 -28.5 9.5t-6.5 31.5v285h-442q-82 0 -82 67zM262 485 h322v588q-16 -24 -70 -129q-41 -78 -126 -229.5t-126 -229.5z" />
<glyph unicode="5" horiz-adv-x="1110" d="M100 287q0 56 31 89.5t86 33.5q36 0 63.5 -25.5t49 -62t46.5 -73t68.5 -62t102.5 -25.5q100 0 155.5 69.5t55.5 171.5q0 130 -85.5 218t-213.5 88q-59 0 -189 -37q-39 -13 -53 -13q-59 0 -59 64q0 29 2 43q8 113 25.5 331.5t25.5 325.5q1 29 13.5 37t41.5 8h615 q30 0 39.5 -7.5t9.5 -35.5v-141q0 -19 -2 -28.5t-11.5 -16t-29.5 -6.5h-522q-5 -67 -16 -192.5t-15 -180.5q149 49 241 49q199 0 317 -130t118 -330q0 -210 -132 -333.5t-343 -123.5q-16 0 -32 1t-35 2.5t-30 2.5q-35 2 -78.5 15t-89.5 38.5t-83.5 58.5t-62 79.5t-24.5 97.5 z" />
<glyph unicode="6" horiz-adv-x="1105" d="M98 541v24q0 288 139.5 513.5t405.5 346.5q114 56 211 56q36 0 61 -15t25 -49q0 -27 -31 -51t-71 -39.5t-90.5 -38t-77.5 -43.5q-132 -94 -202.5 -221t-105.5 -299q154 100 281 100h8q114 0 197.5 -58.5t123.5 -151t40 -205.5q0 -198 -121.5 -320.5t-317.5 -122.5 q-121 0 -214.5 47t-149 128t-83.5 182t-28 217zM346 526q0 -59 11 -120t35 -124.5t72 -104t114 -40.5q96 0 145 69.5t49 168.5q0 112 -62 196t-173 84q-88 0 -189 -67q0 -12 -1 -31t-1 -31z" />
<glyph unicode="7" horiz-adv-x="1112" d="M133 1282v143q0 25 7 34t32 9h793q61 0 61 -51q0 -14 -5 -28t-13 -31.5t-11 -28.5q-104 -240 -169.5 -400t-142 -390.5t-114.5 -421.5q-1 -6 -4.5 -27.5t-6 -28t-9 -18.5t-17.5 -16t-28 -4h-207q-43 0 -43 34q0 18 18 60l494 1120h-592q-27 0 -35 8t-8 37z" />
<glyph unicode="8" horiz-adv-x="1105" d="M94 340q0 41 8 78.5t18.5 66t33 59t39.5 50.5t50 48t52.5 42.5l58.5 43.5q15 11 23 17q-75 54 -122 104.5t-76 120.5t-29 154q0 116 59.5 199t151.5 120.5t204 37.5q60 0 116 -11.5t106 -37t87 -62.5t58.5 -90.5t21.5 -118.5q0 -38 -8 -73.5t-17 -61.5t-32 -55.5 t-36.5 -46t-47.5 -44.5t-48.5 -39.5t-55.5 -41.5q70 -46 115.5 -82.5t92.5 -89t70 -116.5t23 -140q0 -98 -39.5 -176.5t-106.5 -127.5t-150 -74.5t-175 -25.5q-62 0 -122 11.5t-119.5 39.5t-104 69.5t-72 107t-27.5 145.5zM324 385q0 -104 66 -175t169 -71q88 0 146.5 54.5 t58.5 144.5q0 40 -12.5 76.5t-28 60.5t-48 53.5t-52 43.5t-63 43t-58.5 40q-42 -32 -67.5 -55.5t-54 -57.5t-42.5 -73t-14 -84zM369 1155q0 -148 217 -268q69 37 113 101.5t44 139.5q0 87 -53.5 144t-138.5 57q-79 0 -130.5 -48.5t-51.5 -125.5z" />
<glyph unicode="9" horiz-adv-x="1105" d="M88 1071q0 192 121 312t317 120q126 0 220 -45.5t148.5 -126.5t80.5 -180.5t26 -218.5q0 -275 -123 -502t-360 -354q-160 -84 -287 -84q-75 0 -75 59q0 32 35.5 54.5t98 44t87.5 36.5q162 95 247 237t109 335q-73 -54 -134 -79.5t-142 -25.5q-118 0 -203 59t-125.5 152 t-40.5 207zM328 1110q0 -73 24.5 -136t79 -106t129.5 -43q92 0 189 70v39q0 49 -5 99t-20.5 108.5t-40 102t-67.5 73t-99 29.5q-92 0 -141 -70.5t-49 -165.5z" />
<glyph unicode=":" horiz-adv-x="600" d="M193 139q0 66 43.5 111t109.5 45q65 0 108.5 -47t43.5 -111q0 -63 -44.5 -106t-107.5 -43t-108 44t-45 107zM193 694q0 66 43.5 110t109.5 44q65 0 108.5 -47t43.5 -111q0 -62 -45 -104.5t-107 -42.5q-66 0 -109.5 42.5t-43.5 108.5z" />
<glyph unicode=";" horiz-adv-x="600" d="M186 -248q-2 18 14.5 45.5t37.5 53t39 59.5t18 63q0 26 -15.5 50t-34.5 39.5t-34.5 42.5t-15.5 59q0 58 41.5 93.5t99.5 35.5q79 0 120.5 -62.5t41.5 -144.5q0 -86 -43.5 -172.5t-116.5 -146.5q-19 -21 -47.5 -38t-52.5 -18q-20 0 -36 11.5t-16 29.5zM197 694 q0 66 43.5 110t109.5 44q63 0 108.5 -44.5t45.5 -107.5q0 -64 -43.5 -108.5t-108.5 -44.5q-66 0 -110.5 42.5t-44.5 108.5z" />
<glyph unicode="&#x3c;" horiz-adv-x="1017" d="M-6 639q2 23 2 61v58q0 36 -2 59q177 88 520 251.5t510 246.5q0 -11 -1 -31t-1 -31v-116q-542 -270 -825 -408q675 -331 825 -407v-181q-24 11 -66.5 33t-66.5 33q-708 339 -895 432z" />
<glyph unicode="=" horiz-adv-x="1017" d="M-6 328q2 14 2 39v79q0 27 -2 41h51h977v-161q-39 2 -107 2h-921zM-6 694q2 18 2 54v51q0 37 -2 55h106h922v-162q-39 2 -107 2h-921z" />
<glyph unicode="&#x3e;" horiz-adv-x="1017" d="M-6 143q0 11 1 30t1 30v57q0 39 -2 62q264 132 825 407q-283 138 -825 408q2 23 2 59v57q0 11 -1 31t-1 31q191 -100 542 -265.5t486 -232.5v-180q-25 -7 -66 -29q-783 -379 -962 -465z" />
<glyph unicode="?" horiz-adv-x="839" d="M41 1204q0 74 38.5 130t99.5 86.5t126 45.5t129 15q53 0 104 -10t99 -33t84.5 -55.5t58 -82t21.5 -108.5q0 -32 -8.5 -62t-18 -51t-32.5 -49t-35 -40.5t-43.5 -43t-40.5 -39.5q-63 -62 -88 -112.5t-33 -116.5q-2 -10 -5 -68t-14 -90.5t-37 -32.5q-6 0 -22 1t-29 1h6h-13 t-9.5 1t-7 1t-5 3t-3.5 3.5t-2.5 6t-1.5 7t-1 9.5t-2 12q-1 8 -10.5 65.5t-12.5 80t-7 64t-4 73.5q0 41 10 60t39 36q42 24 70 45t57 51.5t44 69t15 84.5q0 68 -40 116t-105 48q-52 0 -83.5 -25.5t-44 -61.5t-24 -72t-36.5 -61.5t-68 -25.5q-52 0 -83.5 36t-31.5 89z M268 139q0 63 43 109.5t107 46.5q68 0 111.5 -46t43.5 -114q0 -61 -45 -103t-106 -42q-62 0 -108 43.5t-46 105.5z" />
<glyph unicode="@" horiz-adv-x="1822" d="M141 485q0 192 72.5 370t196 310t298 211.5t367.5 79.5q271 0 437.5 -157.5t166.5 -428.5q0 -109 -33 -233t-89.5 -232.5t-143.5 -180.5t-184 -72q-170 0 -180 188q-55 -79 -134 -131.5t-167 -56.5q-91 0 -152 48.5t-86 121t-25 163.5q0 90 28.5 187.5t79.5 183.5 t134 141.5t182 55.5q94 0 151.5 -45.5t96.5 -135.5q2 42 14 142q46 0 148 4q-12 -52 -35.5 -156.5t-34.5 -156.5q-2 -10 -14 -61.5t-16 -72.5t-11.5 -62.5t-10.5 -74t-3 -63.5q0 -97 63 -97q51 0 115 64q90 90 140.5 238.5t50.5 287.5q0 227 -137 354.5t-365 127.5 q-135 0 -260.5 -48t-223.5 -132t-171.5 -193t-112.5 -237t-39 -259q0 -142 51.5 -258.5t141.5 -192t210.5 -116.5t260.5 -41q368 0 679 297q25 -35 33 -43q-2 0 -2 2q7 -7 19.5 -20.5t19.5 -20.5q-333 -324 -743 -324q-165 0 -308 49t-248.5 140t-166 229t-60.5 307z M645 494q0 -85 37.5 -146t116.5 -61q86 0 174 92q0 -6 -2 -8q56 49 89.5 140.5t33.5 174.5v14q0 58 -14 105.5t-52 82t-96 34.5q-72 0 -130 -45t-90.5 -113t-49.5 -138.5t-17 -131.5z" />
<glyph unicode="A" horiz-adv-x="1230" d="M-2 25q0 7 4 20.5t8 17.5q85 226 250 671.5t250 670.5q11 27 19 34t30 7h115q22 0 32 -6t17 -25q83 -228 251 -680.5t251 -681.5q8 -19 8 -33q0 -5 -1 -8.5t-3.5 -5.5t-4.5 -3.5t-6.5 -2t-6 -0.5h-7h-6.5h-217q-28 0 -34.5 5.5t-14.5 31.5q-24 70 -75.5 208t-76.5 208 h-409q-17 -47 -69 -191t-79 -223q-11 -26 -18 -32.5t-31 -6.5h-143q-33 0 -33 25zM422 606h307q-31 87 -81.5 239.5t-74.5 221.5q-28 -96 -80.5 -250t-70.5 -211z" />
<glyph unicode="B" horiz-adv-x="1189" d="M114 65v10q0 12 1 13v1272q0 25 6 41.5t22.5 25t26.5 11.5t38.5 6t37.5 4h-4q112 14 241 14q566 0 566 -356q0 -117 -73.5 -203.5t-191.5 -132.5v2q161 -37 251.5 -133t90.5 -252q0 -77 -23.5 -139t-61 -102.5t-93.5 -71t-110 -46.5t-123 -25.5t-120.5 -12t-113.5 -2.5 q-179 0 -254 12q-23 2 -40.5 5.5t-29.5 7t-20.5 11t-12.5 10.5q-4 4 -6 14q-4 14 -4 17zM391 162q65 -8 144 -8q62 0 114.5 13.5t96.5 41.5t69 78.5t25 118.5q0 69 -24 121t-60 81.5t-87 47.5t-96.5 24t-97.5 6q-18 0 -84 -4v-520zM391 825h68q43 0 82.5 5t83 21t75 41.5 t52 70t20.5 102.5q0 122 -74.5 177.5t-199.5 55.5q-72 0 -107 -6v-467z" />
<glyph unicode="C" horiz-adv-x="1232" d="M68 725q0 121 26.5 232.5t81.5 207t133 166t186 110.5t236 40q126 0 248.5 -50t191.5 -145q39 -56 39 -106q0 -53 -36 -85t-91 -32q-65 0 -104 57q-33 49 -54.5 76t-54.5 57t-72.5 43t-88.5 13q-76 0 -137 -33.5t-98.5 -86.5t-63 -122t-35.5 -135t-10 -131 q0 -89 14.5 -174.5t48.5 -167.5t84 -144t126 -99.5t169 -37.5q138 0 248 84q11 14 32.5 24.5t38.5 10.5q30 0 49 -19t19 -49q-2 -57 -68 -123q-69 -73 -172 -106t-217 -33q-159 0 -287.5 60.5t-211 165t-126.5 241t-44 291.5z" />
<glyph unicode="D" horiz-adv-x="1363" d="M117 74v1284q0 39 14 55q21 25 154.5 37t212.5 12q174 0 319.5 -47.5t251 -138t164.5 -229.5t59 -314v-8q0 -164 -50 -294t-131.5 -212.5t-193 -136.5t-227 -76t-241.5 -22q-47 0 -102.5 2t-129.5 12.5t-92 28.5q-8 8 -8 47zM393 168q13 0 34 -1t32 -1q261 0 399.5 148 t138.5 415q0 121 -32.5 222t-95 176.5t-161.5 118t-225 42.5q-49 0 -90 -8v-1112z" />
<glyph unicode="E" horiz-adv-x="978" d="M115 41v1345q0 33 10 46.5t43 13.5h725q19 0 28 -7t9 -26v-110q0 -24 -9.5 -31.5t-33.5 -7.5h-492v-422h410q26 0 34.5 -6t8.5 -31v-103q0 -27 -9 -33.5t-38 -6.5h-406v-474h486q19 0 28 -2t15 -11.5t6 -29.5v-98q0 -29 -9.5 -38t-39.5 -9h-721q-24 0 -34.5 8.5 t-10.5 32.5z" />
<glyph unicode="F" horiz-adv-x="933" d="M117 35v1364q0 26 9 36.5t34 10.5h719q18 0 25 -6.5t7 -24.5v-104q0 -26 -7 -36.5t-32 -10.5h-477v-422h389h10h9.5t7 -0.5t6.5 -1.5t5 -2.5t4.5 -4.5t2 -7t2 -9t0.5 -12v-98q0 -27 -9 -36t-38 -9h-389v-619q0 -25 -8.5 -34t-32.5 -9h-194q-25 0 -34 6.5t-9 28.5z" />
<glyph unicode="G" horiz-adv-x="1316" d="M68 721q0 121 28 233t84.5 208t136 167t189 111.5t237.5 40.5q125 0 238 -41.5t190 -128.5q68 -71 68 -146q0 -51 -36 -86t-87 -35q-45 0 -77.5 27.5t-56 66t-51.5 77.5t-78.5 66.5t-121.5 27.5q-83 0 -148 -37t-104 -93.5t-64 -133t-34.5 -147t-9.5 -142.5 q0 -82 10.5 -159.5t39 -160t72.5 -142.5t117.5 -99t167.5 -39q34 0 65 6t62 20.5t49.5 43.5t18.5 69v29v264h-217q-30 0 -38.5 7t-8.5 36v88q0 22 8.5 28.5t30.5 6.5h448q20 0 28.5 -7t9.5 -14t1 -28v-459q0 -59 -10 -84t-51 -66q-75 -67 -190.5 -98t-227.5 -31 q-168 0 -300.5 57t-216.5 159t-127.5 238.5t-43.5 299.5z" />
<glyph unicode="H" horiz-adv-x="1273" d="M115 43v1362q0 41 43 41h196q24 0 32.5 -8t8.5 -31v-565h482v559q0 18 1.5 26t9.5 13.5t25 5.5h201q26 0 34.5 -6t8.5 -29v-1374q0 -37 -37 -37h-205q-25 0 -31.5 9.5t-6.5 35.5v617h-482v-619q0 -25 -6.5 -34t-30.5 -9h-202q-24 0 -32.5 9.5t-8.5 33.5z" />
<glyph unicode="I" horiz-adv-x="507" d="M113 41v1362q0 24 9.5 33.5t33.5 9.5h196q26 0 35.5 -9t9.5 -34v-1362q0 -41 -45 -41h-194q-45 0 -45 41z" />
<glyph unicode="J" horiz-adv-x="507" d="M-229 -414q0 11 4 20.5t7 15t14 12t14 8t19 8t17 6.5q48 18 86.5 45t65.5 57t46.5 68.5t31 76t18.5 84t9.5 87t2.5 90.5v1237q0 23 7.5 34t29.5 11h199q28 0 37.5 -8t9.5 -37v-1233q0 -163 -60.5 -308t-185.5 -243q-50 -42 -129.5 -71t-144.5 -29q-39 0 -68.5 15.5 t-29.5 53.5z" />
<glyph unicode="K" horiz-adv-x="1146" d="M115 41v1360q0 29 8.5 37t38.5 8h184q24 0 32.5 -9t8.5 -34v-574q69 98 211 287.5t211 286.5l10.5 14l9 12t7 7.5t10 6t11.5 2t17 1.5h156q35 0 35 -27q0 -15 -23 -47q-61 -82 -411 -555q77 -117 245.5 -368.5t256.5 -387.5q16 -16 16 -34q0 -27 -39 -27h-233 q-23 0 -35 5.5t-15.5 10.5t-15.5 27q-44 69 -133 207t-159 248t-132 211v-666q0 -43 -39 -43h-196q-22 0 -29.5 9.5t-7.5 31.5z" />
<glyph unicode="L" horiz-adv-x="935" d="M117 41v1368q0 23 8.5 30t32.5 7h194q25 0 34 -8.5t9 -32.5v-1215h473q23 0 30 -9t7 -34v-106q0 -41 -41 -41h-710q-23 0 -30 8.5t-7 32.5z" />
<glyph unicode="M" horiz-adv-x="1611" d="M111 1405q0 41 41 41h196q31 0 40.5 -7t23.5 -38q277 -653 397 -924q73 169 201 479.5t184 442.5q12 31 22.5 39t40.5 8h-6h205q24 0 33.5 -8t9.5 -33q0 -243 -4 -684t-4 -682q0 -25 -9 -32t-34 -7h-176q-19 0 -27.5 5.5t-10 13.5t-1.5 28q0 149 2 442t2 441v88 q-77 -183 -212 -515t-191 -466q-9 -21 -12.5 -27.5t-14 -12t-29.5 -5.5q-27 0 -37 10t-22 39h2q-7 16 -18.5 46.5t-18.5 47.5q2 0 4 -2q-36 86 -115.5 275t-138 332t-110.5 278v-88q0 -293 4 -887q0 -22 -8.5 -32.5t-30.5 -10.5h-127q-28 0 -35.5 9.5t-7.5 37.5v-2 q0 233 -4 675.5t-4 684.5z" />
<glyph unicode="N" horiz-adv-x="1359" d="M113 41v1360q0 24 8.5 34.5t32.5 10.5h159q28 0 38 -6.5t28 -32.5q109 -154 327.5 -454.5t323.5 -448.5v899q0 26 8.5 34.5t34.5 8.5h135q22 0 28.5 -10t6.5 -33v-1366q0 -24 -9.5 -30.5t-35.5 -6.5h-96q-27 0 -40 8.5t-32 34.5q-89 124 -327.5 460.5t-372.5 522.5v-983 q0 -25 -8.5 -34t-32.5 -9h-129q-28 0 -37.5 7t-9.5 34z" />
<glyph unicode="O" horiz-adv-x="1447" d="M68 709q0 121 25.5 233.5t79 210.5t130.5 171t186.5 115t239.5 42q120 0 224.5 -38.5t181.5 -106t132.5 -158t83 -197t27.5 -219.5v-49q0 -143 -44 -276t-124 -238t-205.5 -168.5t-277.5 -63.5q-125 0 -232.5 40t-185 110t-132.5 163.5t-82 202.5t-27 226zM360 737 q0 -51 4.5 -102t16 -109t30 -109t47.5 -98.5t66.5 -81.5t90.5 -54.5t116 -20.5q98 0 189 71q55 43 90.5 106t51 140t20.5 138.5t5 142.5q0 56 -7 113.5t-22.5 120.5t-44 117t-67 98t-95.5 69t-126 25q-73 0 -132 -26t-97.5 -72t-66.5 -101.5t-42 -122t-20.5 -125.5 t-6.5 -119z" />
<glyph unicode="P" horiz-adv-x="1105" d="M117 45v1323v8.5v7v5.5t0.5 5.5l1.5 4.5t2.5 6t3 6.5t4.5 7.5q17 21 158 32t219 11q92 0 170.5 -11t156.5 -40t132.5 -76t88 -124.5t33.5 -178.5q0 -119 -49 -208.5t-132.5 -139.5t-181.5 -74t-210 -24q-93 0 -119 4v-547q0 -24 -8.5 -33.5t-32.5 -9.5h-194 q-26 0 -34.5 9t-8.5 36zM395 752q10 -1 39 -4t47 -3q149 0 234.5 68.5t85.5 216.5q0 273 -312 273q-33 0 -94 -11v-540z" />
<glyph unicode="Q" horiz-adv-x="1447" d="M68 715q0 117 22 221t68 199.5t126 172t189 124.5q113 49 254 49q113 0 210 -33t166.5 -90.5t123 -131.5t85.5 -161t48 -174t16 -174q0 -115 -27.5 -224.5t-81.5 -207t-142.5 -174.5t-202.5 -117q22 -77 70.5 -138.5t116.5 -102.5t135 -68t149 -47q55 -14 55 -60 q0 -31 -20.5 -47t-51.5 -16q-16 0 -33.5 2t-39.5 6.5t-33.5 7t-38.5 10t-33 8.5q-122 32 -230 84.5t-203.5 141.5t-137.5 198q-140 19 -249 88t-175.5 171.5t-100.5 225t-34 257.5zM358 725q0 -52 4 -103t15.5 -110.5t29 -111.5t46.5 -101.5t66.5 -84.5t90.5 -56t117 -21 q69 0 126 27.5t95 75t65.5 106t42.5 126t22 128t7 119.5q0 58 -5.5 116t-19 127.5t-40.5 128t-65.5 108t-98 78t-133.5 28.5q-73 0 -132 -27t-97.5 -74.5t-66.5 -105t-42 -125.5t-20.5 -128t-6.5 -120z" />
<glyph unicode="R" horiz-adv-x="1146" d="M113 1380q0 23 16 39q12 17 99.5 27.5t154.5 13t106 2.5q555 0 555 -407q0 -114 -57 -201t-160 -143q-18 -10 -52.5 -24.5t-47.5 -20.5v2q130 -218 381 -600q18 -30 18 -41q0 -27 -34 -27h-215q-35 0 -44 5t-26 36q-36 62 -108.5 185.5t-108.5 185.5q-11 17 -41 78 t-57 93.5t-60 32.5q-9 0 -15 -1t-10.5 -4l-7.5 -5t-5 -8.5t-2.5 -9t-2 -11.5t-2.5 -12v-516q0 -26 -8 -37.5t-33 -11.5h-190q-24 0 -32.5 8.5t-8.5 32.5v1321q0 3 -1 9t-1 9zM387 745q11 0 33 -1t33 -1q146 0 230.5 70.5t84.5 212.5q0 145 -73.5 209.5t-219.5 64.5 q-41 0 -88 -6v-549z" />
<glyph unicode="S" horiz-adv-x="1107" d="M82 301q0 55 35 91t90 36q46 0 79 -29.5t54.5 -71t46.5 -83.5t71.5 -71.5t112.5 -29.5q85 0 137 52.5t52 138.5q0 31 -7.5 58.5t-18 48t-30 41.5t-35.5 34.5t-43 30.5t-44.5 26.5t-48.5 25.5t-46 24q-157 83 -216 127q-142 106 -166 257q-5 33 -5 70q0 188 124 296 t313 108q63 0 134 -16t139.5 -47.5t113.5 -87t45 -124.5q0 -50 -33.5 -84.5t-83.5 -34.5q-42 0 -72.5 23.5t-51 57t-43.5 67t-62.5 57t-94.5 23.5q-78 0 -127 -49t-49 -127q0 -51 16.5 -90t56.5 -70t65.5 -45.5t84.5 -41.5q15 -7 23 -11q171 -84 240 -134q149 -108 178 -268 q8 -43 8 -92q0 -130 -67 -227.5t-173.5 -145t-234.5 -47.5q-121 0 -226.5 41.5t-175.5 130.5q-65 78 -65 162z" />
<glyph unicode="T" horiz-adv-x="1021" d="M16 1305v100q0 41 37 41h916q21 0 30 -7.5t9 -29.5v-100q0 -24 -8.5 -34.5t-30.5 -10.5h-318v-1217q0 -25 -8 -36t-31 -11h-190q-31 0 -41 10t-10 39v1215h-308q-27 0 -37 8t-10 33z" />
<glyph unicode="U" horiz-adv-x="1185" d="M98 440v965q0 26 7.5 33.5t31.5 7.5h203q28 0 35.5 -7t7.5 -36v-948q0 -275 244 -275q124 0 181.5 72.5t57.5 198.5v950q0 27 7.5 36t33.5 9h137q26 0 34.5 -7.5t8.5 -35.5v-981q0 -106 -29 -187.5t-76 -131.5t-114.5 -81.5t-136.5 -43t-151 -11.5q-80 0 -149 15 t-131 50.5t-106 89t-70 134.5t-26 184z" />
<glyph unicode="V" horiz-adv-x="1142" d="M0 1419q0 27 29 27h211q29 0 36.5 -6t18.5 -35q48 -144 141.5 -426.5t141.5 -425.5q3 -11 12.5 -40t15.5 -48q57 184 170 518t142 422q8 28 16 34.5t37 6.5h135q41 0 41 -27q0 -16 -10 -33q-79 -225 -233.5 -673.5t-233.5 -673.5q-10 -26 -20.5 -32.5t-35.5 -6.5h-82 q-28 0 -33.5 5t-13.5 32q-81 226 -240.5 674t-240.5 675q-4 9 -4 33z" />
<glyph unicode="W" horiz-adv-x="1695" d="M-2 1415q0 31 35 31h194q31 0 40 -7t16 -38q17 -70 55 -225.5t59.5 -245t55.5 -218.5t65 -235h-2q49 136 96 289t103.5 344.5t87.5 292.5q10 28 19.5 36.5t29.5 8.5q6 0 23 -1t30 -1h-6q10 0 16.5 -1.5t10.5 -4t6.5 -7.5t4 -9t3.5 -12.5t4 -14.5q44 -141 132 -422 t132 -422q3 -9 12.5 -33.5t14.5 -42.5q18 71 20 78l215 848q6 26 15 34.5t33 8.5h151q31 0 31 -27q0 -21 -8 -37q-63 -226 -189 -671t-188 -670q-4 -16 -6.5 -22.5t-11 -12.5t-23.5 -6h-84q-29 0 -36 5t-19 34q-45 135 -144 421.5t-149 438.5q-165 -496 -275 -858 q-10 -29 -18 -35t-35 -6h-70q-21 0 -29.5 1.5t-16.5 10t-13 27.5q-64 226 -191 671.5t-192 671.5q-4 28 -4 33z" />
<glyph unicode="X" horiz-adv-x="1103" d="M0 25q0 7 5.5 19.5t12.5 16.5q65 114 195.5 339.5t196.5 338.5q-130 248 -349 650q-10 17 -10 26q0 31 35 31h190q30 0 41.5 -6.5t28.5 -34.5q38 -66 112.5 -197.5t112.5 -197.5q43 76 228 395q14 27 23.5 34t39.5 7h146q32 0 32 -25q0 -16 -14 -39 q-58 -99 -170.5 -294.5t-169.5 -294.5q228 -409 401 -732q13 -22 13 -30q0 -31 -35 -31h-205q-27 0 -37.5 8t-23.5 33q-25 44 -124 215t-151 266q-31 -53 -131 -220.5t-153 -260.5q-17 -30 -26 -35q-11 -6 -34 -6h-151q-11 0 -20 7t-9 18z" />
<glyph unicode="Y" horiz-adv-x="1107" d="M0 1419q0 27 35 27h219h12t10 -1t7 -1t5.5 -2.5t4.5 -3t4.5 -5.5t4 -6t4.5 -8t5 -10q21 -39 123 -230.5t156 -295.5h-2q45 82 137.5 257t142.5 265q13 25 23.5 33t34.5 8h147q33 0 33 -25q0 -6 -2 -12.5t-6 -15t-6 -13.5q-66 -124 -200.5 -369.5t-201.5 -369.5v-602 q0 -39 -33 -39h-217q-23 0 -30 7t-7 32v612q-355 668 -389 731q-14 19 -14 37z" />
<glyph unicode="Z" horiz-adv-x="1019" d="M37 25q0 13 14 36l570 1203h-492q-28 0 -33.5 7.5t-5.5 35.5v100q0 24 8.5 31.5t32.5 7.5h811q19 0 28 -6t9 -23q0 -18 -10 -35l-568 -1194h537q31 0 31 -28v-131q0 -29 -33 -29h-854q-45 0 -45 25z" />
<glyph unicode="[" horiz-adv-x="595" d="M123 -227v1904q0 22 8.5 28.5t30.5 6.5h354q25 0 33 -8t8 -27q0 -7 -1 -20.5t-1 -20.5v2q0 -23 -6 -33t-29 -10h-186v-1740h184q23 0 31 -11t8 -32q0 -7 -1 -21.5t-1 -21.5v4q0 -35 -35 -35h-358q-23 0 -31 6t-8 29z" />
<glyph unicode="\" horiz-adv-x="931" d="M16 1677q0 18 50 41t84 23q14 0 26 -27q-4 6 26 -74t83 -219t119 -311t139 -361t137.5 -357.5t119.5 -312t81 -214.5q30 -83 30 -88q0 -13 -51.5 -40.5t-85.5 -27.5q-5 0 -9 3t-6 5.5t-5 8.5l-4 8q-421 1105 -725 1923l-5 8q-4 4 -4 12z" />
<glyph unicode="]" horiz-adv-x="595" d="M37 -227q0 7 1 20.5t1 20.5v-4q0 19 1.5 26.5t9 13t24.5 5.5h186v1742h-184q-23 0 -31 10t-8 29q0 7 1 21.5t1 21.5v-2q0 15 0.5 20t5.5 10t16 5h375q21 0 28 -6.5t7 -28.5v-1902q0 -24 -7.5 -30.5t-31.5 -6.5h-354q-25 0 -33 8t-8 27z" />
<glyph unicode="^" horiz-adv-x="1499" d="M295 686q3 6 12.5 24t14.5 31q45 86 164 329.5t192 373.5h55h105q46 -105 103 -223t126.5 -258t108.5 -222q5 -12 14.5 -29.5t13.5 -25.5q-18 2 -49 2h-151q-1 3 -10.5 22t-14.5 33l-227 474q-22 -43 -82 -162.5t-100 -202.5t-76 -164h-150q-33 0 -49 -2z" />
<glyph unicode="_" horiz-adv-x="1021" d="M-18 -279h53h1005v-165q-39 2 -112 2h-946v55v108z" />
<glyph unicode="`" horiz-adv-x="557" d="M-176 1405q0 32 18.5 57t46.5 25q34 0 64 -39l59 -59t92.5 -102.5t38.5 -76.5q0 -49 -47 -49q-16 0 -28 6q-12 4 -68.5 42t-116 97t-59.5 99z" />
<glyph unicode="a" horiz-adv-x="931" d="M49 266q0 42 11.5 80t28.5 67.5t47 56.5t57.5 46t69 38t72 30.5t78 25t74.5 20t73 17.5q23 5 34 8v103q0 34 -1.5 55.5t-8.5 49.5t-20 44t-38 27.5t-61 11.5q-47 0 -76.5 -23.5t-44 -56.5t-28 -65.5t-39.5 -54.5q-24 -20 -61 -19h-7q-51 2 -82.5 34t-30.5 85 q10 64 45 102q61 73 159 106t200 33q170 0 252 -70t82 -233v-567q0 -94 -23 -129q-33 -45 -107 -72.5t-138 -35t-130 -7.5q-76 0 -141.5 15t-122.5 47.5t-90 91.5t-33 139zM301 291q0 -79 45 -127.5t123 -48.5q69 0 97 34t28 103v287q-13 -4 -47 -15.5t-50.5 -18 t-47.5 -19.5t-47.5 -24t-39 -29.5t-33.5 -38t-19.5 -46t-8.5 -57.5z" />
<glyph unicode="b" d="M104 234.5v29.5v25v1235q0 25 9 34t34 9h162q32 0 41.5 -7.5t9.5 -35.5v-559q75 63 138.5 92.5t148.5 29.5q77 0 139 -31t100.5 -80.5t64 -116t36 -132.5t10.5 -135q0 -125 -30.5 -233.5t-91 -196t-162.5 -138.5t-234 -51q-61 0 -127.5 12.5t-135 48.5t-93.5 89 q-6 12 -9.5 27t-5.5 26.5t-3 30.5t-1 27.5zM360 299q0 -73 36.5 -118.5t107.5 -45.5q68 0 118 43t74.5 110t35.5 130.5t11 122.5q0 57 -9.5 113.5t-31.5 116.5t-68 97t-110 37q-31 0 -62 -12t-51 -25.5t-51 -38.5v-530z" />
<glyph unicode="c" horiz-adv-x="933" d="M63 524q0 110 27 208.5t81.5 179t145.5 128t209 47.5q92 0 173 -36.5t132 -112.5q37 -46 43 -111q1 -7 0 -15q0 -44 -25 -74q-30 -36 -83 -40q-41 0 -68.5 23.5t-43 57.5t-33 68t-51 57.5t-83.5 23.5q-55 0 -97.5 -34t-64.5 -86.5t-33 -105t-11 -100.5t9 -100.5t30 -106 t51 -95.5t76.5 -68.5t101.5 -26.5q54 0 95 21t64.5 50t42 58.5t37 49t39.5 17.5q27 -1 39.5 -23.5t12.5 -51.5q-2 -44 -17.5 -94t-40.5 -87q-106 -172 -321 -172q-92 0 -167 32t-124.5 85.5t-83 125.5t-48 149t-14.5 159z" />
<glyph unicode="d" d="M63 502q0 83 17 165.5t54 159t89 135t128 93.5t165 35q55 0 94.5 -12.5t91.5 -43.5v492q0 41 43 41h162q27 0 39 -7t12 -30v-1329q0 -66 -26 -101q-29 -44 -106.5 -74.5t-150 -41.5t-132.5 -11q-234 0 -357 144.5t-123 384.5zM322 543q0 -49 6.5 -98.5t24 -106t45 -99 t74 -70.5t106.5 -28q124 0 124 131v627q-64 51 -131 51q-57 0 -102.5 -28.5t-72 -72t-44 -100t-24 -107t-6.5 -99.5z" />
<glyph unicode="e" horiz-adv-x="976" d="M63 532q0 87 16 166.5t52 151t88 124t129.5 83t171.5 30.5q136 0 231.5 -67t139.5 -197q24 -70 24 -123q0 -37 -17.5 -55.5t-53.5 -23.5q-94 -16 -282.5 -42.5t-282.5 -41.5q7 -54 20.5 -101t36.5 -91t53.5 -75.5t74.5 -50t97 -18.5q139 0 252 151q10 14 16.5 21.5 t18 13.5t26.5 6q25 0 38.5 -19t13.5 -44q0 -44 -37 -125q-114 -232 -373 -232q-118 0 -208 47t-142 128t-77.5 177.5t-25.5 206.5zM268 664q65 12 194 32t195 31q-5 81 -51 143t-123 62q-45 0 -82.5 -18.5t-61.5 -50t-40 -66.5t-25 -76q-3 -11 -3 -28t-3 -29z" />
<glyph unicode="f" horiz-adv-x="591" d="M2 983q0 7 1 20.5t1 20.5v-4q0 26 7.5 33.5t33.5 7.5h111q2 64 11.5 128t34.5 138t62.5 129t101 92t144.5 37q52 0 87.5 -25t35.5 -77q0 -42 -25 -70.5t-65 -28.5q-14 0 -39.5 5.5t-36.5 5.5q-56 0 -81.5 -43t-25.5 -103q0 -47 13.5 -105t32.5 -83h155q27 0 36 -10t9 -31 q0 -7 -1 -21t-1 -22v4q0 -23 -7.5 -29t-31.5 -6h-155v-899q0 -25 -8 -36t-31 -11h-178q-24 0 -30.5 10.5t-6.5 36.5v899h-113q-25 0 -33 9t-8 28z" />
<glyph unicode="g" horiz-adv-x="927" d="M23 479q0 164 57.5 302.5t175 226.5t274.5 88q43 0 98 -10t116 -31t102 -63t41 -97v-809q0 -76 -6 -143q-17 -197 -143.5 -311.5t-327.5 -114.5q-33 0 -85.5 9t-116 28t-110.5 59t-53 92q10 49 55 49q43 0 131.5 -38t143.5 -38q135 0 201.5 86.5t66.5 229.5v86 q-18 -10 -51 -31.5t-53.5 -33.5t-52 -22.5t-62.5 -10.5h-35q-97 0 -170.5 44.5t-114.5 118.5t-61 158t-20 176zM268 532q0 -62 10 -119t32.5 -113t68 -90t108.5 -34q31 0 93.5 20t62.5 44v608q0 49 -44 73.5t-93 24.5q-67 0 -116.5 -41.5t-74.5 -107.5t-36 -132t-11 -133z " />
<glyph unicode="h" d="M106 47v1477q0 43 39 43h177q26 0 33 -6.5t7 -34.5v-557q124 118 287 118q152 0 228.5 -92.5t76.5 -244.5v-701q0 -16 -2 -25.5t-10 -16.5t-24 -7h-173q-34 0 -41.5 5.5t-7.5 39.5v643q0 32 -2 57t-11.5 57t-26 53t-47 35.5t-72.5 14.5q-82 0 -175 -78v-778q0 -19 -2 -28 t-11.5 -15t-29.5 -6h-176q-24 0 -30.5 10.5t-6.5 36.5z" />
<glyph unicode="i" horiz-adv-x="464" d="M96 1337q0 54 39.5 88.5t95.5 34.5q60 0 99 -32.5t39 -90.5q0 -61 -36 -96t-97 -35q-62 0 -101 35t-39 96zM106 31v987q0 25 6.5 34t28.5 9h178q27 0 37.5 -9.5t10.5 -33.5v-973q0 -28 -10 -36.5t-40 -8.5h-184q-27 0 -27 31z" />
<glyph unicode="j" horiz-adv-x="464" d="M-131 -428q0 18 8.5 32t16.5 19.5t26 16.5q57 37 95 93.5t56 126t24.5 132.5t6.5 141v879q0 31 8.5 40t39.5 9h174q27 0 32.5 -10.5t5.5 -38.5v-756v-25q0 -147 -22 -261q-24 -124 -96 -242q-51 -84 -134.5 -148.5t-172.5 -64.5q-28 0 -48 14.5t-20 42.5zM98 1329 q0 60 38 95.5t97 35.5q62 0 100 -34.5t38 -96.5q0 -59 -38.5 -91t-96.5 -32q-59 0 -98.5 32t-39.5 91z" />
<glyph unicode="k" horiz-adv-x="1021" d="M104 1530v2q0 35 33 35h178q17 0 24.5 -1t14 -8.5t6.5 -23.5v-924q61 68 183.5 203t183.5 203q20 26 36 35.5t46 9.5h147q37 0 37 -27q0 -7 -3.5 -13.5t-10.5 -15.5t-10 -14q-175 -187 -357 -381q200 -258 422 -551q19 -19 19 -32q0 -27 -35 -27h-238q-23 0 -32.5 5.5 t-20.5 23.5q-29 40 -87.5 121.5t-94 130.5t-87.5 116.5t-98 122.5v-481q0 -24 -8.5 -31.5t-32.5 -7.5h-169q-27 0 -34 6.5t-7 32.5v1493q-3 0 -5 -2z" />
<glyph unicode="l" horiz-adv-x="464" d="M104 43v1489q0 35 37 35h178q24 0 32.5 -7t8.5 -30v-1487q0 -43 -41 -43h-174q-26 0 -33.5 8t-7.5 35z" />
<glyph unicode="m" horiz-adv-x="1617" d="M106 43v852q0 52 43 91.5t108.5 60t129.5 30.5t121 10q96 0 173 -25.5t142 -90.5q119 116 330 116q174 0 264 -75t90 -240v-733q0 -39 -41 -39h-176q-23 0 -31 9.5t-8 33.5v700q0 189 -155 189q-160 0 -160 -187v-700q0 -26 -7.5 -35.5t-31.5 -9.5h-168q-19 0 -27.5 1.5 t-15 10t-6.5 27.5v709q0 84 -38 137t-120 53q-44 0 -76 -13t-48.5 -31t-26 -46t-11.5 -49t-2 -49v-705q0 -26 -9.5 -35.5t-35.5 -9.5h-163q-25 0 -34.5 9t-9.5 34z" />
<glyph unicode="n" d="M106 43v831q0 39 6.5 62.5t28.5 46.5q55 55 180 79.5t228 24.5q66 0 120.5 -7t108.5 -26.5t91 -51.5t60 -85t23 -124v-750q0 -24 -8.5 -33.5t-32.5 -9.5h-168q-26 0 -35.5 10t-9.5 37v723q0 176 -172 176q-166 0 -166 -174v-723q0 -28 -8.5 -38.5t-36.5 -10.5h-165 q-25 0 -34.5 9t-9.5 34z" />
<glyph unicode="o" horiz-adv-x="1107" d="M63 535q0 111 33 210t94.5 175.5t157 121.5t211.5 45q113 0 206 -47.5t152.5 -126.5t92 -179.5t32.5 -209.5q0 -110 -33.5 -209t-95 -175.5t-155.5 -121.5t-207 -45q-117 0 -211.5 46t-154 124.5t-91 179t-31.5 212.5zM330 561q0 -54 12 -119.5t36.5 -135t73 -115.5 t111.5 -46q60 0 104.5 40.5t66.5 103t32 121t10 110.5q0 45 -6 95t-22.5 108.5t-41 104t-67 76t-96.5 30.5q-49 0 -88 -27t-61.5 -67.5t-37.5 -93t-20.5 -98t-5.5 -87.5z" />
<glyph unicode="p" d="M109 -442v1302v17.5v17t0.5 15t2 15t4 13.5t6 15t9 13.5t12.5 14.5q48 51 169.5 78.5t215.5 27.5q233 0 352 -136t119 -371q0 -105 -27.5 -209t-80.5 -194t-142.5 -146t-201.5 -56q-56 0 -96 11.5t-89 42.5v-465q0 -25 -7.5 -35t-32.5 -10h-162q-28 0 -39.5 7.5 t-11.5 31.5zM362 188q32 -17 47.5 -24.5t42 -15t52.5 -7.5q55 0 98 28.5t67.5 70.5t40.5 98.5t21.5 104.5t5.5 96q0 50 -6 99.5t-23.5 104.5t-44 96.5t-73 69t-105.5 27.5q-123 0 -123 -125v-623z" />
<glyph unicode="q" d="M63 477q0 94 20.5 182t63.5 166t104 136t147.5 92t187.5 34q93 0 195 -34t147 -101q5 -8 9 -15.5t7 -17t5 -16t3.5 -18t2 -16.5t1 -18.5t0.5 -17v-18.5v-18v-1237q0 -27 -10.5 -34t-38.5 -7h-157q-20 0 -28 1.5t-14 10t-6 27.5v532q-70 -61 -127.5 -89t-136.5 -28 q-77 0 -141 31t-106.5 82t-72 117.5t-42.5 135.5t-13 138zM324 522q0 -41 5.5 -84.5t21 -92.5t38.5 -87t62.5 -63t89.5 -25q91 0 161 76v542q0 68 -33.5 107t-97.5 39q-58 0 -103.5 -29.5t-71.5 -74t-43 -102.5t-23 -108t-6 -98z" />
<glyph unicode="r" horiz-adv-x="763" d="M109 39v868q0 49 10 72q25 38 115.5 64.5t171 35t137.5 8.5q245 0 245 -153q0 -47 -31.5 -79t-78.5 -32q-30 0 -51 14t-34 33.5t-26 39.5t-36 34t-56 14q-64 0 -87 -30.5t-23 -96.5v-788q0 -26 -8.5 -34.5t-34.5 -8.5h-175q-23 0 -30.5 8t-7.5 31z" />
<glyph unicode="s" horiz-adv-x="890" d="M70 217q0 46 29 80.5t75 34.5q37 0 65.5 -21t48.5 -51t41 -59.5t53.5 -50.5t74.5 -21q55 0 90 35.5t35 89.5q0 47 -27.5 85t-73 63.5t-92.5 46.5t-97.5 45.5t-76.5 48.5q-63 54 -94 111t-31 132q0 146 101.5 223.5t252.5 77.5q52 0 107.5 -12t109 -36t87.5 -69t34 -102 q0 -42 -26.5 -70t-67.5 -28q-38 0 -64 18.5t-41.5 45.5t-31.5 54t-43.5 45.5t-67.5 18.5q-55 0 -90 -34.5t-35 -88.5q0 -42 21.5 -75.5t57 -55t80.5 -43.5t92 -40.5t92 -48t80.5 -64t57 -89.5t21.5 -124q0 -152 -105 -234t-261 -82q-58 0 -122 15t-123 43t-97.5 77 t-38.5 109z" />
<glyph unicode="t" horiz-adv-x="591" d="M-2 987q0 7 1 21.5t1 21.5v-2q0 18 5.5 25.5t23.5 7.5h104v113q0 28 6.5 43t28.5 28q18 11 62.5 42.5t76.5 51t47 19.5q6 0 10.5 -2t8 -4t5.5 -7t3 -8t1.5 -10t0.5 -10v-10.5v-8.5v-237h156q28 0 34 -8q5 -6 5 -21v-49q0 -19 -5 -27t-24 -8h-166v-645q0 -184 143 -184h25 q61 0 61 -51q0 -25 -23 -44.5t-56.5 -29.5t-63.5 -14.5t-53 -4.5q-283 0 -283 299v674h-98q-22 0 -29.5 10t-7.5 29z" />
<glyph unicode="u" d="M104 295v727q0 23 9.5 31t33.5 8h175q40 0 40 -37v-690q0 -98 40 -143.5t141 -45.5q89 0 125.5 38.5t36.5 127.5v711q0 23 9.5 31t33.5 8h161q27 0 38 -8t11 -35v-768q0 -104 -22 -141q-35 -49 -115.5 -81.5t-154.5 -43.5t-142 -11q-72 0 -132 9t-114.5 31.5t-92 58 t-59.5 92.5t-22 131z" />
<glyph unicode="v" horiz-adv-x="931" d="M-2 1034q0 27 29 27h204q22 0 28.5 -7t14.5 -32q11 -34 96 -294t128 -402q143 445 221 704q6 22 14 26.5t33 4.5h137q29 0 29 -25q0 -16 -8 -32q-57 -163 -166.5 -484.5t-167.5 -484.5q-7 -20 -14.5 -27.5t-26.5 -7.5h-148q-25 0 -32.5 4.5t-14.5 26.5 q-64 180 -182.5 506.5t-167.5 463.5q-6 21 -6 33z" />
<glyph unicode="w" horiz-adv-x="1400" d="M-2 1032q0 29 35 29h186q24 0 33.5 -8.5t15.5 -34.5q143 -520 189 -678q57 208 205 678q10 28 20.5 36.5t30.5 8.5q6 0 20 -1t27 -1h-6q7 0 11.5 -0.5t8.5 -3t6 -3.5t4 -6.5t3 -7t3 -10t3 -10.5q10 -31 89 -288t124 -392h-2q33 99 64 210t67.5 253t56.5 215q5 20 8 27 t11.5 11.5t25.5 4.5h121q16 0 23 -1t14 -7t8 -19q-2 -6 -5 -17.5t-7 -19.5q-3 -11 -10.5 -32t-10.5 -33q-46 -150 -276 -893q-5 -20 -13 -29.5t-26 -9.5h-133q-25 0 -35 7t-17 32q-19 60 -56 168.5t-65.5 198t-50.5 169.5q-22 -80 -51 -170.5t-65 -199t-56 -170.5 q-8 -25 -13.5 -30t-31.5 -5h-127q-25 0 -32.5 5.5t-14.5 29.5q-50 161 -151.5 481t-151.5 481q-6 30 -6 35z" />
<glyph unicode="x" horiz-adv-x="890" d="M0 23q0 9 6 18q89 133 313 475q-53 90 -146 251t-132 228q-14 33 -14 39q0 27 32 27h183q28 0 35.5 -5.5t21.5 -31.5q32 -56 94.5 -160t75.5 -125h-2q31 48 93 142.5t93 142.5q13 22 22.5 29.5t31.5 7.5h118q37 0 37 -25q0 -9 -18 -39q-231 -362 -271 -426 q56 -98 161.5 -276.5t139.5 -237.5q17 -28 17 -37q0 -20 -29 -20h-215q-13 0 -21 4.5t-11.5 8.5t-12.5 20q-29 52 -88.5 155.5t-89.5 155.5q-37 -57 -108 -161t-101 -150q-5 -8 -11 -18q-6 -11 -10.5 -13t-24.5 -2h-7h-125q-37 0 -37 23z" />
<glyph unicode="y" horiz-adv-x="976" d="M-2 -367q0 49 31.5 80t79.5 31q20 0 59 -11.5t61 -11.5q28 0 52 12.5t39.5 30.5t30 46t23 52t20 55.5t20.5 49.5q-75 197 -214 555t-184 475q-10 23 -10 37q0 27 37 27h193q8 0 14 -0.5t10.5 -1t7.5 -3t5 -3.5t4.5 -6.5t3.5 -8t3.5 -11t4.5 -13.5q155 -454 217 -631 q3 -10 11.5 -31.5t12.5 -38.5q95 323 226 701q11 31 20.5 39t38.5 8h131q33 0 33 -29q0 -14 -10 -37q-370 -1018 -412 -1134q-28 -79 -57.5 -136t-74 -111t-107.5 -82t-142 -28q-43 0 -81 11t-67.5 41.5t-29.5 76.5z" />
<glyph unicode="z" horiz-adv-x="854" d="M51 27q0 4 7.5 19.5t7.5 16.5l415 852h-354q-24 0 -31.5 6.5t-7.5 30.5v70q0 39 39 39h629q39 0 39 -29q0 -7 -13 -37l-407 -850h385q35 0 35 -32v-78q0 -22 -7.5 -28.5t-29.5 -6.5h-676q-13 0 -22 7t-9 20z" />
<glyph unicode="{" horiz-adv-x="589" d="M-35 752q0 18 22 28.5t54.5 21.5t48.5 27q51 53 51 207v64v272q0 95 25 167t94 122q84 57 246 57q36 0 45.5 -7.5t9.5 -31.5q0 -1 0.5 -12t0 -16t-2.5 -13.5t-7.5 -12t-14.5 -3.5h-9q-9 -2 -31 -5.5t-34.5 -6.5t-31.5 -11t-31 -21.5t-24 -35t-18.5 -54.5t-7.5 -77v-70 q0 -42 1 -123.5t1 -123.5q0 -41 -0.5 -66t-4.5 -64t-11 -64.5t-20.5 -56t-32.5 -50t-48.5 -35.5t-66.5 -23v-8q7 -2 23 -6.5t27.5 -8.5t21.5 -10q110 -66 110 -290v-271q0 -86 11.5 -145.5t30 -87.5t41.5 -42.5t45.5 -16.5t41 -3.5t30 -9.5t11.5 -29v-38q0 -21 -29 -21 q-62 0 -103 3t-86 13t-73.5 28.5t-56 50.5t-42 78.5t-23.5 112.5t-9 152q0 40 1 100.5t1 75.5v80q-6 82 -24 138t-66 82q-18 9 -35.5 12.5t-25.5 3t-14.5 5.5t-8.5 21t-2 48z" />
<glyph unicode="|" horiz-adv-x="462" d="M147 -512q0 28 1.5 82t1.5 82v1712q0 27 -1.5 81.5t-1.5 82.5h166q0 -28 -1 -82t-1 -82v-1878q-16 0 -44.5 1t-41.5 1h-78z" />
<glyph unicode="}" horiz-adv-x="589" d="M25 -217q0 22 0.5 30.5t5.5 18t15.5 12t29.5 2.5h16q71 10 103.5 58t40.5 139v68v317q0 58 6.5 99.5t24.5 84t56.5 71t96.5 44.5v8q-59 10 -98 42t-57.5 82t-25 97.5t-6.5 108.5q0 17 1.5 49t1.5 47v203q0 31 -1 54t-6.5 54.5t-15.5 54.5t-29 45t-45 34q-16 7 -39 9.5 t-38 3t-26 11t-11 33.5q0 39 12 47t57 8q148 0 238 -59q63 -46 84.5 -111.5t27.5 -163.5v-75v-291q0 -164 93 -217q18 -11 35 -15.5t25.5 -4t15.5 -4t9.5 -19t2.5 -45.5q0 -23 -12.5 -29.5t-30 -5.5t-45.5 -14t-52 -50q-41 -58 -41 -241v-203q0 -93 -10 -161.5t-33 -114.5 t-52 -75.5t-74.5 -44.5t-91.5 -20.5t-113 -5.5q-27 0 -36 6t-9 19v10z" />
<glyph unicode="~" horiz-adv-x="1505" d="M260 596q62 83 123 125.5t147 42.5q52 0 117.5 -22t116.5 -48.5t108.5 -48.5t94.5 -22q106 0 196 125q9 -16 24.5 -47.5t28.5 -56t27 -46.5q-137 -160 -276 -160q-53 0 -114 22.5t-107 49.5t-103.5 49.5t-105.5 22.5h4q-67 0 -113 -37t-84 -101q-42 86 -84 152z" />
<glyph unicode="&#xa1;" horiz-adv-x="589" d="M96 1303q0 66 45 109.5t111 43.5q62 0 108 -43.5t46 -105.5q0 -64 -43.5 -111t-108.5 -47q-66 0 -112 44t-46 110zM98 35q0 3 1 5t1 5q13 141 40.5 425t41.5 445q1 18 3 25.5t10 12.5t24 5h57q40 0 43 -40q15 -202 76 -875v-12q0 -15 -5.5 -22t-12 -8t-23.5 -1h-215 q-22 0 -31.5 6t-9.5 29z" />
<glyph unicode="&#xa2;" horiz-adv-x="927" d="M61 522q0 91 22.5 182.5t66.5 175t120.5 141t173.5 69.5v139q0 16 7 20t22 4q4 0 14.5 0.5t15.5 0t11.5 -2t9 -6t2.5 -12.5v-141q71 0 150 -33t137.5 -96t58.5 -136q0 -41 -27.5 -69.5t-68.5 -28.5q-36 0 -57.5 19t-33.5 48t-26 59t-47.5 56t-85.5 35l2 -758h-2 q58 0 102.5 20t69.5 49t43.5 57.5t35.5 48.5t36 20q51 0 51 -70q0 -85 -67 -177.5t-144 -131.5q-40 -15 -127 -31v-133q0 -17 -8 -21.5t-24 -4.5h-13h-11.5h-8.5t-7 1t-4.5 3t-3.5 5t-1.5 7t-0.5 10v133q-101 16 -177 69t-119.5 130.5t-65 165.5t-21.5 184zM256 602 q0 -52 10.5 -109t31.5 -113.5t59 -101.5t87 -65v729q-54 -16 -92.5 -52.5t-58.5 -85.5t-28.5 -98.5t-8.5 -103.5z" />
<glyph unicode="&#xa3;" horiz-adv-x="1284" />
<glyph unicode="&#xa4;" horiz-adv-x="1374" d="M84 229q33 27 87.5 82t72.5 72q-27 37 -41.5 61t-32.5 64.5t-26.5 91t-8.5 113.5q0 168 107 311q-17 17 -48 50t-57.5 59t-50.5 47q10 8 33 30l92 93l154 -154q47 32 81 51t99.5 37t138.5 18q57 0 105.5 -8.5t92 -28t64.5 -31.5t62 -38l153 154l31 -31q12 -12 32 -31.5 t31 -30.5l31 -30l-156 -156q36 -54 52.5 -83.5t34.5 -92t18 -133.5q0 -63 -8 -113t-27 -93.5t-31.5 -64t-40.5 -63.5q41 -43 127 -125l31 -31q-5 -5 -16.5 -15t-16.5 -15l-61 -62q-3 -3 -10 -9t-13 -12t-10 -12q-50 57 -153 156q-53 -33 -85 -50t-98.5 -34.5t-142.5 -17.5 q-57 0 -103 8t-88.5 27.5t-61 30.5t-62.5 40l-125 -125q-26 -26 -31 -33q-70 77 -125 127zM297 713q0 -105 47.5 -194.5t136 -145t199.5 -58.5q83 -3 176 41q61 29 105.5 73.5t64.5 83.5t31.5 86.5t12.5 66t1 39.5q0 83 -27 153q-16 40 -45.5 78.5t-73.5 74.5t-108.5 58.5 t-138.5 22.5q-159 0 -270 -110t-111 -269z" />
<glyph unicode="&#xa5;" horiz-adv-x="1103" d="M0 1419q0 27 29 27h227q25 0 35 -6.5t20 -30.5q-2 2 -2 4q46 -89 139.5 -264t139.5 -264q46 86 138 260t138 260q13 26 23 33.5t37 7.5h151q29 0 29 -25q0 -8 -14 -41q-48 -90 -145.5 -269t-145.5 -269h166q27 -1 35 -13t8 -36q0 -56 -7.5 -68t-42.5 -12h-231 q-5 -9 -18 -34t-21 -38v-86h279q27 0 35 -12.5t8 -36.5q0 -56 -8 -67t-44 -11q-44 0 -134.5 -1t-135.5 -1v-387q0 -39 -31 -39h-213q-25 0 -34 7t-9 32v387q-50 -1 -139 0.5t-119 1.5q-29 0 -39 11t-10 34v45q0 22 9.5 29.5t35.5 7.5h262v96q-5 12 -15 31.5t-15 30.5h-226 q-29 0 -39 11t-10 34v43q0 25 8.5 32t34.5 9h-2h164q-48 90 -144.5 269t-144.5 269q-12 32 -12 39z" />
<glyph unicode="&#xa6;" horiz-adv-x="462" d="M150 -317v706h55h108q-2 -23 -2 -67v-709q-18 2 -55 2h-106v68zM150 625v67v709h55h108q-2 -23 -2 -68v-710q-18 2 -55 2h-106z" />
<glyph unicode="&#xa7;" horiz-adv-x="970" d="M59 625q0 96 51.5 167.5t143.5 137.5q-56 56 -82.5 113t-26.5 128q0 100 49 171.5t127 105t175 33.5q55 0 114.5 -15t115 -44t91 -80t35.5 -115q0 -49 -27 -82t-75 -33q-35 0 -61 22t-43 54t-35 64t-47.5 56t-69.5 27q-61 0 -98.5 -38.5t-37.5 -98.5q0 -39 16.5 -72.5 t40 -56.5t60.5 -44t66.5 -33t68.5 -25q61 -27 107.5 -54t94.5 -66.5t74.5 -92t26.5 -113.5q0 -47 -14.5 -89.5t-45 -81t-56 -64t-68.5 -62.5q150 -127 150 -287q0 -145 -102.5 -238t-266.5 -93h-12q-43 0 -93 10.5t-102.5 34t-95 56t-69.5 81t-27 104.5q0 53 31 90t83 37 q35 0 62 -19t41.5 -47t32.5 -61t35 -61t48.5 -47t73.5 -19q61 0 98 36.5t37 96.5q0 29 -9.5 56t-23 48t-37 41.5t-44 34t-52 30t-52 25.5t-53.5 23t-48 21q-60 28 -103.5 55.5t-85.5 67t-64 91.5t-22 114zM262 682q0 -36 19 -69t46.5 -56t68 -45.5t75 -37t76.5 -32t63 -28.5 q101 86 101 174q0 19 -3.5 35.5t-13.5 31.5t-18 26.5t-25.5 24t-26.5 19.5t-32 18.5t-30.5 15t-33.5 14.5t-30 13q-15 7 -44 20t-52.5 24.5t-45.5 25.5q-94 -90 -94 -174z" />
<glyph unicode="&#xa8;" horiz-adv-x="557" d="M-236 1341q0 53 40.5 90t95.5 37q57 0 97 -32.5t40 -89.5q0 -62 -37.5 -98t-99.5 -36q-58 0 -97 35t-39 94zM152 1341q0 54 39.5 90.5t95.5 36.5q58 0 96.5 -35t38.5 -94q0 -60 -38 -93.5t-97 -33.5t-97 34.5t-38 94.5z" />
<glyph unicode="&#xa9;" horiz-adv-x="1701" d="M125 723q0 151 56.5 285.5t152.5 231.5t231 153.5t285 56.5q206 0 373 -96t261.5 -264t94.5 -373q0 -149 -58 -283.5t-156 -230t-232.5 -151.5t-282.5 -56q-149 0 -283 56.5t-231 153t-154 231.5t-57 286zM186 723q0 -182 88 -335t241.5 -242t336.5 -89q182 0 335 89 t241 242.5t88 336.5q0 136 -52 258.5t-140.5 210.5t-211 140t-258.5 52q-137 0 -260.5 -52t-213 -140t-142 -211t-52.5 -260zM375 719q0 211 139 353t350 142q230 0 396 -186q-61 -53 -119 -110q-67 70 -128.5 104.5t-146.5 34.5q-142 0 -235.5 -96t-93.5 -238 q0 -140 92.5 -233t234.5 -93q169 0 275 133q9 -7 53 -46t68 -58q-156 -188 -394 -188q-209 0 -350 136t-141 345z" />
<glyph unicode="&#xaa;" horiz-adv-x="583" d="M33 956q0 44 21 80.5t50 59t74.5 42t79.5 29.5t81 22q19 5 28 7v74q0 31 -3.5 50t-20.5 34.5t-48 15.5q-29 0 -47.5 -13.5t-27 -33t-16.5 -38.5t-24.5 -32.5t-42.5 -13.5q-31 0 -51 19t-20 51q0 43 26.5 74.5t67 47.5t79 23.5t72.5 7.5q113 0 161 -43t48 -151v-344 q0 -154 -252 -154q-63 0 -113.5 16.5t-86 60t-35.5 109.5zM193 971q0 -49 26 -79t72 -30q42 0 59 19.5t17 62.5v174q-9 -3 -37 -12.5t-41 -15t-35 -17.5t-32.5 -24.5t-19.5 -32.5t-9 -45z" />
<glyph unicode="&#xab;" horiz-adv-x="880" d="M61 598q0 26 35 53q40 29 105 105.5t116 134t70 57.5q45 0 45 -43q0 -33 -73.5 -152t-73.5 -155q0 -35 37.5 -102t74.5 -129t37 -84q0 -19 -12.5 -33t-32.5 -14q-5 0 -10 1t-9.5 4t-8 5t-8.5 7l-6.5 6.5t-6.5 7.5t-6 7q-19 23 -57.5 70.5t-60.5 74t-57 63t-69 65.5 q-29 23 -29 51zM416 598q0 26 35 53q42 27 88 74.5t71.5 79.5t71.5 94l18 25q24 24 43 24t32 -13t13 -30q0 -33 -73.5 -152t-73.5 -155t36.5 -102t73.5 -127.5t37 -85.5q0 -20 -11.5 -33.5t-31.5 -13.5q-12 0 -22.5 7t-15 12t-15.5 19q-16 19 -57 69.5t-62 75.5t-57 62.5 t-70 65.5q-24 21 -27 33q-3 7 -3 18z" />
<glyph unicode="&#xac;" horiz-adv-x="1380" d="M-6 514q2 31 2 84v-4q0 57 -2 84h119h1271v-684q-31 2 -84 2h7h-86q2 35 2 106v414h-1117q-73 0 -112 -2z" />
<glyph unicode="&#xad;" horiz-adv-x="641" d="M123 518v105q0 24 6.5 31.5t30.5 7.5h368q23 0 29 -6t6 -29v-115q0 -25 -6 -31t-31 -6h-370q-22 0 -27.5 9t-5.5 34z" />
<glyph unicode="&#xae;" horiz-adv-x="1701" d="M125 723q0 197 96.5 364.5t263.5 265t365 97.5q205 0 372 -96t262 -264t95 -373q0 -149 -58 -283.5t-156 -230t-232.5 -151.5t-282.5 -56q-198 0 -365 97.5t-263.5 265t-96.5 364.5zM186 723q0 -182 88 -335t241 -242t335 -89q137 0 260.5 52.5t213 142t142 214 t52.5 261.5q0 181 -89.5 333t-243 239t-335.5 87q-181 0 -333.5 -88.5t-241.5 -241.5t-89 -333zM539 264v64v862q100 -2 292 -2h56q44 0 84 -5t84.5 -20.5t76.5 -40t53 -68t21 -100.5q0 -89 -47 -142.5t-141 -78.5q29 -12 49 -27t32 -28t21 -37.5t12.5 -39.5t10.5 -51.5 t12 -57.5q25 -143 64 -228h-66h-125q-17 31 -28 90t-15.5 112t-19.5 105t-41 74q-41 35 -142 35h-77v-416h-58h-108zM705 813h169q72 0 119 29.5t47 97.5q0 33 -11.5 56.5t-27.5 35.5t-43.5 18.5t-47.5 7.5t-52 1h-153v-246z" />
<glyph unicode="&#xaf;" horiz-adv-x="557" d="M-209 1290v88q0 22 8.5 28.5t32.5 6.5h545q24 0 32.5 -8t8.5 -31v-80q0 -25 -10 -31t-37 -6h-531q-20 0 -28 1t-14.5 8.5t-6.5 23.5z" />
<glyph unicode="&#xb0;" horiz-adv-x="720" d="M31 1217q0 137 96.5 233t232.5 96q139 0 234.5 -95.5t95.5 -233.5q0 -136 -96.5 -234t-233.5 -98q-138 0 -233.5 98t-95.5 234zM201 1221q0 -66 46.5 -113t112.5 -47t113 46.5t47 113.5t-47 113t-113 46q-68 0 -113.5 -46t-45.5 -113z" />
<glyph unicode="&#xb1;" horiz-adv-x="1017" d="M59 0q0 4 1 19t1 22v80q0 7 -1 20.5t-1 20.5h50h847q-2 -14 -2 -41v-123q-33 2 -96 2h-799zM59 694q0 7 1 21.5t1 21.5v82q0 7 -1 20.5t-1 20.5h371v367q14 -2 41 -2h80q27 0 41 2v-367h364q-2 -14 -2 -41v-127q-32 4 -51 4h-311v-366h-41h-121v366h-315q-8 0 -26 -1 t-30 -1z" />
<glyph unicode="&#xb2;" horiz-adv-x="673" d="M43 571q0 9 18 41l265 349q34 44 51.5 68.5t36 69.5t18.5 87q0 57 -35 100t-92 43q-61 0 -92 -36t-47 -99q-12 -45 -47 -45q-53 0 -53 63q0 113 81.5 183.5t194.5 70.5q106 0 180 -66t74 -173q0 -70 -31 -129.5t-90 -134.5l-207 -271h305q19 0 25 -4t6 -22v-99 q0 -16 -7.5 -21t-27.5 -5h-487q-39 0 -39 30z" />
<glyph unicode="&#xb3;" horiz-adv-x="673" d="M37 713q0 33 21 55.5t53 22.5q24 0 42.5 -16.5t32 -40t29.5 -47t44.5 -40t66.5 -16.5q57 0 88.5 39.5t31.5 97.5q0 35 -13 64.5t-30 48t-48 36.5t-52 26.5t-57 21.5q-43 14 -43 39q0 20 22 36q37 16 50 21.5t44.5 24t45 33.5t26 41.5t12.5 56.5q0 49 -32 84.5t-80 35.5 q-29 0 -51.5 -8.5t-37 -24t-23.5 -30t-18.5 -33t-15.5 -27.5l2 3q-9 -25 -34 -25q-24 0 -38 16.5t-14 40.5q0 66 42.5 117t100.5 74.5t118 23.5h4q96 0 167.5 -57.5t71.5 -151.5q0 -65 -33.5 -111t-95.5 -85q81 -39 126.5 -106.5t45.5 -153.5q0 -128 -83 -204.5t-212 -76.5 q-39 0 -85.5 13t-90 36t-72 61.5t-28.5 84.5z" />
<glyph unicode="&#xb4;" horiz-adv-x="557" d="M47 1214q0 7 4 23q7 33 112 141.5t140 108.5q29 0 47.5 -24.5t18.5 -57.5q0 -22 -4 -29q-12 -38 -124.5 -126.5t-144.5 -88.5q-49 0 -49 53z" />
<glyph unicode="&#xb6;" horiz-adv-x="1368" d="M182 1034q0 183 121 297.5t328 114.5h465v-115q-28 4 -35 4h-31v-1669q-23 2 -59 2h6q-44 0 -62 -2v1669h-294v-1669q-23 2 -62 2h8q-43 0 -61 -2v983q-162 28 -243 131.5t-81 253.5z" />
<glyph unicode="&#xb7;" horiz-adv-x="507" d="M102 561q0 66 43 110t109 44q65 0 107 -46.5t42 -111.5q0 -61 -43.5 -104t-105.5 -43q-66 0 -109 42.5t-43 108.5z" />
<glyph unicode="&#xb8;" horiz-adv-x="557" d="M-152 -395q0 39 39 39q22 0 69 -8.5t67 -8.5q41 0 72.5 19.5t31.5 58.5q0 34 -21.5 49.5t-47 15.5t-47 8t-21.5 29q0 42 20 199h107q-4 -26 -13.5 -77t-13.5 -76q75 0 129.5 -37t54.5 -111q0 -58 -35.5 -101t-85 -62t-102.5 -19q-29 0 -72 6.5t-87 26.5t-44 49z" />
<glyph unicode="&#xb9;" horiz-adv-x="673" d="M39 1227q0 15 10 25.5t19 14t28 9.5q131 36 230 113q13 6 45 36.5t53 30.5q47 0 47 -49v-844q0 -24 -27 -24h-106q-31 0 -31 30v670q-168 -55 -213 -55q-23 0 -39 10.5t-16 32.5z" />
<glyph unicode="&#xba;" horiz-adv-x="714" d="M55 1118q0 146 81 246t226 100q91 0 160.5 -51t103 -129.5t33.5 -169.5q0 -142 -82 -242t-219 -100q-99 0 -169 48.5t-102 125t-32 172.5zM223 1137q0 -32 7.5 -72t23 -82t45 -70t66.5 -28q40 0 67.5 27t40 70t17 79.5t4.5 73.5q0 31 -8 68.5t-24 75t-45 62.5t-65 25 q-37 0 -64.5 -24t-40.5 -62t-18.5 -73.5t-5.5 -69.5z" />
<glyph unicode="&#xbb;" horiz-adv-x="880" d="M90 905q0 17 13 30t32 13q6 0 12.5 -3t12.5 -6.5t13 -10.5t11.5 -12t11 -14t9.5 -13t9 -13t7 -10q74 -108 213 -227q29 -23 29 -53q0 -7 -2 -13.5t-6.5 -12.5t-7.5 -9.5t-10 -10t-9 -8.5q-18 -15 -36.5 -31.5t-38.5 -37.5t-33.5 -35.5t-37 -41.5t-32.5 -37t-35 -41.5 t-31 -37.5q-2 -3 -6 -8.5t-6.5 -8.5t-6 -6.5t-7.5 -5.5t-9 -3.5t-12 -1.5q-19 0 -32 13t-13 32q0 13 14 38q6 11 49.5 84t63 115.5t19.5 69.5q0 39 -37 104t-74 125t-37 88zM446 281q0 26 74 148.5t74 156.5q0 41 -37 105.5t-74 124.5t-37 89q0 18 11.5 30.5t31.5 12.5 q26 0 56 -39q14 -18 51 -67t56.5 -73.5t53.5 -59t68 -58.5q24 -16 34.5 -29t10.5 -34q0 -22 -35 -53q-130 -111 -241 -265q-26 -34 -51 -34q-19 0 -32.5 13t-13.5 32z" />
<glyph unicode="&#xbc;" horiz-adv-x="1611" d="M41 1227q0 15 10 25.5t19 14t28 9.5q122 32 230 113q10 5 41.5 36t56.5 31q47 0 47 -49v-844q0 -24 -27 -24h-106q-31 0 -31 30v670q-168 -55 -213 -55q-23 0 -39 10.5t-16 32.5zM375 16q0 16 14 41q120 225 355.5 673.5t355.5 674.5q13 27 26 34t39 7h41h-4q31 0 31 -21 q0 -18 -16 -39q-119 -225 -353.5 -673t-353.5 -674q-13 -25 -24 -33t-31 -8q-6 0 -22.5 1t-29.5 1h3q-31 0 -31 16zM956 240q0 8 2.5 16t5 13t8 13.5t7.5 12.5q156 254 352 584h-2q12 23 25.5 31t40.5 8q23 0 35 -16.5t12 -41.5v-565q13 0 30 1t23 1q26 0 31.5 -11.5 t5.5 -62.5q0 -10 -1 -15.5t-5.5 -8t-8 -2.5h-14.5h-61v-177q0 -17 -6 -22.5t-25 -5.5h-100q-19 0 -24 5t-5 23v177h-274q-22 0 -37 10.5t-15 32.5zM1094 295h194v354q-48 -95 -194 -354z" />
<glyph unicode="&#xbd;" horiz-adv-x="1611" d="M41 1227q0 15 10 25.5t19 14t28 9.5q122 32 230 113q10 5 41.5 36t56.5 31q47 0 47 -49v-844q0 -24 -27 -24h-106q-31 0 -31 30v670q-168 -55 -213 -55q-23 0 -39 10.5t-16 32.5zM344 16q0 18 14 41q32 61 300.5 571t410.5 777q12 27 26 34t38 7h41h-5q33 0 33 -21 q0 -18 -16 -39q-119 -225 -353.5 -673t-353.5 -674q-13 -25 -24 -33t-31 -8q-6 0 -23 1t-30 1h2q-29 0 -29 16zM977 31q0 10 18 41q44 58 132.5 173.5t132.5 174.5q104 122 104 223q0 59 -33 101t-90 42q-60 0 -90.5 -34.5t-50.5 -100.5q-12 -45 -47 -45q-27 0 -40.5 18.5 t-13.5 47.5q0 114 82.5 185t194.5 71q106 0 181 -67.5t75 -174.5q0 -50 -19.5 -100.5t-41.5 -82.5t-62 -83q-36 -45 -104.5 -134t-104.5 -134h305q19 0 26 -4.5t7 -22.5v-92q0 -20 -5.5 -26.5t-27.5 -6.5h-489q-39 0 -39 31z" />
<glyph unicode="&#xbe;" horiz-adv-x="1611" d="M37 713q0 33 21 55.5t53 22.5q24 0 42.5 -16.5t32 -40t29.5 -47t44.5 -40t66.5 -16.5q57 0 88.5 39.5t31.5 97.5q0 35 -13 64.5t-30 48t-48 36.5t-52 26.5t-57 21.5q-16 5 -29.5 16t-13.5 23t3 19t6.5 9.5t12.5 7.5q92 40 124 67q54 46 54 110q0 49 -32 84.5t-80 35.5 q-36 0 -62.5 -14.5t-37.5 -30.5t-25.5 -43t-20.5 -35q3 1 5 3q-16 -25 -35 -25q-25 0 -38.5 16t-13.5 41q0 69 41.5 120t99 73t118.5 22h6q95 0 166 -57.5t71 -151.5q0 -67 -32.5 -112t-96.5 -84q172 -83 172 -260q0 -128 -82.5 -204.5t-212.5 -76.5q-39 0 -84 11.5 t-89.5 33.5t-73.5 61.5t-29 88.5zM428 18q5 16 16 39q84 159 328.5 625.5t380.5 722.5q12 27 26 34t38 7h40h-2q33 0 33 -21q0 -15 -18 -39q-119 -225 -353.5 -673t-353.5 -674q-13 -25 -24 -33t-31 -8q-6 0 -22 1t-29 1h4q-33 0 -33 18zM956 240q0 8 2.5 16t5 13t8 13.5 t7.5 12.5q60 99 176.5 292t177.5 292h-4q12 23 25.5 31t40.5 8q24 0 36.5 -16.5t12.5 -41.5v-565q13 0 29 1t22 1q26 0 31.5 -11.5t5.5 -62.5q0 -10 -1 -15.5t-5.5 -8t-8 -2.5h-14.5h-59v-177q0 -17 -6 -22.5t-25 -5.5h-102q-19 0 -24 5t-5 23v177h-274q-22 0 -37 10.5 t-15 32.5zM1094 295h194v354l-24 -49q-8 -11 -25 -41q-30 -58 -145 -264z" />
<glyph unicode="&#xbf;" horiz-adv-x="839" d="M37 252q0 46 14 86.5t43 77.5t55.5 62t69.5 61q58 47 83.5 100.5t37.5 126.5q1 12 2 40.5t2.5 51.5t6 47.5t16 38.5t28.5 14q7 0 22 -1t25 -1h-6q27 0 33.5 -7t11.5 -36q33 -231 33 -307q0 -19 -7 -32.5t-14.5 -20t-27.5 -21.5q-90 -58 -119 -87q-67 -66 -67 -160 q0 -68 41.5 -116t105.5 -48q51 0 81.5 25t43.5 60.5t25 70.5t37.5 60t68.5 25q53 0 84 -34.5t31 -87.5q0 -74 -39 -129.5t-101.5 -85.5t-128 -44t-131.5 -14q-67 0 -129 16t-115 49t-84.5 89.5t-31.5 130.5zM262 1303q0 66 44 109.5t110 43.5q63 0 107 -43t44 -106 t-43.5 -110.5t-105.5 -47.5q-66 0 -111 44t-45 110z" />
<glyph unicode="&#xc0;" horiz-adv-x="1230" d="M-2 25q0 7 4 20.5t8 17.5q85 226 250 671.5t250 670.5q11 27 19 34t30 7h115q22 0 32 -6t17 -25q83 -228 251 -680.5t251 -681.5q8 -19 8 -33q0 -5 -1 -8.5t-3.5 -5.5t-4.5 -3.5t-6.5 -2t-6 -0.5h-7h-6.5h-217q-28 0 -34.5 5.5t-14.5 31.5q-24 70 -75.5 208t-76.5 208 h-409q-17 -47 -69 -191t-79 -223q-11 -26 -18 -32.5t-31 -6.5h-143q-33 0 -33 25zM330 1819q0 35 20 63.5t53 28.5q21 0 33.5 -7.5t32.5 -27.5l9 -9q10 -9 21.5 -20t27.5 -28t32.5 -34t33.5 -36.5t31.5 -38t26.5 -36t18.5 -32.5t6.5 -26q0 -25 -13.5 -42.5t-37.5 -17.5 q-7 0 -23.5 7t-21.5 12l-25 18q-18 14 -69.5 48.5t-78.5 55t-52 54.5t-25 68zM422 606h307q-31 87 -81.5 239.5t-74.5 221.5q-28 -96 -80.5 -250t-70.5 -211z" />
<glyph unicode="&#xc1;" horiz-adv-x="1230" d="M-2 25q0 7 4 20.5t8 17.5q85 226 250 671.5t250 670.5q11 27 19 34t30 7h115q22 0 32 -6t17 -25q83 -228 251 -680.5t251 -681.5q8 -19 8 -33q0 -5 -1 -8.5t-3.5 -5.5t-4.5 -3.5t-6.5 -2t-6 -0.5h-7h-6.5h-217q-28 0 -34.5 5.5t-14.5 31.5q-24 70 -75.5 208t-76.5 208 h-409q-17 -47 -69 -191t-79 -223q-11 -26 -18 -32.5t-31 -6.5h-143q-33 0 -33 25zM422 606h307q-31 87 -81.5 239.5t-74.5 221.5q-28 -96 -80.5 -250t-70.5 -211zM571 1616q0 28 23.5 61t77 86t61.5 62q2 3 20.5 25t27 31t25.5 19.5t32 10.5q35 0 55 -26.5t20 -65.5 q0 -18 -5.5 -35t-20 -35t-26.5 -30.5t-37.5 -32t-39.5 -29.5t-46.5 -32.5l-45.5 -31.5l-43 -30q-14 -7 -20 -7q-26 0 -42 17t-16 43z" />
<glyph unicode="&#xc2;" horiz-adv-x="1230" d="M-2 25q0 7 4 20.5t8 17.5q85 226 250 671.5t250 670.5q11 27 19 34t30 7h115q22 0 32 -6t17 -25q83 -228 251 -680.5t251 -681.5q8 -19 8 -33q0 -5 -1 -8.5t-3.5 -5.5t-4.5 -3.5t-6.5 -2t-6 -0.5h-7h-6.5h-217q-28 0 -34.5 5.5t-14.5 31.5q-24 70 -75.5 208t-76.5 208 h-409q-17 -47 -69 -191t-79 -223q-11 -26 -18 -32.5t-31 -6.5h-143q-33 0 -33 25zM309 1595q0 23 42 67.5t105.5 101.5t88.5 87q26 33 59 33q32 0 58 -29q19 -30 62.5 -67.5t82.5 -65.5t69.5 -59.5t30.5 -54.5q0 -20 -10 -38t-27 -18q-23 0 -73.5 34.5t-104 69t-84.5 34.5 q-33 0 -135 -72t-125 -72q-18 0 -28.5 15t-10.5 34zM422 606h307q-31 87 -81.5 239.5t-74.5 221.5q-28 -96 -80.5 -250t-70.5 -211z" />
<glyph unicode="&#xc3;" horiz-adv-x="1230" d="M-2 25q0 7 4 20.5t8 17.5q85 226 250 671.5t250 670.5q11 27 19 34t30 7h115q22 0 32 -6t17 -25q83 -228 251 -680.5t251 -681.5q8 -19 8 -33q0 -5 -1 -8.5t-3.5 -5.5t-4.5 -3.5t-6.5 -2t-6 -0.5h-7h-6.5h-217q-28 0 -34.5 5.5t-14.5 31.5q-24 70 -75.5 208t-76.5 208 h-409q-17 -47 -69 -191t-79 -223q-11 -26 -18 -32.5t-31 -6.5h-143q-33 0 -33 25zM283 1630q0 83 58 141t136 58h8q39 0 77 -16.5t64.5 -36t61 -36t66.5 -16.5q24 0 44 10t33 24t24.5 28.5t24 24.5t25.5 10q19 0 30 -14t11 -33q0 -88 -57.5 -147.5t-143.5 -59.5 q-40 0 -79 16t-64.5 35t-59.5 35t-65 16q-28 0 -52 -14.5t-37 -32.5t-28.5 -32.5t-29.5 -14.5q-23 0 -35 17t-12 38zM422 606h307q-31 87 -81.5 239.5t-74.5 221.5q-28 -96 -80.5 -250t-70.5 -211z" />
<glyph unicode="&#xc4;" horiz-adv-x="1275" d="M-2 25q0 7 4 20.5t8 17.5q85 226 250 671.5t250 670.5q11 27 19 34t30 7h115q22 0 32 -6t17 -25q83 -228 251 -680.5t251 -681.5q8 -19 8 -33q0 -5 -1 -8.5t-3.5 -5.5t-4.5 -3.5t-6.5 -2t-6 -0.5h-7h-6.5h-217q-28 0 -34.5 5.5t-14.5 31.5q-24 70 -75.5 208t-76.5 208 h-409q-17 -47 -69 -191t-79 -223q-11 -26 -18 -32.5t-31 -6.5h-143q-33 0 -33 25zM266 1700q0 61 42 97t106 36q60 0 99.5 -34t39.5 -93q0 -60 -40 -97.5t-99 -37.5q-65 0 -106.5 33t-41.5 96zM422 606h307q-31 87 -81.5 239.5t-74.5 221.5q-28 -96 -80.5 -250t-70.5 -211z M672 1700q0 61 42 97t105 36q60 0 99.5 -34t39.5 -93q0 -60 -40 -97.5t-99 -37.5q-65 0 -106 33t-41 96z" />
<glyph unicode="&#xc5;" horiz-adv-x="1275" d="M-2 25q0 7 4 20.5t8 17.5q85 226 250 671.5t250 670.5q11 27 19 34t30 7h115q22 0 32 -6t17 -25q83 -228 251 -680.5t251 -681.5q8 -19 8 -33q0 -5 -1 -8.5t-3.5 -5.5t-4.5 -3.5t-6.5 -2t-6 -0.5h-7h-6.5h-217q-28 0 -34.5 5.5t-14.5 31.5q-24 70 -75.5 208t-76.5 208 h-409q-17 -47 -69 -191t-79 -223q-11 -26 -18 -32.5t-31 -6.5h-143q-33 0 -33 25zM422 606h307q-31 87 -81.5 239.5t-74.5 221.5q-28 -96 -80.5 -250t-70.5 -211zM424 1726q0 78 56 134.5t134 56.5q81 0 136 -56.5t55 -136.5q0 -82 -52.5 -135t-134.5 -53q-83 0 -138.5 52.5 t-55.5 137.5zM528 1726q0 -35 24.5 -60.5t59.5 -25.5q36 0 62 23t26 59q0 38 -25 64t-63 26q-35 0 -59.5 -25.5t-24.5 -60.5z" />
<glyph unicode="&#xc6;" horiz-adv-x="1601" d="M-37 27q0 8 14 41q93 218 282.5 660.5t285.5 670.5q9 21 13 28t14.5 13t29.5 6h752q24 0 29.5 -8t5.5 -35v-109q0 -24 -8 -31.5t-33 -7.5h-506q14 -62 82 -413h424q25 0 33 -6.5t8 -30.5v-109q0 -22 -8 -28t-33 -6h-387q17 -82 49 -241t47 -233h450q22 0 28.5 -7.5 t6.5 -28.5v-113q0 -39 -35 -39h-655q-23 0 -31.5 8.5t-13.5 32.5q-14 66 -39.5 199t-38.5 200h-375q-28 -69 -80.5 -201t-80.5 -200q-11 -27 -18.5 -33t-33.5 -6h-143q-35 0 -35 27zM416 596h282q-63 314 -94 483q-12 -31 -80.5 -210.5t-107.5 -272.5z" />
<glyph unicode="&#xc7;" horiz-adv-x="1232" d="M68 731q0 151 43.5 285.5t125 238.5t209.5 165t285 61q127 0 252 -50t191 -147q36 -49 36 -104q0 -53 -36 -85t-91 -32q-65 0 -104 57q-33 48 -55 75t-55.5 57t-72.5 43.5t-87 13.5q-76 0 -137 -33.5t-98.5 -86.5t-63 -122t-35.5 -135t-10 -131q0 -87 14.5 -171t48 -167 t83 -145.5t126 -101t170.5 -38.5q140 0 246 84q45 35 73 35q30 0 49 -19t19 -49q0 -39 -47 -102q-68 -86 -176 -123t-230 -37q-4 -19 -10 -57t-10 -57q75 0 129.5 -37t54.5 -113q0 -58 -35.5 -100.5t-84.5 -61t-103 -18.5q-29 0 -72 6.5t-87 26.5t-44 49q0 39 37 39 q24 0 70 -8.5t71 -8.5q41 0 72 19.5t31 58.5q0 35 -21.5 50.5t-48 15.5t-48 8.5t-21.5 30.5l1 3q1 3 1 7v-2q3 26 7 78t7 77q-126 22 -218 67t-167 132q-93 104 -138.5 255t-45.5 304z" />
<glyph unicode="&#xc8;" horiz-adv-x="978" d="M115 41v1345q0 33 9 46.5t42 13.5h725q19 0 28 -7t9 -26v-113q0 -23 -9.5 -30.5t-33.5 -7.5h-492v-420h410q25 0 34 -6.5t9 -30.5v-105q0 -27 -9 -34t-36 -7h-408v-473h486q28 0 38.5 -7t10.5 -34v-98q0 -30 -9.5 -38.5t-39.5 -8.5h-719q-25 0 -35 8t-10 33zM203 1819 q0 36 19 64t52 28q42 0 66 -35q1 -1 12.5 -12t25 -24t33 -33t37.5 -39.5t36.5 -41.5t32 -41.5t22 -37.5t8.5 -31q0 -24 -14.5 -42t-36.5 -18q-10 0 -25 7t-20 12l-25 18q-18 13 -56 39t-61.5 44t-51 42.5t-41 49.5t-13.5 51z" />
<glyph unicode="&#xc9;" horiz-adv-x="978" d="M115 41v1345q0 33 9 46.5t42 13.5h725q19 0 28 -7t9 -26v-113q0 -23 -9.5 -30.5t-33.5 -7.5h-492v-420h410q25 0 34 -6.5t9 -30.5v-105q0 -27 -9 -34t-36 -7h-408v-473h486q28 0 38.5 -7t10.5 -34v-98q0 -30 -9.5 -38.5t-39.5 -8.5h-719q-25 0 -35 8t-10 33zM446 1616 q0 21 18 50.5t37.5 50.5t55.5 57.5t49 50.5q4 4 17 20t20.5 24.5t20 19.5t25 16.5t24.5 5.5q35 0 56.5 -27t21.5 -65q0 -17 -5.5 -33.5t-21 -34.5t-26.5 -30.5t-38 -33t-39.5 -30t-47.5 -33.5t-46 -31l-43 -30q-14 -7 -20 -7q-58 0 -58 60z" />
<glyph unicode="&#xca;" horiz-adv-x="978" d="M115 41v1345q0 33 9 46.5t42 13.5h725q19 0 28 -7t9 -26v-113q0 -23 -9.5 -30.5t-33.5 -7.5h-492v-420h410q25 0 34 -6.5t9 -30.5v-105q0 -27 -9 -34t-36 -7h-408v-473h486q28 0 38.5 -7t10.5 -34v-98q0 -30 -9.5 -38.5t-39.5 -8.5h-719q-25 0 -35 8t-10 33zM182 1595 q0 23 34.5 62.5t103 102t81.5 75.5l17 16q33 33 59 33q6 0 10 -0.5t9 -2.5t7.5 -2.5t7 -4t6.5 -4.5t7 -6.5t7 -7.5t8.5 -9t9.5 -10q25 -29 64 -63.5t84 -69t53 -41.5l12 -12q20 -20 20 -43q0 -20 -11 -38t-30 -18q-20 0 -69.5 34.5t-103.5 69t-85 34.5q-30 0 -84.5 -36 t-106 -72t-73.5 -36q-16 0 -26.5 15t-10.5 34z" />
<glyph unicode="&#xcb;" horiz-adv-x="978" d="M115 41v1345q0 33 10 46.5t43 13.5h725q19 0 28 -7t9 -26v-110q0 -24 -9.5 -31.5t-33.5 -7.5h-492v-422h410q26 0 34.5 -6t8.5 -31v-103q0 -27 -9 -33.5t-38 -6.5h-406v-474h486q19 0 28 -2t15 -11.5t6 -29.5v-98q0 -29 -9.5 -38t-39.5 -9h-721q-24 0 -34.5 8.5 t-10.5 32.5zM137 1700q0 63 42.5 99t105.5 36q58 0 99.5 -34t41.5 -89q0 -66 -37.5 -102.5t-103.5 -36.5q-63 0 -105.5 33.5t-42.5 93.5zM545 1700q0 61 42 98t105 37q57 0 98 -33t41 -90q0 -66 -39 -102.5t-106 -36.5q-62 0 -101.5 34t-39.5 93z" />
<glyph unicode="&#xcc;" horiz-adv-x="507" d="M-31 1819q0 35 19.5 63.5t52.5 28.5q12 0 23 -3.5t23 -14t19 -17t23 -25t23 -26.5q11 -12 45.5 -48t55 -58.5t39.5 -52.5t19 -50q0 -25 -13.5 -42.5t-35.5 -17.5q-10 0 -25 7t-20 12l-24 18q-19 14 -69 48.5t-77.5 55.5t-52.5 55t-25 67zM111 41v1360q0 24 9.5 34.5 t33.5 10.5h198q25 0 34 -9.5t9 -35.5v-1360q1 -20 -10.5 -30.5t-32.5 -10.5h-196q-45 0 -45 41z" />
<glyph unicode="&#xcd;" horiz-adv-x="507" d="M111 41v1360q0 24 9.5 34.5t33.5 10.5h198q25 0 34 -9.5t9 -35.5v-1360q0 -41 -43 -41h-196q-45 0 -45 41zM211 1616q0 28 23.5 61t77 86t61.5 62q3 4 20.5 25.5t26.5 30.5t25.5 19.5t31.5 10.5q35 0 56.5 -27t21.5 -65q0 -15 -5.5 -30.5t-13 -28.5t-24 -29t-27.5 -26.5 t-35 -28.5t-36.5 -27t-41 -28.5t-40.5 -27.5l-43 -30q-11 -7 -21 -7q-26 0 -41.5 17.5t-15.5 42.5z" />
<glyph unicode="&#xce;" horiz-adv-x="507" d="M-49 1595q0 23 40.5 67.5t103.5 103t87 85.5q33 33 60 33q30 0 59 -29q18 -29 61 -66t83 -64.5t71 -60t31 -56.5q0 -20 -10 -38t-29 -18q-24 0 -74 34.5t-103 69t-85 34.5q-35 0 -133.5 -72t-122.5 -72q-19 0 -29 15t-10 34zM111 41v1360q0 24 9.5 34.5t33.5 10.5h198 q25 0 34 -9.5t9 -35.5v-1360q0 -41 -43 -41h-196q-45 0 -45 41z" />
<glyph unicode="&#xcf;" horiz-adv-x="507" d="M-96 1700q0 64 41.5 99.5t105.5 35.5q59 0 99 -35.5t40 -95.5q0 -59 -38 -95t-99 -36q-63 0 -106 33.5t-43 93.5zM113 41v1362q0 24 9.5 33.5t33.5 9.5h196q26 0 35.5 -9t9.5 -34v-1362q0 -41 -45 -41h-194q-45 0 -45 41zM309 1700q0 64 42 99.5t106 35.5q61 0 100 -35.5 t39 -97.5q0 -60 -40.5 -94.5t-102.5 -34.5q-60 0 -102 34.5t-42 92.5z" />
<glyph unicode="&#xd1;" horiz-adv-x="1359" d="M113 41v1360q0 24 8.5 34.5t32.5 10.5h159q28 0 38 -6.5t28 -32.5q109 -154 327.5 -454.5t323.5 -448.5v899q0 26 8.5 34.5t34.5 8.5h135q22 0 28.5 -10t6.5 -33v-1366q0 -24 -9.5 -30.5t-35.5 -6.5h-96q-27 0 -40 8.5t-32 34.5q-89 124 -327.5 460.5t-372.5 522.5v-983 q0 -25 -8.5 -34t-32.5 -9h-129q-28 0 -37.5 7t-9.5 34zM350 1630q0 88 59 143.5t134 55.5h8q40 0 78 -16.5t63 -36t59 -36t66 -16.5q30 0 54 15t37 33.5t29 33.5t32 15q21 0 31 -16t10 -38q0 -86 -56.5 -143t-142.5 -57q-52 0 -99.5 25.5t-90 51t-80.5 25.5 q-29 0 -52.5 -14.5t-35.5 -32.5t-28 -32.5t-32 -14.5q-22 0 -32.5 17t-10.5 38z" />
<glyph unicode="&#xd2;" horiz-adv-x="1447" d="M68 709q0 121 25.5 233.5t79 210.5t130.5 171t186.5 115t239.5 42q120 0 224.5 -38.5t181.5 -106t132.5 -158t83 -197t27.5 -219.5v-49q0 -143 -44 -276t-124 -238t-205.5 -168.5t-277.5 -63.5q-125 0 -232.5 40t-185 110t-132.5 163.5t-82 202.5t-27 226zM360 737 q0 -51 4.5 -102t16 -109t30 -109t47.5 -98.5t66.5 -81.5t90.5 -54.5t116 -20.5q98 0 189 71q55 43 90.5 106t51 140t20.5 138.5t5 142.5q0 56 -7 113.5t-22.5 120.5t-44 117t-67 98t-95.5 69t-126 25q-73 0 -132 -26t-97.5 -72t-66.5 -101.5t-42 -122t-20.5 -125.5 t-6.5 -119zM440 1819q0 35 19.5 63.5t52.5 28.5q5 0 9 -0.5t7 -1t7 -2t6 -2t5.5 -3.5t5 -4t5.5 -4.5t5.5 -5l6 -6l6.5 -6.5l15 -14q14 -13 31 -29.5t39.5 -39.5t43 -47t39 -47.5t29 -45.5t10.5 -37q0 -25 -13.5 -42.5t-35.5 -17.5q-10 0 -25 7t-20 12l-24 18 q-93 71 -172 127q-30 20 -41 41.5t-11 57.5z" />
<glyph unicode="&#xd3;" horiz-adv-x="1447" d="M68 709q0 121 25.5 233.5t79 210.5t130.5 171t186.5 115t239.5 42q120 0 224.5 -38.5t181.5 -106t132.5 -158t83 -197t27.5 -219.5v-49q0 -143 -44 -276t-124 -238t-205.5 -168.5t-277.5 -63.5q-125 0 -232.5 40t-185 110t-132.5 163.5t-82 202.5t-27 226zM360 737 q0 -51 4.5 -102t16 -109t30 -109t47.5 -98.5t66.5 -81.5t90.5 -54.5t116 -20.5q98 0 189 71q55 43 90.5 106t51 140t20.5 138.5t5 142.5q0 56 -7 113.5t-22.5 120.5t-44 117t-67 98t-95.5 69t-126 25q-73 0 -132 -26t-97.5 -72t-66.5 -101.5t-42 -122t-20.5 -125.5 t-6.5 -119zM680 1616q0 28 23.5 61t77 86t61.5 62q4 4 20.5 25t26 30.5t26.5 20t33 10.5q35 0 55.5 -26.5t20.5 -65.5q0 -24 -11 -46.5t-37 -47t-46.5 -40.5t-63.5 -46.5t-63 -45.5l-43 -30q-10 -7 -21 -7q-59 0 -59 60z" />
<glyph unicode="&#xd4;" horiz-adv-x="1447" d="M68 709q0 121 25.5 233.5t79 210.5t130.5 171t186.5 115t239.5 42q120 0 224.5 -38.5t181.5 -106t132.5 -158t83 -197t27.5 -219.5v-49q0 -143 -44 -276t-124 -238t-205.5 -168.5t-277.5 -63.5q-125 0 -232.5 40t-185 110t-132.5 163.5t-82 202.5t-27 226zM360 737 q0 -51 4.5 -102t16 -109t30 -109t47.5 -98.5t66.5 -81.5t90.5 -54.5t116 -20.5q98 0 189 71q55 43 90.5 106t51 140t20.5 138.5t5 142.5q0 56 -7 113.5t-22.5 120.5t-44 117t-67 98t-95.5 69t-126 25q-73 0 -132 -26t-97.5 -72t-66.5 -101.5t-42 -122t-20.5 -125.5 t-6.5 -119zM418 1595q0 23 41.5 67.5t105 101.5t88.5 87q26 33 60 33q31 0 57 -29q18 -25 48.5 -54.5t48 -43.5t59.5 -47q1 -1 31.5 -22.5t44.5 -39.5t14 -40q0 -21 -9.5 -38.5t-27.5 -17.5q-23 0 -73.5 34.5t-104 69t-84.5 34.5q-33 0 -135 -72t-125 -72q-18 0 -28.5 15 t-10.5 34z" />
<glyph unicode="&#xd5;" horiz-adv-x="1447" d="M68 709q0 121 25.5 233.5t79 210.5t130.5 171t186.5 115t239.5 42q120 0 224.5 -38.5t181.5 -106t132.5 -158t83 -197t27.5 -219.5v-49q0 -143 -44 -276t-124 -238t-205.5 -168.5t-277.5 -63.5q-125 0 -232.5 40t-185 110t-132.5 163.5t-82 202.5t-27 226zM360 737 q0 -51 4.5 -102t16 -109t30 -109t47.5 -98.5t66.5 -81.5t90.5 -54.5t116 -20.5q98 0 189 71q55 43 90.5 106t51 140t20.5 138.5t5 142.5q0 56 -7 113.5t-22.5 120.5t-44 117t-67 98t-95.5 69t-126 25q-73 0 -132 -26t-97.5 -72t-66.5 -101.5t-42 -122t-20.5 -125.5 t-6.5 -119zM393 1630q0 86 56.5 142.5t136.5 56.5h8q41 0 80 -16.5t64.5 -36t59.5 -36t66 -16.5q30 0 53.5 15t36 33.5t28.5 33.5t32 15q19 0 30 -14t11 -33q0 -88 -56.5 -147.5t-142.5 -59.5q-51 0 -99 25.5t-90.5 51t-80.5 25.5q-29 0 -52.5 -14.5t-35.5 -32.5t-28 -32.5 t-32 -14.5q-22 0 -33.5 17t-11.5 38z" />
<glyph unicode="&#xd6;" horiz-adv-x="1447" d="M68 709q0 121 25.5 233.5t79 210.5t130.5 171t186.5 115t239.5 42q120 0 224.5 -38.5t181.5 -106t132.5 -158t83 -197t27.5 -219.5v-49q0 -143 -44 -276t-124 -238t-205.5 -168.5t-277.5 -63.5q-125 0 -232.5 40t-185 110t-132.5 163.5t-82 202.5t-27 226zM360 737 q0 -51 4.5 -102t16 -109t30 -109t47.5 -98.5t66.5 -81.5t90.5 -54.5t116 -20.5q98 0 189 71q55 43 90.5 106t51 140t20.5 138.5t5 142.5q0 56 -7 113.5t-22.5 120.5t-44 117t-67 98t-95.5 69t-126 25q-73 0 -132 -26t-97.5 -72t-66.5 -101.5t-42 -122t-20.5 -125.5 t-6.5 -119zM379 1700q0 61 42 97t105 36q61 0 100.5 -35.5t39.5 -95.5t-39.5 -95.5t-98.5 -35.5q-65 0 -107 33t-42 96zM786 1700q0 61 42 97t106 36q60 0 100.5 -34t40.5 -93q0 -64 -41 -99.5t-104 -35.5q-62 0 -103 34.5t-41 94.5z" />
<glyph unicode="&#xd7;" horiz-adv-x="1017" d="M82 287q11 7 33 30l280 281q-48 46 -140 138t-140 138q-26 26 -33 31q53 39 117 115q7 -11 30 -33q48 -46 140.5 -138t140.5 -138l276 276q26 26 31 33q54 -61 115 -115l-307 -307q46 -48 138 -140.5t138 -140.5l31 -30l-29 -29q-59 -59 -86 -90q-5 7 -31 33 q-46 46 -138 139t-138 139q-48 -46 -140.5 -139t-140.5 -139q-22 -22 -30 -33q-54 67 -117 119z" />
<glyph unicode="&#xd8;" horiz-adv-x="1447" d="M66 711q0 118 28 230t84 210t134.5 171.5t187 116t233.5 42.5q229 0 381 -123q145 227 168 227q7 0 42.5 -25t35.5 -32q0 -10 -38.5 -65t-82.5 -113.5t-49 -67.5q102 -119 146 -253.5t44 -301.5q0 -146 -45 -281.5t-126.5 -242.5t-208.5 -171.5t-279 -64.5 q-115 0 -202 30t-181 99q-12 -16 -56 -81t-75 -105.5t-41 -40.5q-13 0 -44.5 23.5t-31.5 35.5q0 5 80.5 114.5t85.5 127.5q-103 120 -146.5 248t-43.5 293zM342 748q0 -101 18 -181t60 -174q94 132 283.5 396.5t283.5 396.5q-67 67 -123.5 99t-130.5 32q-85 0 -154 -38.5 t-112 -98.5t-72.5 -137.5t-41 -151t-11.5 -143.5zM475 279q102 -123 242 -123q84 0 152.5 38t111.5 98t72 136.5t41 149t12 141.5q0 164 -66 352z" />
<glyph unicode="&#xd9;" horiz-adv-x="1185" d="M98 440v965q0 26 7.5 33.5t31.5 7.5h203q28 0 35.5 -7t7.5 -36v-948q0 -275 244 -275q124 0 181.5 72.5t57.5 198.5v950q0 27 7.5 36t33.5 9h137q26 0 34.5 -7.5t8.5 -35.5v-981q0 -106 -29 -187.5t-76 -131.5t-114.5 -81.5t-136.5 -43t-151 -11.5q-80 0 -149 15 t-131 50.5t-106 89t-70 134.5t-26 184zM307 1819q0 35 19.5 63.5t52.5 28.5q41 0 65 -35q1 -1 13 -12.5t25.5 -24.5t33 -33.5t37.5 -39.5t36 -41.5t31.5 -41.5t22 -37t8.5 -30q0 -24 -14.5 -42t-36.5 -18q-7 0 -23.5 7t-21.5 12l-25 18q-18 13 -56 39t-61.5 44t-51 42.5 t-41 49.5t-13.5 51z" />
<glyph unicode="&#xda;" horiz-adv-x="1185" d="M98 440v965q0 26 7.5 33.5t31.5 7.5h203q28 0 35.5 -7t7.5 -36v-948q0 -275 244 -275q124 0 181.5 72.5t57.5 198.5v950q0 27 7.5 36t33.5 9h137q26 0 34.5 -7.5t8.5 -35.5v-981q0 -106 -29 -187.5t-76 -131.5t-114.5 -81.5t-136.5 -43t-151 -11.5q-80 0 -149 15 t-131 50.5t-106 89t-70 134.5t-26 184zM549 1630q0 13 11 32t33.5 44t39 42t44.5 44t34 33q4 4 17 20t20.5 24.5t20 19.5t24 16.5t22.5 5.5q35 0 56.5 -27t21.5 -65q0 -15 -5.5 -30.5t-13 -28.5t-24 -29t-27.5 -26.5t-35 -28.5t-36.5 -27t-41 -28.5t-40.5 -27.5l-43 -30 q-11 -7 -19 -7q-59 0 -59 74z" />
<glyph unicode="&#xdb;" horiz-adv-x="1185" d="M98 440v965q0 26 7.5 33.5t31.5 7.5h203q28 0 35.5 -7t7.5 -36v-948q0 -275 244 -275q124 0 181.5 72.5t57.5 198.5v950q0 27 7.5 36t33.5 9h137q26 0 34.5 -7.5t8.5 -35.5v-981q0 -106 -29 -187.5t-76 -131.5t-114.5 -81.5t-136.5 -43t-151 -11.5q-80 0 -149 15 t-131 50.5t-106 89t-70 134.5t-26 184zM287 1595q0 11 3 20t5.5 12.5t11 12.5t10.5 11l15 14q31 32 91 89.5t83 80.5l16 16l7 7l7.5 7.5t6.5 6t8 5.5t8.5 3.5t11 3t11.5 0.5q22 0 54 -27t82 -77.5t83 -77.5q3 -2 23.5 -16t30.5 -22.5t21 -24t11 -31.5q0 -20 -11 -38t-30 -18 q-20 0 -70.5 34.5t-105 69t-84.5 34.5q-27 0 -82.5 -36t-107.5 -72t-70 -36t-28.5 15t-10.5 34z" />
<glyph unicode="&#xdc;" horiz-adv-x="1185" d="M98 440v965q0 26 7.5 33.5t31.5 7.5h203q28 0 35.5 -7t7.5 -36v-948q0 -275 244 -275q124 0 181.5 72.5t57.5 198.5v950q0 27 7.5 36t33.5 9h137q26 0 34.5 -7.5t8.5 -35.5v-981q0 -106 -29 -187.5t-76 -131.5t-114.5 -81.5t-136.5 -43t-151 -11.5q-80 0 -149 15 t-131 50.5t-106 89t-70 134.5t-26 184zM250 1700q0 61 42 97t105 36q61 0 101.5 -35t40.5 -94q0 -60 -39.5 -96.5t-100.5 -36.5q-64 0 -106.5 33t-42.5 96zM655 1700q0 60 43 96.5t105 36.5t101.5 -36t39.5 -95t-40.5 -95t-98.5 -36q-64 0 -107 33t-43 96z" />
<glyph unicode="&#xdd;" horiz-adv-x="1107" d="M0 1419q0 27 35 27h219h12t10 -1t7 -1t5.5 -2.5t4.5 -3t4.5 -5.5t4 -6t4.5 -8t5 -10q21 -39 123 -230.5t156 -295.5h-2q45 82 137.5 257t142.5 265q13 25 23.5 33t34.5 8h147q33 0 33 -25q0 -6 -2 -12.5t-6 -15t-6 -13.5q-66 -124 -200.5 -369.5t-201.5 -369.5v-602 q0 -39 -33 -39h-217q-23 0 -30 7t-7 32v612q-355 668 -389 731q-14 19 -14 37zM508 1616q0 18 10 39t31.5 46t37 41.5t45.5 45.5t38 37q7 8 22.5 26.5t25.5 29.5t25.5 20.5t30.5 9.5q35 0 56.5 -27t21.5 -65q0 -15 -5.5 -30.5t-13 -28.5t-24 -29t-27.5 -26.5t-35 -28.5 t-36.5 -27t-41 -28.5t-40.5 -27.5l-43 -30q-7 -7 -19 -7q-31 0 -42.5 13t-16.5 47z" />
<glyph unicode="&#xde;" horiz-adv-x="1105" d="M117 45v1358q0 25 9 34t34 9h194q24 0 32.5 -8.5t8.5 -32.5v-246q134 29 215 29q213 0 345 -114t132 -324q0 -97 -34 -174.5t-89.5 -127t-131 -82.5t-154.5 -47t-164 -14q-60 0 -119 6v-268q0 -24 -8.5 -33.5t-32.5 -9.5h-194q-26 0 -34.5 9t-8.5 36zM395 475 q44 -6 86 -6q149 0 234.5 68.5t85.5 216.5q0 132 -65 202t-197 70q-50 0 -144 -12v-539z" />
<glyph unicode="&#xdf;" horiz-adv-x="1103" d="M109 39v936q0 93 14.5 178t50 167t88.5 142t136.5 96.5t187.5 36.5q51 0 100.5 -11t94 -34.5t78 -56.5t53.5 -80t20 -102q0 -65 -33.5 -135t-73 -118.5t-73 -101.5t-33.5 -88q0 -29 20 -60t52.5 -60.5t71.5 -61.5t78 -71t71.5 -82t52.5 -100.5t20 -121.5 q0 -161 -105.5 -249.5t-268.5 -88.5q-38 0 -78 7t-81.5 23t-68 48.5t-26.5 75.5q0 41 27.5 69.5t68.5 28.5q26 0 51 -16.5t42.5 -35.5t47.5 -35.5t64 -16.5q52 0 84 37t32 90q0 45 -21.5 86t-56 74t-75.5 65.5t-82.5 66t-76 69t-56 81t-21.5 96.5q0 49 23.5 99.5t57 93.5 t67 86.5t57 93.5t23.5 98q0 76 -48.5 128.5t-125.5 52.5q-52 0 -89.5 -23.5t-55.5 -63.5t-26 -81.5t-8 -89.5v-1139q0 -25 -6 -33t-30 -8h-170q-19 0 -26.5 1.5t-13 10t-5.5 27.5z" />
<glyph unicode="&#xe0;" horiz-adv-x="931" d="M47 266q0 54 18 100.5t44.5 79.5t71.5 62.5t83 48t96.5 36.5t95 27.5t93.5 22.5q29 7 43 10v103q0 34 -1.5 55.5t-8.5 49.5t-20 44t-37.5 27.5t-59.5 11.5q-46 0 -76 -22t-45 -54t-28.5 -63.5t-38 -53.5t-62.5 -22q-48 0 -80.5 31t-32.5 80q0 64 41.5 114t105.5 77.5 t128.5 41.5t122.5 14q169 0 251.5 -70.5t82.5 -232.5v-567q4 -87 -29 -133q-44 -61 -153.5 -86t-217.5 -25q-76 0 -141.5 15t-122.5 47.5t-90 91.5t-33 139zM190 1405q0 32 19 57t49 25q31 0 61 -39q7 -8 62.5 -61.5t93 -100.5t37.5 -76q0 -49 -47 -49q-17 0 -29 6 q-26 13 -79 48.5t-110 92.5t-57 97zM299 291q0 -79 45.5 -127.5t122.5 -48.5q70 0 97.5 33.5t27.5 103.5v285q-15 -5 -47 -15.5t-50.5 -17t-48 -19t-47 -24t-39 -29.5t-33.5 -37t-20 -46t-8 -58z" />
<glyph unicode="&#xe1;" horiz-adv-x="931" d="M47 266q0 54 18 100.5t44.5 79.5t71.5 62.5t83 48t96.5 36.5t95 27.5t93.5 22.5q29 7 43 10v103q0 34 -1.5 55.5t-8.5 49.5t-20 44t-37.5 27.5t-59.5 11.5q-46 0 -76 -22t-45 -54t-28.5 -63.5t-38 -53.5t-62.5 -22q-48 0 -80.5 31t-32.5 80q0 64 41.5 114t105.5 77.5 t128.5 41.5t122.5 14q169 0 251.5 -70.5t82.5 -232.5v-567q4 -87 -29 -133q-44 -61 -153.5 -86t-217.5 -25q-76 0 -141.5 15t-122.5 47.5t-90 91.5t-33 139zM299 291q0 -79 45.5 -127.5t122.5 -48.5q70 0 97.5 33.5t27.5 103.5v285q-15 -5 -47 -15.5t-50.5 -17t-48 -19 t-47 -24t-39 -29.5t-33.5 -37t-20 -46t-8 -58zM414 1214q0 7 4 23q7 33 112 141.5t140 108.5q29 0 47 -24.5t18 -57.5q0 -22 -4 -29q-12 -37 -125.5 -126t-142.5 -89q-49 0 -49 53z" />
<glyph unicode="&#xe2;" horiz-adv-x="931" d="M47 266q0 54 18 100.5t44.5 79.5t71.5 62.5t83 48t96.5 36.5t95 27.5t93.5 22.5q29 7 43 10v103q0 34 -1.5 55.5t-8.5 49.5t-20 44t-37.5 27.5t-59.5 11.5q-46 0 -76 -22t-45 -54t-28.5 -63.5t-38 -53.5t-62.5 -22q-48 0 -80.5 31t-32.5 80q0 64 41.5 114t105.5 77.5 t128.5 41.5t122.5 14q169 0 251.5 -70.5t82.5 -232.5v-567q4 -87 -29 -133q-44 -61 -153.5 -86t-217.5 -25q-76 0 -141.5 15t-122.5 47.5t-90 91.5t-33 139zM178 1196q13 35 27 49q109 96 198 197q20 26 52 26q18 0 43 -20t59.5 -56t48.5 -49q6 -5 49 -35.5t66.5 -55 t23.5 -46.5q0 -19 -12.5 -33t-30.5 -14q-17 0 -64.5 31.5t-99.5 62.5t-81 31q-32 0 -81.5 -32t-93.5 -64.5t-65 -32.5l2 -2q-19 0 -30 12t-11 31zM299 291q0 -79 45.5 -127.5t122.5 -48.5q70 0 97.5 33.5t27.5 103.5v285q-15 -5 -47 -15.5t-50.5 -17t-48 -19t-47 -24 t-39 -29.5t-33.5 -37t-20 -46t-8 -58z" />
<glyph unicode="&#xe3;" horiz-adv-x="931" d="M47 266q0 54 18 100.5t44.5 79.5t71.5 62.5t83 48t96.5 36.5t95 27.5t93.5 22.5q29 7 43 10v103q0 34 -1.5 55.5t-8.5 49.5t-20 44t-37.5 27.5t-59.5 11.5q-46 0 -76 -22t-45 -54t-28.5 -63.5t-38 -53.5t-62.5 -22q-48 0 -80.5 31t-32.5 80q0 64 41.5 114t105.5 77.5 t128.5 41.5t122.5 14q169 0 251.5 -70.5t82.5 -232.5v-567q4 -87 -29 -133q-44 -61 -153.5 -86t-217.5 -25q-76 0 -141.5 15t-122.5 47.5t-90 91.5t-33 139zM152 1260q0 75 58.5 131.5t131.5 56.5q44 0 88.5 -25t87 -50t80.5 -25q29 0 52 14.5t34 32.5t25.5 32.5t29.5 14.5 q19 0 28 -15.5t9 -35.5q0 -81 -57.5 -138t-128.5 -57q-41 0 -78 16t-60.5 35t-54 35t-59.5 16q-28 0 -51.5 -14.5t-36.5 -31.5t-27.5 -31.5t-27.5 -14.5q-43 0 -43 54zM299 291q0 -79 45.5 -127.5t122.5 -48.5q70 0 97.5 33.5t27.5 103.5v285q-15 -5 -47 -15.5t-50.5 -17 t-48 -19t-47 -24t-39 -29.5t-33.5 -37t-20 -46t-8 -58z" />
<glyph unicode="&#xe4;" horiz-adv-x="931" d="M49 266q0 42 11.5 80t28.5 67.5t47 56.5t57.5 46t69 38t72 30.5t78 25t74.5 20t73 17.5q23 5 34 8v103q0 34 -1.5 55.5t-8.5 49.5t-20 44t-38 27.5t-61 11.5q-47 0 -76.5 -23.5t-44 -56.5t-28 -65.5t-39.5 -54t-68 -19.5q-51 2 -82.5 34t-30.5 85q10 64 45 102 q61 73 159 106t200 33q170 0 252 -70t82 -233v-567q0 -94 -23 -129q-33 -45 -107 -72.5t-138 -35t-130 -7.5q-76 0 -141.5 15t-122.5 47.5t-90 91.5t-33 139zM147 1341q0 53 39.5 90t94.5 37q57 0 97 -32.5t40 -89.5q0 -63 -37 -98.5t-100 -35.5q-58 0 -96 34.5t-38 94.5z M301 291q0 -79 45 -127.5t123 -48.5q69 0 97 34t28 103v287q-13 -4 -47 -15.5t-50.5 -18t-47.5 -19.5t-47.5 -24t-39 -29.5t-33.5 -38t-19.5 -46t-8.5 -57.5zM532 1341q0 54 40 90.5t96 36.5q58 0 97.5 -34t39.5 -93t-39.5 -94t-97.5 -35q-59 0 -97.5 34.5t-38.5 94.5z" />
<glyph unicode="&#xe5;" horiz-adv-x="931" d="M49 266q0 42 11.5 80t28.5 67.5t47 56.5t57.5 46t69 38t72 30.5t78 25t74.5 20t73 17.5q23 5 34 8v103q0 34 -1.5 55.5t-8.5 49.5t-20 44t-38 27.5t-61 11.5q-47 0 -76.5 -23.5t-44 -56.5t-28 -65.5t-39.5 -54t-68 -19.5q-51 2 -82.5 34t-30.5 85q10 64 45 102 q61 73 159 106t200 33q170 0 252 -70t82 -233v-567q0 -94 -23 -129q-33 -45 -107 -72.5t-138 -35t-130 -7.5q-76 0 -141.5 15t-122.5 47.5t-90 91.5t-33 139zM301 291q0 -79 45 -127.5t123 -48.5q69 0 97 34t28 103v287q-13 -4 -47 -15.5t-50.5 -18t-47.5 -19.5t-47.5 -24 t-39 -29.5t-33.5 -38t-19.5 -46t-8.5 -57.5zM305 1331q0 72 48 121t120 49q74 0 123 -48.5t49 -121.5q0 -74 -47.5 -122t-120.5 -48q-74 0 -123 48.5t-49 121.5zM397 1333q0 -32 21 -56t55 -24q37 0 59.5 22.5t22.5 59.5q0 32 -23.5 54t-56.5 22q-31 0 -54.5 -23t-23.5 -55z " />
<glyph unicode="&#xe6;" horiz-adv-x="1482" d="M47 264q0 58 21 106.5t53.5 82t83 61t96.5 44t108.5 30.5t104 20t98.5 13q-1 14 -2.5 50t-3.5 61t-6.5 60.5t-14 60t-24 48t-38 35.5t-54.5 12q-32 0 -55.5 -8t-39.5 -27t-24.5 -33.5t-21.5 -43.5q-29 -65 -45 -84q-29 -34 -78 -37q-50 0 -80.5 32t-30.5 80q0 56 45 115 q109 145 348 145q107 0 177.5 -37t111.5 -130q7 8 18.5 26.5t18.5 26.5q46 56 114 85t142 29h10q106 0 189.5 -59t125.5 -149.5t42 -190.5q0 -46 -20.5 -61.5t-67.5 -22.5q-86 -13 -255 -38t-255 -38q3 -43 12 -84.5t28.5 -86.5t46.5 -78.5t70.5 -55.5t96.5 -22 q58 0 101.5 20t68 49t43 58t36 49t37.5 20q54 0 54 -65q0 -57 -27 -117q-98 -242 -338 -242q-102 0 -181.5 49t-129.5 140q-62 -104 -148 -146.5t-200 -42.5q-62 0 -122.5 16t-115.5 49t-89 91.5t-34 134.5zM299 289q0 -69 41 -120.5t106 -51.5q45 0 78.5 17t51.5 42.5 t28.5 64.5t13.5 72t3 76q0 15 -5 113q-47 -6 -82 -12.5t-82.5 -22.5t-78 -37.5t-52.5 -58t-22 -82.5zM834 653q61 9 182.5 26t183.5 26q-2 42 -11.5 79.5t-27.5 72.5t-50.5 56t-76.5 21q-52 0 -92.5 -26.5t-63 -69.5t-33.5 -90t-11 -95z" />
<glyph unicode="&#xe7;" horiz-adv-x="933" d="M63 526q0 110 27 208.5t81.5 178.5t145.5 127t209 47q94 0 176.5 -37.5t133.5 -117.5q32 -43 38 -105q5 -52 -25 -88.5t-83 -40.5q-41 0 -68.5 23.5t-43 57.5t-33 68t-51 57.5t-83.5 23.5q-55 0 -97.5 -34t-64.5 -86.5t-33 -105t-11 -100.5t9 -100.5t30 -106t51 -95.5 t76.5 -68.5t101.5 -26.5q53 0 93.5 21t63.5 50t41.5 58.5t38 49t41.5 17.5q27 -1 39.5 -23.5t12.5 -51.5q0 -105 -73.5 -205.5t-174.5 -136.5q-28 -8 -68 -8.5t-51 -2.5l-23 -120q74 0 129.5 -38t55.5 -112q0 -85 -69 -132.5t-154 -47.5q-30 0 -73.5 6.5t-87.5 26.5t-44 49 q0 39 39 39q6 0 10.5 -1t9 -2.5t8.5 -2.5q61 -15 103 -17q45 -5 81 15.5t42 62.5q0 77 -111 72q-45 0 -39 47l19 164q-93 22 -162 77.5t-107.5 132.5t-57 160t-18.5 174z" />
<glyph unicode="&#xe8;" horiz-adv-x="976" d="M63 532q0 87 16 166.5t52 151t88 124t129.5 83t171.5 30.5q136 0 231.5 -67t139.5 -197q24 -70 24 -123q0 -37 -17.5 -55.5t-53.5 -23.5q-94 -16 -282.5 -42.5t-282.5 -41.5q7 -54 20.5 -101t36.5 -91t53.5 -75.5t74.5 -50t97 -18.5q139 0 252 151q10 14 16.5 21.5 t18 13.5t26.5 6q25 0 38.5 -19t13.5 -44q0 -44 -37 -125q-114 -232 -373 -232q-118 0 -208 47t-142 128t-77.5 177.5t-25.5 206.5zM213 1386q0 42 15.5 71.5t50.5 29.5q21 0 35 -9.5t30 -29.5q2 -3 54 -52t93 -99.5t41 -79.5q0 -56 -45 -56q-34 0 -53 25q-10 8 -56.5 40 t-77 55t-59 54t-28.5 51zM268 664q65 12 194 32t195 31q-5 81 -51 143t-123 62q-45 0 -82.5 -18.5t-61.5 -50t-40 -66.5t-25 -76q-3 -11 -3 -28t-3 -29z" />
<glyph unicode="&#xe9;" horiz-adv-x="976" d="M63 532q0 87 16 166.5t52 151t88 124t129.5 83t171.5 30.5q136 0 231.5 -67t139.5 -197q24 -70 24 -123q0 -37 -17.5 -55.5t-53.5 -23.5q-94 -16 -282.5 -42.5t-282.5 -41.5q7 -54 20.5 -101t36.5 -91t53.5 -75.5t74.5 -50t97 -18.5q139 0 252 151q10 14 16.5 21.5 t18 13.5t26.5 6q25 0 38.5 -19t13.5 -44q0 -44 -37 -125q-114 -232 -373 -232q-118 0 -208 47t-142 128t-77.5 177.5t-25.5 206.5zM268 664q65 12 194 32t195 31q-5 81 -51 143t-123 62q-45 0 -82.5 -18.5t-61.5 -50t-40 -66.5t-25 -76q-3 -11 -3 -28t-3 -29zM434 1210 q0 8 2.5 17t9 20t13 20.5t17.5 22.5t19 22t22.5 24t22.5 23l24 24l22 22q6 7 22 26t25.5 28.5t26 18.5t32.5 9q28 0 46 -25t18 -57q0 -3 -4 -31q-5 -23 -63 -75.5t-122 -95t-86 -42.5q-47 0 -47 49z" />
<glyph unicode="&#xea;" horiz-adv-x="976" d="M63 532q0 87 16 166.5t52 151t88 124t129.5 83t171.5 30.5q136 0 231.5 -67t139.5 -197q24 -70 24 -123q0 -37 -17.5 -55.5t-53.5 -23.5q-94 -16 -282.5 -42.5t-282.5 -41.5q7 -54 20.5 -101t36.5 -91t53.5 -75.5t74.5 -50t97 -18.5q139 0 252 151q10 14 16.5 21.5 t18 13.5t26.5 6q25 0 38.5 -19t13.5 -44q0 -44 -37 -125q-114 -232 -373 -232q-118 0 -208 47t-142 128t-77.5 177.5t-25.5 206.5zM199 1196q14 37 24 47q18 18 86.5 78t100.5 102q31 45 67 45q19 0 43.5 -19t59 -56.5t47.5 -49.5q11 -9 53 -40.5t64 -54.5t22 -42 q0 -18 -11.5 -32.5t-29.5 -14.5q-21 0 -115.5 62.5t-132.5 62.5q-29 0 -79 -32t-95 -64.5t-61 -32.5q-40 0 -43 41zM268 664q65 12 194 32t195 31q-5 81 -51 143t-123 62q-45 0 -82.5 -18.5t-61.5 -50t-40 -66.5t-25 -76q-3 -11 -3 -28t-3 -29z" />
<glyph unicode="&#xeb;" horiz-adv-x="976" d="M63 532q0 87 16 166.5t52 151t88 124t129.5 83t171.5 30.5q136 0 231.5 -67t139.5 -197q24 -70 24 -123q0 -37 -17.5 -55.5t-53.5 -23.5q-94 -16 -282.5 -42.5t-282.5 -41.5q7 -54 20.5 -101t36.5 -91t53.5 -75.5t74.5 -50t97 -18.5q139 0 252 151q10 14 16.5 21.5 t18 13.5t26.5 6q25 0 38.5 -19t13.5 -44q0 -44 -37 -125q-114 -232 -373 -232q-118 0 -208 47t-142 128t-77.5 177.5t-25.5 206.5zM154 1339q0 55 39.5 92t95.5 37q59 0 98 -35.5t39 -95.5q0 -58 -39 -91.5t-98 -33.5t-97 34t-38 93zM268 664q65 12 194 32t195 31 q-5 81 -51 143t-123 62q-45 0 -82.5 -18.5t-61.5 -50t-40 -66.5t-25 -76q-3 -11 -3 -28t-3 -29zM543 1339q0 55 38 92t93 37q58 0 98.5 -32.5t40.5 -89.5q0 -62 -37 -98t-100 -36q-57 0 -95 34.5t-38 92.5z" />
<glyph unicode="&#xec;" horiz-adv-x="464" d="M-41 1405q0 32 19 57t47 25q21 0 34 -9t29 -30q6 -7 59 -57.5t92.5 -98.5t39.5 -75q0 -56 -48 -56q-34 0 -53 25q-14 11 -48.5 34t-59.5 42t-53 43.5t-43 50t-15 49.5zM104 29v987q0 25 6.5 35t28.5 10h180q25 0 35.5 -9.5t10.5 -35.5v-971q0 -29 -10 -37t-38 -8h-186 q-27 0 -27 29z" />
<glyph unicode="&#xed;" horiz-adv-x="464" d="M104 29v987q0 25 6.5 35t28.5 10h180q25 0 35.5 -9.5t10.5 -35.5v-971q0 -29 -10 -37t-38 -8h-186q-27 0 -27 29zM180 1210q0 20 24 54t46.5 58t66.5 68l15 15q8 8 22.5 25.5t24 28t26 19.5t33.5 9q28 0 46 -25t18 -57q0 -3 -4 -31q-5 -23 -63 -75.5t-122 -95t-86 -42.5 q-47 0 -47 49z" />
<glyph unicode="&#xee;" horiz-adv-x="464" d="M-55 1196q19 43 56 80.5t83.5 76.5t71.5 70q32 45 65 45q17 0 42.5 -20t60.5 -56.5t49 -48.5q11 -9 53 -40.5t64 -54.5t22 -42q0 -18 -11.5 -32.5t-29.5 -14.5q-22 0 -117 62.5t-133 62.5q-36 0 -125 -64.5t-108 -64.5q-37 0 -43 41zM104 29v987q0 25 6.5 35t28.5 10h180 q25 0 35.5 -9.5t10.5 -35.5v-971q0 -29 -10 -37t-38 -8h-186q-27 0 -27 29z" />
<glyph unicode="&#xef;" horiz-adv-x="464" d="M-100 1341q0 54 39.5 90.5t95.5 36.5q59 0 98 -35t39 -94q0 -60 -39 -93.5t-98 -33.5t-97 34.5t-38 94.5zM106 31v987q0 25 6.5 34t28.5 9h178q27 0 37.5 -9.5t10.5 -33.5v-973q0 -28 -10 -36.5t-40 -8.5h-184q-27 0 -27 31zM289 1341q0 54 38.5 90.5t92.5 36.5 q59 0 99 -31.5t40 -90.5q0 -62 -37 -98t-100 -36q-57 0 -95 34.5t-38 94.5z" />
<glyph unicode="&#xf1;" d="M106 43v831q0 39 6.5 62.5t28.5 46.5q55 55 180 79.5t228 24.5q66 0 120.5 -7t108.5 -26.5t91 -51.5t60 -85t23 -124v-750q0 -24 -8.5 -33.5t-32.5 -9.5h-168q-26 0 -35.5 10t-9.5 37v723q0 176 -172 176q-166 0 -166 -174v-723q0 -28 -8.5 -38.5t-36.5 -10.5h-165 q-25 0 -34.5 9t-9.5 34zM215 1260q0 75 60 131.5t133 56.5q41 0 85.5 -25t88 -50t82.5 -25q23 0 42 9.5t31.5 23.5t23 28t21 23.5t21.5 9.5q41 0 41 -51q0 -80 -58.5 -137.5t-132.5 -57.5q-39 0 -76.5 16t-62 35t-55 35t-58.5 16t-51.5 -14.5t-36.5 -31.5t-27.5 -31.5 t-27.5 -14.5q-43 0 -43 54z" />
<glyph unicode="&#xf2;" horiz-adv-x="1107" d="M63 535q0 111 33 210t94.5 175.5t156.5 121.5t210 45q113 0 206 -47.5t152.5 -127.5t92 -180.5t32.5 -209.5t-33 -208t-94 -175t-155 -121t-207 -45q-117 0 -211.5 46t-154 124.5t-91 179t-31.5 212.5zM281 1405q0 33 17 57.5t46 24.5q35 0 66 -39q5 -6 59 -59t93.5 -102 t39.5 -77q0 -49 -47 -49q-19 0 -31 6q-17 8 -52.5 31.5t-80.5 58t-77.5 75.5t-32.5 73zM328 561q0 -42 7 -93t24 -109.5t42.5 -105.5t67 -78.5t92.5 -31.5q60 0 105 40.5t66.5 103t31.5 120.5t10 111q0 59 -10.5 124t-34.5 134t-72.5 113.5t-113.5 44.5q-61 0 -106 -39.5 t-67 -102t-32 -120t-10 -111.5z" />
<glyph unicode="&#xf3;" horiz-adv-x="1107" d="M63 535q0 111 33 210t94.5 175.5t156.5 121.5t210 45q113 0 206 -47.5t152.5 -127.5t92 -180.5t32.5 -209.5t-33 -208t-94 -175t-155 -121t-207 -45q-117 0 -211.5 46t-154 124.5t-91 179t-31.5 212.5zM328 561q0 -42 7 -93t24 -109.5t42.5 -105.5t67 -78.5t92.5 -31.5 q60 0 105 40.5t66.5 103t31.5 120.5t10 111q0 59 -10.5 124t-34.5 134t-72.5 113.5t-113.5 44.5q-61 0 -106 -39.5t-67 -102t-32 -120t-10 -111.5zM502 1214q0 19 24.5 53t47.5 58t67 68l12 12q6 6 21.5 23.5t25.5 28.5t26.5 20.5t31.5 9.5q28 0 46.5 -25t18.5 -57 q0 -21 -4 -33q-8 -30 -121.5 -120.5t-146.5 -90.5q-23 0 -36 14.5t-13 38.5z" />
<glyph unicode="&#xf4;" horiz-adv-x="1107" d="M63 535q0 111 33 210t94.5 175.5t156.5 121.5t210 45q113 0 206 -47.5t152.5 -127.5t92 -180.5t32.5 -209.5t-33 -208t-94 -175t-155 -121t-207 -45q-117 0 -211.5 46t-154 124.5t-91 179t-31.5 212.5zM264 1196q18 43 27 49q95 75 201 197q20 26 51 26q19 0 44 -20 t58.5 -56t48.5 -49q14 -14 52 -42t61.5 -51.5t23.5 -43.5q0 -18 -11 -32.5t-29 -14.5q-17 0 -64.5 31.5t-100 62.5t-83.5 31q-23 0 -59.5 -20t-68.5 -44.5t-63.5 -44.5t-44.5 -20q-40 0 -43 41zM328 561q0 -42 7 -93t24 -109.5t42.5 -105.5t67 -78.5t92.5 -31.5 q60 0 105 40.5t66.5 103t31.5 120.5t10 111q0 59 -10.5 124t-34.5 134t-72.5 113.5t-113.5 44.5q-61 0 -106 -39.5t-67 -102t-32 -120t-10 -111.5z" />
<glyph unicode="&#xf5;" horiz-adv-x="1107" d="M63 535q0 111 33 210t94.5 175.5t156.5 121.5t210 45q113 0 206 -47.5t152.5 -127.5t92 -180.5t32.5 -209.5t-33 -208t-94 -175t-155 -121t-207 -45q-117 0 -211.5 46t-154 124.5t-91 179t-31.5 212.5zM240 1260q0 76 58 132t132 56q35 0 70.5 -15.5t60.5 -34.5 t58.5 -34.5t66.5 -15.5q28 0 51 14.5t35.5 32.5t27 32.5t27.5 14.5q19 0 28 -15.5t9 -35.5q0 -82 -56.5 -138.5t-131.5 -56.5q-40 0 -76.5 16t-59.5 35t-54.5 35t-61.5 16q-26 0 -49 -14.5t-36 -31.5t-28.5 -31.5t-29.5 -14.5q-41 0 -41 54zM328 561q0 -42 7 -93t24 -109.5 t42.5 -105.5t67 -78.5t92.5 -31.5q60 0 105 40.5t66.5 103t31.5 120.5t10 111q0 59 -10.5 124t-34.5 134t-72.5 113.5t-113.5 44.5q-61 0 -106 -39.5t-67 -102t-32 -120t-10 -111.5z" />
<glyph unicode="&#xf6;" horiz-adv-x="1107" d="M59 530q0 112 33 212.5t94 177.5t156 122t211 45q113 0 206 -48t152.5 -128t92 -180.5t32.5 -208.5q0 -109 -33.5 -208t-94.5 -175t-154.5 -121t-206.5 -45q-117 0 -211.5 45.5t-154 123.5t-91 177.5t-31.5 210.5zM219 1339q0 56 39 92.5t94 36.5q58 0 99 -33.5t41 -88.5 q0 -63 -37.5 -98.5t-100.5 -35.5q-58 0 -96.5 34.5t-38.5 92.5zM324 561q0 -42 7 -93t24 -109.5t42.5 -105.5t67 -78.5t92.5 -31.5q60 0 104 40.5t66 103t31.5 120.5t9.5 111v37q0 54 -13 115.5t-38.5 122.5t-72.5 101t-107 40q-61 0 -105.5 -40t-66 -102t-31.5 -120 t-10 -111zM606 1339q0 56 40 92.5t95 36.5q59 0 98.5 -35.5t39.5 -95.5q0 -58 -40 -91.5t-98 -33.5t-96.5 34.5t-38.5 92.5z" />
<glyph unicode="&#xf7;" horiz-adv-x="1017" d="M-6 512q2 14 2 41v80q0 27 -2 41h51h977v-164q-20 0 -55 1t-52 1h-921zM395 299q0 49 34.5 82t82.5 33q49 0 82 -33.5t33 -83.5q0 -47 -33 -79t-80 -32q-52 0 -85.5 30t-33.5 83zM395 885q0 48 31.5 82t81.5 34t84.5 -32.5t34.5 -81.5q0 -47 -34 -81t-81 -34 q-48 0 -82.5 32t-34.5 81z" />
<glyph unicode="&#xf8;" horiz-adv-x="1105" d="M53 -55q0 7 30 48.5t64.5 88t40.5 57.5q-125 160 -125 389q0 111 33 211t94.5 178t157 124t211.5 46q162 0 285 -92q3 4 19 28t32.5 47t35.5 48.5t34.5 41.5t21.5 16q11 0 34 -20t23 -32q0 -7 -28.5 -49t-67 -93.5t-39.5 -53.5q129 -161 129 -404q0 -149 -56.5 -272.5 t-171 -201t-267.5 -77.5q-87 0 -154 24t-133 79q-14 -25 -72.5 -102.5t-66.5 -77.5q-17 0 -40.5 18.5t-23.5 30.5zM309 578q0 -127 37 -226q65 81 190 242t189 242q-67 114 -168 114q-67 0 -117.5 -36t-77.5 -94.5t-40 -119.5t-13 -122zM377 242q71 -115 180 -115 q64 0 113 37.5t75 96t39 119t13 118.5q0 98 -39 227q-88 -111 -381 -483z" />
<glyph unicode="&#xf9;" d="M104 295v725q0 24 9.5 32.5t33.5 8.5h172q41 0 41 -39v-690q0 -98 40 -143.5t141 -45.5q90 0 125.5 38t35.5 128v711q0 24 10 32.5t36 8.5h159q29 0 40 -8t11 -37v-768q0 -107 -28 -150q-38 -48 -119.5 -78t-151 -38.5t-135.5 -8.5q-73 0 -133 9t-114.5 31.5t-91.5 58.5 t-59 92.5t-22 130.5zM258 1386q0 42 15.5 71.5t50.5 29.5q5 0 10 -1t8.5 -2.5t8.5 -4.5l7.5 -4.5t8 -6.5t7 -6.5l7 -7l6.5 -6.5t19.5 -18t37.5 -35.5t44 -45t44 -49.5t32.5 -46t13.5 -37q0 -56 -46 -56q-34 0 -53 25q-10 7 -56.5 39.5t-77 55.5t-59 54t-28.5 51z" />
<glyph unicode="&#xfa;" d="M104 295v725q0 24 9.5 32.5t33.5 8.5h172q41 0 41 -39v-690q0 -98 40 -143.5t141 -45.5q90 0 125.5 38t35.5 128v711q0 24 10 32.5t36 8.5h159q29 0 40 -8t11 -37v-768q0 -107 -28 -150q-38 -48 -119.5 -78t-151 -38.5t-135.5 -8.5q-73 0 -133 9t-114.5 31.5t-91.5 58.5 t-59 92.5t-22 130.5zM479 1210q0 9 4 25q14 40 115.5 146t136.5 106q29 0 47.5 -24.5t18.5 -57.5q0 -22 -4 -29q-12 -38 -124.5 -126.5t-146.5 -88.5q-47 0 -47 49z" />
<glyph unicode="&#xfb;" d="M104 295v725q0 24 9.5 32.5t33.5 8.5h172q41 0 41 -39v-690q0 -98 40 -143.5t141 -45.5q90 0 125.5 38t35.5 128v711q0 24 10 32.5t36 8.5h159q29 0 40 -8t11 -37v-768q0 -107 -28 -150q-38 -48 -119.5 -78t-151 -38.5t-135.5 -8.5q-73 0 -133 9t-114.5 31.5t-91.5 58.5 t-59 92.5t-22 130.5zM244 1196q14 37 26 49q93 81 199 197q26 26 51 26q11 0 25 -7.5t32 -24t31 -28.5t35 -35t29 -30q6 -5 49 -35.5t66.5 -55t23.5 -46.5q0 -19 -12.5 -33t-30.5 -14q-17 0 -64.5 31.5t-100 62.5t-81.5 31q-32 0 -81 -32t-93 -64.5t-65 -32.5l2 -2 q-18 0 -28.5 12t-12.5 31z" />
<glyph unicode="&#xfc;" d="M104 295v727q0 23 9.5 31t33.5 8h175q40 0 40 -37v-690q0 -98 40 -143.5t141 -45.5q89 0 125.5 38.5t36.5 127.5v711q0 23 9.5 31t33.5 8h161q27 0 38 -8t11 -35v-768q0 -104 -22 -141q-35 -49 -115.5 -81.5t-154.5 -43.5t-142 -11q-72 0 -132 9t-114.5 31.5t-92 58 t-59.5 92.5t-22 131zM190 1341q0 55 40 91t96 36q57 0 96 -35.5t39 -93.5q0 -60 -38 -93.5t-97 -33.5t-97.5 34.5t-38.5 94.5zM578 1341q0 55 39 91t94 36q61 0 100 -35t39 -94q0 -60 -38.5 -93.5t-100.5 -33.5q-57 0 -95 35t-38 94z" />
<glyph unicode="&#xfd;" horiz-adv-x="976" d="M-2 -367q0 49 31.5 80t79.5 31q20 0 59 -11.5t61 -11.5q28 0 52 12.5t39.5 30.5t30 46t23 52t20 55.5t20.5 49.5q-75 197 -214 555t-184 475q-10 23 -10 37q0 27 37 27h193q8 0 14 -0.5t10.5 -1t7.5 -3t5 -3.5t4.5 -6.5t3.5 -8t3.5 -11t4.5 -13.5q155 -454 217 -631 q3 -10 11.5 -31.5t12.5 -38.5q95 323 226 701q11 31 20.5 39t38.5 8h131q33 0 33 -29q0 -14 -10 -37q-370 -1018 -412 -1134q-28 -79 -57.5 -136t-74 -111t-107.5 -82t-142 -28q-43 0 -81 11t-67.5 41.5t-29.5 76.5zM434 1210q0 12 8 28.5t27 39.5t32.5 38.5t42.5 46 t40 42.5q9 8 29.5 33.5t37.5 37t39 11.5q29 0 47.5 -24.5t18.5 -57.5q0 -3 -4 -31q-12 -36 -125 -124.5t-146 -88.5q-47 0 -47 49z" />
<glyph unicode="&#xfe;" d="M109 -442v1966q0 26 7.5 34.5t33.5 8.5h161q31 0 41 -7.5t10 -35.5v-477q91 43 205 43q108 0 193 -42.5t136 -115t77 -162.5t26 -192q0 -81 -16 -163.5t-52 -162t-87 -141t-127 -99t-166 -37.5q-59 0 -97.5 12t-91.5 44v-467q0 -25 -7.5 -35t-32.5 -10h-162 q-28 0 -39.5 7.5t-11.5 31.5zM362 188q32 -17 47.5 -24.5t42 -15t52.5 -7.5q56 0 99 29t67.5 71.5t40.5 99t21 104t5 94.5q0 48 -5.5 96.5t-21.5 105.5t-41.5 100t-69.5 72t-101 29q-74 0 -106 -33.5t-30 -109.5v-611z" />
<glyph unicode="&#xff;" horiz-adv-x="976" d="M-2 -367q0 49 31.5 80t79.5 31q20 0 59 -11.5t61 -11.5q28 0 52 12.5t39.5 30.5t30 46t23 52t20 55.5t20.5 49.5q-75 197 -214 555t-184 475q-10 23 -10 37q0 27 37 27h193q8 0 14 -0.5t10.5 -1t7.5 -3t5 -3.5t4.5 -6.5t3.5 -8t3.5 -11t4.5 -13.5q155 -454 217 -631 q3 -10 11.5 -31.5t12.5 -38.5q95 323 226 701q11 31 20.5 39t38.5 8h131q33 0 33 -29q0 -14 -10 -37q-370 -1018 -412 -1134q-28 -79 -57.5 -136t-74 -111t-107.5 -82t-142 -28q-43 0 -81 11t-67.5 41.5t-29.5 76.5zM154 1339q0 55 39.5 92t95.5 37q59 0 98 -35.5t39 -95.5 q0 -58 -39 -91.5t-98 -33.5t-97 34t-38 93zM543 1339q0 55 38 92t93 37q58 0 98.5 -32.5t40.5 -89.5q0 -62 -37 -98t-100 -36q-57 0 -95 34.5t-38 92.5z" />
<glyph unicode="&#x152;" horiz-adv-x="1888" d="M68 719q0 117 21 225t67.5 206.5t115 171.5t171 116t227.5 43q103 0 182 -33q85 -36 156 -115v74q0 24 6.5 31.5t27.5 7.5h744q25 0 33 -7.5t8 -33.5v-100v-8v-8v-6.5t-1 -6t-2 -4.5t-3 -4.5t-4.5 -3.5t-6 -2.5t-8 -1t-10.5 -0.5h-516v-418h436q27 0 36 -6t9 -31v-105 q0 -24 -6.5 -31t-32.5 -7h-442v-474h514q25 0 31 -8.5t6 -34.5v-106q0 -39 -39 -39h-739q-27 0 -34 6.5t-7 34.5v72q-124 -146 -344 -146q-102 0 -189.5 30.5t-152 84.5t-114 125t-79.5 156t-45.5 174.5t-15.5 181.5zM356 735q0 -70 8.5 -141.5t33.5 -153.5t63.5 -144 t104.5 -103t151 -41q110 0 185 79t97 193q11 45 11 104v369q0 264 -150 358q-78 58 -153 58q-71 0 -128 -27.5t-94 -76t-63.5 -106.5t-40 -126t-19.5 -126t-6 -116z" />
<glyph unicode="&#x153;" horiz-adv-x="1611" d="M63 535q0 111 27.5 208t81.5 175t143.5 123.5t204.5 45.5q120 0 197 -49.5t141 -158.5q102 208 332 208q157 0 264 -111t107 -282q0 -42 -17 -61t-59 -25q-141 -15 -537 -73q5 -31 8 -46.5t10.5 -48t14 -51t18.5 -47t25 -45.5t32 -37.5t41 -32t51 -19t62 -7.5 q132 0 226 137q7 21 27 40t44 19q52 0 52 -71q0 -51 -29 -119q-51 -116 -130.5 -175t-197.5 -59h-10q-110 0 -198.5 54.5t-137.5 154.5q-57 -108 -136 -158.5t-200 -50.5q-93 0 -170 31t-129 84.5t-88.5 125.5t-53 153t-16.5 168zM311 553q0 -43 6 -92t22 -107.5t40 -104.5 t64.5 -77t91.5 -31q41 0 73.5 17.5t52.5 49t34 67t20.5 79t9 77t2.5 69.5q0 44 -5 94.5t-19.5 114t-37 113t-62.5 84t-91 34.5q-48 0 -85 -29.5t-58.5 -72t-35 -98t-18 -101t-4.5 -86.5zM946 657q51 7 179.5 26.5t199.5 29.5q-6 35 -12.5 62.5t-20 59t-31.5 52t-47.5 34 t-66.5 13.5q-52 0 -91.5 -25.5t-61.5 -68t-34 -88.5t-14 -95z" />
<glyph unicode="&#x178;" horiz-adv-x="1107" d="M0 1419q0 27 35 27h219h12t10 -1t7 -1t5.5 -2.5t4.5 -3t4.5 -5.5t4 -6t4.5 -8t5 -10q21 -39 123 -230.5t156 -295.5h-2q45 82 137.5 257t142.5 265q13 25 23.5 33t34.5 8h147q33 0 33 -25q0 -6 -2 -12.5t-6 -15t-6 -13.5q-66 -124 -200.5 -369.5t-201.5 -369.5v-602 q0 -39 -33 -39h-217q-23 0 -30 7t-7 32v612q-355 668 -389 731q-14 19 -14 37zM201 1700q0 61 42 97t105 36q59 0 100 -35.5t41 -93.5q0 -61 -39 -97t-100 -36q-62 0 -105.5 33.5t-43.5 95.5zM606 1700q0 60 43 96.5t105 36.5q58 0 99.5 -32.5t41.5 -90.5q0 -67 -38.5 -103 t-106.5 -36q-60 0 -102 34.5t-42 94.5z" />
<glyph unicode="&#x2c6;" horiz-adv-x="557" d="M-188 1202q0 17 40 59t99.5 97.5t83.5 83.5q20 26 51 26q19 0 44.5 -20t59.5 -56t48 -49q10 -8 53 -41t64.5 -55.5t21.5 -40.5q0 -19 -12.5 -33t-30.5 -14q-17 0 -64.5 31.5t-100 62.5t-81.5 31t-78.5 -32t-95 -64.5t-64.5 -32.5q-18 0 -28 13.5t-10 33.5z" />
<glyph unicode="&#x2dc;" horiz-adv-x="557" d="M-215 1260q0 74 58.5 131t131.5 57q44 0 87 -25t84.5 -50t82.5 -25q30 0 53 14.5t34.5 32.5t25.5 32.5t29 14.5q19 0 28 -15.5t9 -35.5q0 -81 -57.5 -138t-129.5 -57q-42 0 -80 16t-61 35t-52.5 35t-56.5 16q-32 0 -55 -14.5t-33.5 -31.5t-24.5 -31.5t-30 -14.5 q-43 0 -43 54z" />
<glyph unicode="&#x2000;" horiz-adv-x="958" />
<glyph unicode="&#x2001;" horiz-adv-x="1917" />
<glyph unicode="&#x2002;" horiz-adv-x="958" />
<glyph unicode="&#x2003;" horiz-adv-x="1917" />
<glyph unicode="&#x2004;" horiz-adv-x="639" />
<glyph unicode="&#x2005;" horiz-adv-x="479" />
<glyph unicode="&#x2006;" horiz-adv-x="319" />
<glyph unicode="&#x2007;" horiz-adv-x="319" />
<glyph unicode="&#x2008;" horiz-adv-x="239" />
<glyph unicode="&#x2009;" horiz-adv-x="383" />
<glyph unicode="&#x200a;" horiz-adv-x="106" />
<glyph unicode="&#x2010;" horiz-adv-x="641" d="M123 518v105q0 24 6.5 31.5t30.5 7.5h368q23 0 29 -6t6 -29v-115q0 -25 -6 -31t-31 -6h-370q-22 0 -27.5 9t-5.5 34z" />
<glyph unicode="&#x2011;" horiz-adv-x="641" d="M123 518v105q0 24 6.5 31.5t30.5 7.5h368q23 0 29 -6t6 -29v-115q0 -25 -6 -31t-31 -6h-370q-22 0 -27.5 9t-5.5 34z" />
<glyph unicode="&#x2012;" horiz-adv-x="641" d="M123 518v105q0 24 6.5 31.5t30.5 7.5h368q23 0 29 -6t6 -29v-115q0 -25 -6 -31t-31 -6h-370q-22 0 -27.5 9t-5.5 34z" />
<glyph unicode="&#x2013;" horiz-adv-x="1177" d="M104 549v74q0 23 9.5 31t33.5 8h840q25 0 34 -8t9 -31v-76q0 -25 -10 -31t-39 -6h-829q-26 0 -37 7.5t-11 31.5z" />
<glyph unicode="&#x2014;" horiz-adv-x="1449" d="M129 586v39q0 25 5.5 31t25.5 6h1132q20 0 26.5 -5.5t6.5 -25.5v-45q0 -22 -6.5 -30.5t-28.5 -8.5h-1122q-26 0 -32.5 7t-6.5 32z" />
<glyph unicode="&#x2018;" horiz-adv-x="507" d="M111 1169q0 80 36 157.5t99 135.5q46 46 71 55q13 5 25 5q20 0 33.5 -13.5t13.5 -33.5q0 -16 -15 -39t-33 -43t-33 -49.5t-15 -57.5q0 -27 14 -52t31 -41t31 -42t14 -55q0 -49 -36 -81t-85 -32q-76 0 -113.5 54.5t-37.5 131.5z" />
<glyph unicode="&#x2019;" horiz-adv-x="507" d="M119 1026q-2 18 22 50t49 71t25 72q0 27 -14 51t-31 40.5t-31 42t-14 54.5q0 53 34.5 85t86.5 32q73 0 112 -57t39 -134q0 -140 -123 -282l-5 -5q-63 -63 -101 -65q-20 0 -34.5 13t-14.5 32z" />
<glyph unicode="&#x201a;" horiz-adv-x="507" d="M119 -201q-2 18 22 50t49 71t25 72q0 30 -22.5 61t-45 63.5t-22.5 65.5q0 50 35 81.5t86 31.5q73 0 112 -56.5t39 -132.5q0 -150 -129 -288l-11 -11l-13 -13t-12.5 -11.5t-15 -12t-14.5 -8.5t-17.5 -7.5t-16.5 -2.5q-22 0 -35.5 13.5t-13.5 33.5z" />
<glyph unicode="&#x201c;" horiz-adv-x="837" d="M104 1169q0 68 36 151t91 142.5t105 59.5q20 0 33.5 -13.5t13.5 -33.5q0 -16 -24.5 -46.5t-49 -69t-24.5 -73.5q0 -26 14 -50.5t31 -41.5t31 -43t14 -55q0 -48 -35.5 -80.5t-83.5 -32.5q-73 0 -112.5 55t-39.5 131zM444 1171q0 82 37 158t101 135q43 43 68 53q13 5 26 5 q23 0 36 -13t13 -34q0 -16 -25 -45t-50 -67.5t-25 -76.5q0 -27 14.5 -52t32.5 -41.5t32.5 -42t14.5 -54.5q0 -49 -38 -81t-87 -32q-74 0 -112 56t-38 132z" />
<glyph unicode="&#x201d;" horiz-adv-x="837" d="M111 1026q0 15 24.5 46.5t49 71.5t24.5 75q0 37 -22.5 65.5l-45 57t-22.5 65.5q0 53 35 85t86 32q73 0 112 -57t39 -134q0 -72 -32 -146t-89 -136q-68 -68 -108 -70q-48 0 -51 45zM451 1026q0 15 24.5 46.5t49 71.5t24.5 75q0 27 -14 51t-31 40.5t-31 42t-14 54.5 q0 53 35 85t86 32q73 0 112 -56.5t39 -132.5q0 -78 -35.5 -157.5t-97.5 -139.5q-52 -56 -96 -59q-19 0 -34.5 14t-16.5 33z" />
<glyph unicode="&#x201e;" horiz-adv-x="837" d="M111 -201q0 17 24.5 48.5t49 70.5t24.5 74q0 27 -14 52t-31 41t-31 42t-14 55q0 49 35.5 82t85.5 33q73 0 112 -57t39 -134q0 -148 -127 -288q-21 -21 -30 -29.5t-31 -22t-41 -14.5q-20 0 -34.5 14t-16.5 33zM451 -201q0 15 24.5 46.5t49 71.5t24.5 75q0 37 -22.5 66 l-45 58t-22.5 66q0 49 35.5 82t85.5 33q73 0 112 -57t39 -134q0 -171 -149 -307q-45 -45 -80 -47q-19 0 -34.5 14t-16.5 33z" />
<glyph unicode="&#x2022;" horiz-adv-x="1945" d="M467 4v1047h1051v-1047h-1051z" />
<glyph unicode="&#x2026;" horiz-adv-x="2068" d="M231 100q0 48 33 81.5t82 33.5q48 0 80.5 -32t32.5 -81q0 -44 -31.5 -79t-77.5 -35q-48 0 -83.5 32.5t-35.5 79.5zM922 100q0 48 32.5 81.5t79.5 33.5q48 0 81.5 -32t33.5 -81q0 -48 -32 -81t-79 -33q-48 0 -82 32.5t-34 79.5zM1610 100q0 48 32.5 81.5t79.5 33.5 q50 0 82.5 -32t32.5 -81q0 -48 -30.5 -81t-77.5 -33q-48 0 -83.5 32.5t-35.5 79.5z" />
<glyph unicode="&#x202f;" horiz-adv-x="383" />
<glyph unicode="&#x2039;" horiz-adv-x="544" d="M70 598q0 27 34 53q37 28 103.5 104.5t119 134.5t70.5 58q19 0 32 -13t13 -30q0 -33 -73.5 -152t-73.5 -155v2q0 -36 36.5 -103.5t73.5 -129.5t37 -84q0 -20 -11.5 -33.5t-31.5 -13.5q-12 0 -22.5 7t-15 12t-15.5 19t-38.5 47.5t-40.5 49.5t-37.5 44.5t-42 47t-41 41.5 t-46.5 43q-30 26 -30 51z" />
<glyph unicode="&#x203a;" horiz-adv-x="544" d="M100 281q0 26 74 148.5t74 156.5q0 23 -17 57q-8 18 -43.5 77t-61.5 110.5t-26 74.5q0 18 11.5 30.5t31.5 12.5q26 0 56 -39q51 -66 78 -99.5t73.5 -83.5t91.5 -87q31 -27 31 -51q0 -21 -35 -56q-75 -55 -123.5 -109.5t-117.5 -152.5q-26 -34 -52 -34q-19 0 -32 13 t-13 32z" />
<glyph unicode="&#x205f;" horiz-adv-x="479" />
<glyph unicode="&#x20ac;" horiz-adv-x="1273" d="M68 616v43q0 17 6 22t26 5h107q-2 23 -2 45q0 31 2 66h-109q-20 0 -24 3.5t-4 22.5v45q0 11 9.5 17.5t28.5 8.5t34.5 2.5t40.5 -0.5t34 -1q47 284 189.5 435t359.5 151q109 0 209.5 -42t162.5 -112.5t62 -148.5q0 -51 -31.5 -84t-78.5 -33q-38 0 -66.5 19t-40.5 55 q-41 84 -103 129t-132 45q-123 0 -204.5 -110.5t-101.5 -303.5q106 1 296.5 -0.5t250.5 -1.5q23 0 28 -4t5 -21v-43q0 -18 -6 -23t-29 -5h-82q-309 0 -465 -2v-9q0 -61 6 -100h517q23 0 28.5 -4.5t5.5 -22.5v-43q0 -17 -6 -20.5t-30 -3.5h-76q-47 0 -195 -1.5t-229 -0.5 q32 -188 138.5 -306t242.5 -118q61 0 111.5 20.5t105.5 69.5q4 4 14 11.5t13 10.5t10 8t11.5 6.5t10.5 3t12 1.5q23 0 39.5 -20.5t16.5 -49.5q1 -23 -9.5 -44.5t-35.5 -53.5q-63 -79 -157.5 -120.5t-207.5 -41.5q-235 0 -381.5 162t-181.5 461q-9 0 -33 -1t-40 -1t-34.5 2 t-28 8.5t-9.5 17.5z" />
<glyph unicode="&#x2122;" horiz-adv-x="1388" d="M29 1346v49v-2v53h53h500v-103q-7 0 -22.5 1.5t-22.5 1.5h-168v-574h-43h-76v574h-221zM633 1446h164q8 -38 14 -55q29 -92 81 -256t71 -224q21 81 46.5 166.5t62.5 202t52 166.5h162q0 -121 -2 -337t-2 -337h-39h-76v57q1 36 4 214t11 284q-17 -55 -52 -174 t-62.5 -208.5t-55.5 -172.5h-56h5h-54q-33 97 -87.5 280t-84.5 273q8 -98 11.5 -261t7.5 -235v-57h-41h-76q0 121 -2 337t-2 337z" />
<glyph unicode="&#x25fc;" horiz-adv-x="1064" d="M0 0v1065h1065v-1065h-1065z" />
</font>
</defs>
</svg>
