<?xml version="1.0" standalone="no"?>
<!DOCTYPE svg PUBLIC "-//W3C//DTD SVG 1.1//EN" "http://www.w3.org/Graphics/SVG/1.1/DTD/svg11.dtd" >
<svg xmlns="http://www.w3.org/2000/svg">
<metadata></metadata>
<defs>
<font id="aa_zuehlke_otpsitalic" horiz-adv-x="1062" >
<font-face units-per-em="2048" ascent="1638" descent="-410" />
<missing-glyph horiz-adv-x="509" />
<glyph unicode="&#xfb01;" horiz-adv-x="972" d="M176.5 13q-3.5 13 1.5 32l197 924h-129q-17 0 -21 8t-2 24q4 11 8 29v-4q6 35 41 35h123q59 218 121 309q50 85 135.5 147t173.5 62q39 0 60.5 -20t13.5 -60q-7 -34 -34 -53t-64 -19q-7 0 -21.5 1.5t-21.5 1.5q-40 0 -72 -21t-52 -56.5t-31.5 -68.5t-18.5 -70 q-9 -39 -11.5 -54.5t-3.5 -44t6 -54.5h183q17 0 21 -11t-1 -28l-8 -33l2 4q-1 -5 -2.5 -8.5t-2.5 -6.5t-3.5 -4.5t-3.5 -2.5t-5 -1.5t-5 -0.5h-7h-8h-176l-197 -926q-5 -25 -15 -34t-36 -9h-110q-21 0 -24.5 13zM672 27l213 999q4 23 12.5 29t32.5 6h106q26 0 31.5 -5.5 t1.5 -29.5l-211 -993q-4 -23 -12 -28t-31 -5h-121q-17 0 -21 5t-1 22zM934 1348q10 47 50 79.5t87 32.5q42 0 69.5 -31.5t18.5 -74.5q-11 -50 -48.5 -81.5t-86.5 -31.5q-48 0 -73.5 30t-16.5 77z" />
<glyph unicode="&#xfb02;" horiz-adv-x="980" d="M180.5 13q-3.5 13 1.5 32l197 924h-129q-10 0 -15.5 3t-6 10.5t0 12.5t3.5 17.5t4 15.5q9 33 40 33h123q62 221 119 309q53 88 138.5 149.5t172.5 61.5q39 0 61 -20.5t13 -59.5q-7 -34 -34 -52.5t-64 -18.5q-7 0 -22.5 1t-22.5 1q-39 0 -71 -21t-52 -56t-32 -68.5 t-19 -69.5q-21 -96 -8 -156h182q11 0 17 -4t6 -12.5t-1 -15.5t-4 -18.5t-4 -17.5q-3 -12 -8 -17.5t-10 -6t-19 -0.5h-176l-196 -926q-5 -25 -15 -34t-35 -9h-110q-21 0 -24.5 13zM681.5 7q-4.5 7 0.5 30l319 1497q3 15 9.5 22.5t14 9t22.5 1.5h112q21 0 25.5 -6t-0.5 -29 l-318 -1495q-6 -37 -41 -37h-116q-23 0 -27.5 7z" />
<glyph horiz-adv-x="0" />
<glyph horiz-adv-x="682" />
<glyph unicode=" "  horiz-adv-x="509" />
<glyph unicode="&#x09;" horiz-adv-x="509" />
<glyph unicode="&#xa0;" horiz-adv-x="509" />
<glyph unicode="!" horiz-adv-x="587" d="M229 113q12 54 57 92.5t99 38.5q56 0 86 -37t18 -92q-10 -53 -57.5 -89t-99.5 -36t-82.5 35t-20.5 88zM387 496q27 172 72 468.5t67 438.5l2 12q9 31 41 31h148q32 0 26 -35l-2 -10q-40 -152 -121.5 -446t-125.5 -461q-5 -14 -8 -20t-9.5 -10.5t-17.5 -4.5h-41 q-25 0 -29.5 5.5t-1.5 31.5z" />
<glyph unicode="&#x22;" horiz-adv-x="792" d="M377 907q7 107 19.5 283.5t15.5 214.5q0 3 6 33q9 43 40 69.5t74 26.5q46 0 60 -25t6 -71l-2 -4q-42 -125 -182 -527h-37zM758 907q6 98 20 260t19 238q0 3 6 33q8 41 39.5 68.5t72.5 27.5q88 0 68 -96l-2 -4q-29 -82 -89.5 -252.5t-96.5 -274.5h-37z" />
<glyph unicode="#" horiz-adv-x="1193" d="M109 539l12 57v-2l12 59h363q13 33 36 98.5t35 98.5h-291q-41 0 -61 -2l14 61l-2 -4l15 64q23 -2 61 -2h305q53 147 150 438q17 32 22 63h66h-4h63q-31 -101 -97.5 -284t-78.5 -217h203q22 66 84 235.5t92 265.5h61h-4h64q-24 -76 -52.5 -159t-65 -184t-56.5 -158h291 q41 0 59 2l-27 -121q-12 0 -30 1t-29 1h-305q-64 -183 -68 -197h350l-12 -59v2l-12 -57h-367q-23 -69 -87 -254t-95 -285h-66h2h-63q31 103 100.5 294t87.5 245h-204q-144 -381 -191 -539h-61h2h-60q24 80 54.5 168t72 202t60.5 169h-348zM618 653h205q12 33 35 98.5 t35 98.5h-205q-12 -33 -35 -98.5t-35 -98.5z" />
<glyph unicode="$" horiz-adv-x="1015" d="M109 268q8 36 36.5 61t63.5 25q28 0 43.5 -13t21.5 -34t10.5 -46.5t15 -52.5t29 -51t58.5 -42t98 -25l123 576q-37 20 -57.5 31.5t-54.5 32.5t-54 36.5t-46.5 39.5t-41.5 45.5t-30.5 50.5t-21 59t-5.5 66.5t8 76.5q37 173 166.5 269t308.5 104l29 137q5 26 35 26 q39 0 42 -4t-1 -20l-29 -139q86 -4 137 -31q188 -91 162 -207q-6 -34 -30.5 -58t-59.5 -24q-10 0 -19 1.5t-16 6.5t-12.5 8.5t-11 12t-8 12.5t-7 15.5t-6 16t-5.5 18t-5 16.5v-4q-22 54 -51 73.5t-93 32.5l-114 -541q138 -77 183 -110q137 -101 148 -234q4 -49 -8 -104 q-38 -175 -172 -281t-333 -127l-29 -137q-1 -9 -2 -12.5t-4.5 -6.5t-10.5 -3h-47q-15 0 -12 22l29 137q-241 13 -328 183q-32 62 -22 116zM467.5 1081.5q-2.5 -22.5 5.5 -45t15 -40t23 -34.5t29.5 -30t33.5 -27t36.5 -23.5t38.5 -21.5l107 508q-110 -11 -185 -70.5 t-98 -164.5q-3 -29 -5.5 -51.5zM561 90q106 0 191.5 66t109.5 174q6 42 6.5 75t-13 63t-29 52t-42 43t-51 36.5t-57.5 31.5z" />
<glyph unicode="%" horiz-adv-x="1605" d="M248.5 797q1.5 55 6.5 102t15 92q12 56 29.5 112t50.5 124t72.5 118t98.5 84.5t126 34.5q64 0 106 -34.5t60 -86.5t22 -119t-2 -124.5t-18 -110.5q-10 -45 -24.5 -91.5t-37 -101t-53.5 -102t-68 -87t-86 -62.5t-102 -23q-55 0 -94.5 23t-60 62.5t-31.5 87t-9.5 102.5z M373 775.5q1 -40.5 7 -82t27 -64.5t54 -23q34 0 65 23t55 65t43 83.5t34 94.5t22 81.5t14 60.5q77 375 -65 375q-38 0 -73 -32.5t-59.5 -77t-46 -103t-32 -96.5t-17.5 -72q-6 -32 -10.5 -58.5t-11.5 -80t-6 -94zM387 16q4 14 21 35q183 249 523 704t486 652q5 7 9 11.5t7 9 t7 7t5.5 5t6.5 3.5t6.5 2t8 1h8.5h11h13h-4q10 0 15 -0.5t9.5 -4.5t2.5 -11q-4 -18 -25 -39q-169 -229 -502.5 -678.5t-502.5 -677.5q-16 -23 -27 -29t-31 -6h-26h2q-9 0 -13 0.5t-7.5 4t-2.5 11.5zM1073 218.5q-4 66.5 2 122t17 108.5q12 56 30 112.5t50.5 124t71.5 118 t97 84.5t123 34q64 0 107 -34.5t60.5 -85.5t22 -117.5t-1.5 -123.5t-18 -110q-12 -56 -30 -112t-50.5 -122.5t-72 -116t-97.5 -83t-124 -33.5q-64 0 -106 34t-59.5 84t-21.5 116.5zM1191.5 229.5q1.5 -41.5 7.5 -82t27 -63.5t54 -23q34 0 65.5 23.5t55.5 65t42.5 84t33 94 t21.5 81.5t13 60q7 30 12 60t11 77t4 86t-9.5 75.5t-29 57.5t-55.5 21q-46 0 -87 -46t-68.5 -116.5t-43 -123t-24.5 -95.5q-7 -31 -12 -60.5t-12 -81.5t-5.5 -93.5z" />
<glyph unicode="&#x26;" horiz-adv-x="1265" d="M106 326q15 69 52.5 131t82 106.5t112.5 90.5t121 74.5t130 66.5q-16 31 -27 54t-25 55.5t-22 61.5t-14 61.5t-5.5 66t7.5 65.5q32 155 154 236.5t284 81.5q65 0 119.5 -17t95 -50t57 -87.5t1.5 -124.5q-12 -57 -45 -110t-70.5 -90.5t-95.5 -76.5t-99 -62t-102 -54 q27 -45 77.5 -135t76.5 -135q211 241 364 241q40 0 62 -19.5t14 -58.5q-3 -15 -9 -26.5t-11.5 -19.5t-17 -14t-17.5 -9.5t-21.5 -6.5t-21 -3.5t-24 -2.5t-21.5 -2h4q-32 -4 -59.5 -12.5t-44.5 -15t-41.5 -26t-33 -27t-38.5 -37.5l-39 -39q13 -24 219 -389q1 -5 7.5 -17.5 t4.5 -25.5q-6 -25 -35 -25h-118q-10 0 -17.5 1t-12.5 1.5t-10 3.5t-7.5 4t-6.5 7l-5 7.5t-6 10.5t-7 12q-116 211 -137 248q-46 -55 -73 -85.5t-70 -75t-78 -69t-80.5 -49.5t-94.5 -36t-104 -11q-149 0 -229.5 103.5t-49.5 253.5zM299 383q-21 -102 29.5 -179t148.5 -77 q27 0 51.5 4t49 14.5t42.5 19t42 28.5t37 30t37 37t33.5 37t35.5 41t33 39q-31 58 -95 170t-96 170q-56 -30 -88.5 -48.5t-83.5 -54t-81 -66t-57.5 -74.5t-37.5 -91zM684 1133q-1 -24 4 -48t10 -42.5t16.5 -43.5t18.5 -39t21.5 -40.5t19.5 -36.5q55 31 93.5 56t85.5 63 t77 82t41 92q17 86 -23 140t-124 54q-85 0 -150 -52t-84 -136q-5 -25 -6 -49z" />
<glyph unicode="'" horiz-adv-x="417" d="M381 907q9 197 37 498q0 3 6 33q9 43 40 69.5t75 26.5q80 0 63 -96v-4q-22 -63 -57 -165.5t-65.5 -190t-61.5 -171.5h-37z" />
<glyph unicode="(" horiz-adv-x="589" d="M227.5 246.5q-34.5 229.5 24.5 494.5q53 250 178.5 466t335.5 411q100 100 141 100q36 0 27 -35q-3 -20 -27 -41q-178 -178 -291 -419.5t-170 -505.5q-28 -130 -41 -242t-11.5 -232t32 -229t88.5 -198q22 -30 18 -54q-3 -13 -16 -23.5t-27 -10.5q-22 0 -48 30.5t-42 59.5 q-137 199 -171.5 428.5z" />
<glyph unicode=")" horiz-adv-x="589" d="M-39 -236q3 11 27 39q170 170 286.5 413t171.5 501q120 560 -67 913q-25 33 -21 56q3 13 16 22.5t27 9.5q7 0 15 -3.5t16.5 -11t15 -14t15 -18t12.5 -16.5t11 -16l8 -11q135 -200 170 -426.5t-23 -492.5q-54 -250 -176.5 -463.5t-335.5 -413.5q-21 -27 -70 -65.5 t-71 -38.5q-33 0 -27 36z" />
<glyph unicode="*" horiz-adv-x="612" d="M299 1231q5 25 13 40t22.5 24t26 12t36.5 8q137 22 148 76q5 27 -14 41t-49 19.5t-59.5 12.5t-47 27.5t-10.5 56.5q14 72 65 72q18 0 31.5 -22t21.5 -48.5t28 -48.5t50 -22q31 0 41 45q6 32 5 87.5t5 84.5q20 78 74 78q26 0 30.5 -25.5t-3.5 -50.5v4q-6 -28 -28 -86 t-28 -90q-5 -12 -1.5 -29.5t20.5 -17.5q33 0 70.5 34.5t69.5 69.5t52 35q45 0 33 -64v2q-9 -44 -45 -69q-3 -2 -47 -12t-82.5 -27.5t-42.5 -40.5q-7 -29 27.5 -47.5t70.5 -18.5q44 -12 58 -28.5t4 -63.5q-4 -21 -17 -38t-34 -17q-18 0 -35.5 20t-29.5 43.5t-32 43.5t-43 20 q-21 0 -30.5 -10.5t-14.5 -32.5q-7 -31 -3 -90t-3 -90q-6 -30 -21.5 -53t-41.5 -23q-18 0 -28 8.5t-11 25t0 27.5t4 29q5 24 20.5 68t20.5 67l4 17q6 51 -19 51q-26 0 -56 -24t-53 -53t-49 -53t-44 -24q-21 0 -27.5 23t-1.5 47z" />
<glyph unicode="+" horiz-adv-x="1017" d="M172 535l8 40l19 82h387l80 383h41h84l-80 -383h385l-27 -125q-27 3 -51 3h-334l-82 -390h-41h-84l82 390h-387z" />
<glyph unicode="," horiz-adv-x="509" d="M78 -219q1 13 22 35.5t47 45.5t51 55t31 60q4 19 -4 34.5t-22 27t-27.5 24t-20.5 32.5t-1 46q10 45 50 72t85 27q48 0 76 -28.5t31.5 -69.5t-3.5 -87q-15 -71 -68 -141t-128 -123q-3 -2 -18.5 -12t-24 -14.5t-22 -10t-23.5 -6.5q-14 0 -24 10t-7 23z" />
<glyph unicode="-" horiz-adv-x="641" d="M229 504q-5 8 0 28l17 76q6 33 41 33h338q20 0 24.5 -6t1.5 -25l-18 -86q-6 -28 -35 -28h-344q-20 0 -25 8z" />
<glyph unicode="." horiz-adv-x="509" d="M147 115q12 55 56.5 90t99.5 35q54 0 81.5 -38t16.5 -93q-12 -53 -56.5 -87t-96.5 -34q-54 0 -83 36.5t-18 90.5z" />
<glyph unicode="/" horiz-adv-x="884" d="M-27 -225q1 2 9 22l1118 1895q2 2 8.5 13t12.5 17.5t12 6.5q11 0 24 -9q1 -2 20 -7t35.5 -14t14.5 -20q-2 -5 -13 -22l-1126 -1909q-2 -3 -5 -8t-5 -8t-6 -5.5t-9 -2.5q-24 0 -67 24q-25 13 -23 27z" />
<glyph unicode="0" horiz-adv-x="1105" d="M236 335.5q-4 67.5 0 141t12 127.5t18 101l4 20q13 64 31.5 128.5t48 142.5t64 147t83.5 136t103.5 114.5t125 76.5t148.5 29q74 0 129.5 -29t89 -76.5t53.5 -113.5t25.5 -134.5t2.5 -145.5t-11.5 -141t-21.5 -126q-16 -76 -40 -152.5t-60 -166.5t-85.5 -166.5 t-110 -140.5t-140.5 -101t-170 -37q-77 0 -134.5 31t-90 81t-51.5 118.5t-23 136zM421.5 367q-1.5 -59 7 -106.5t24 -87t45.5 -61.5t71 -22q237 0 385 672q8 37 14 70.5t14.5 90t11.5 104.5t3.5 104t-8.5 99.5t-25 81t-46.5 57.5t-71.5 20q-47 0 -91.5 -28.5t-78 -72 t-65 -106t-53 -119t-41 -122.5t-29 -106t-17.5 -79q-8 -35 -15 -72t-16 -95t-13 -110.5t-5.5 -111.5z" />
<glyph unicode="1" horiz-adv-x="1126" d="M334 1128q4 20 19.5 33.5t29.5 18.5t37 10q148 35 261 88t214 145q6 5 25.5 24t35 27.5t33.5 8.5q23 0 30.5 -15t2.5 -36l-297 -1401q-3 -15 -9 -22t-12.5 -8t-21.5 -1h-102q-18 0 -23.5 1t-10.5 8.5t1 23.5l248 1165q-176 -72 -338 -106q-59 -13 -78 -13q-25 0 -38 12.5 t-7 36.5z" />
<glyph unicode="2" horiz-adv-x="1114" d="M113 29q3 10 8 18t14.5 17t11.5 12q101 102 287 295.5t266 275.5q127 138 175 202q91 124 112 228q24 108 -22 185t-152 77q-101 0 -181 -64.5t-120 -166.5q-7 -36 -28.5 -63t-53.5 -27q-56 0 -41 74q26 122 103.5 216.5t180.5 142.5t214 48q161 0 246.5 -106.5 t50.5 -270.5q-18 -84 -68.5 -170t-102.5 -147t-130 -139q-83 -82 -249 -248t-249 -248h569q26 0 32.5 -7t0.5 -32l-18 -92q-6 -26 -12.5 -32.5t-30.5 -6.5h-779q-16 0 -26.5 6.5t-7.5 22.5z" />
<glyph unicode="3" horiz-adv-x="1112" d="M156 285q8 39 40 67.5t72 28.5q31 -2 50 -30.5t31.5 -67.5t31.5 -77.5t63 -65.5t113 -27q111 0 196.5 82t110.5 192q15 72 -2 132.5t-61 102.5t-96.5 70.5t-118.5 48.5q-4 1 -12 3.5t-11 4t-9.5 4t-7.5 5t-5.5 7t-2.5 9t1 12.5q2 11 9 19t13 11.5t19 10.5q15 7 54 23 t55.5 23.5t50 23.5t49.5 27t42 29t40.5 35.5t31 40t27 48.5t16.5 56q20 93 -25 155t-137 62q-140 0 -231 -125q-1 -2 -18.5 -30t-31.5 -47.5t-35 -38.5t-38 -19q-52 0 -37 67q20 100 98.5 180.5t176.5 121t192 40.5q140 0 224.5 -88.5t54.5 -226.5q-43 -201 -295 -330 q122 -60 183 -169.5t32 -246.5q-40 -187 -188.5 -315.5t-358.5 -128.5h-12q-64 0 -130 21t-119 57.5t-80.5 92.5t-14.5 120z" />
<glyph unicode="4" horiz-adv-x="1107" d="M156 391q2 10 7.5 19.5t17 22t14.5 16.5q130 167 386 496.5t386 496.5q0 -2 -2 -2h-2q30 43 73 43q39 0 46.5 -22.5t-3.5 -59.5l-198 -930h125q27 0 32.5 -10t1.5 -33q-8 -29 -10 -41v2q-5 -23 -11.5 -29t-31.5 -6h-131l-65 -309q-5 -25 -11.5 -31t-31.5 -6h-105 q-19 0 -25.5 5t-3.5 24l68 317h-489q-44 0 -37 37zM338 471h369l149 700q-50 -64 -61 -81q-85 -117 -457 -619z" />
<glyph unicode="5" horiz-adv-x="1110" d="M184 274q8 39 37.5 67t69.5 28q27 0 39.5 -13.5t21.5 -40.5q15 -43 31 -74.5t41 -63t60.5 -48t80.5 -16.5q123 0 212 84t116 211q18 88 -5.5 164.5t-86.5 123.5t-152 47q-49 0 -126 -16t-120 -39q-36 -18 -49 -18q-30 0 -22 47q0 2 3 10.5t3 11.5q33 114 97 339.5 t97 340.5q12 49 68 49h576q26 0 34 -6.5t4 -31.5l-18 -84q-5 -27 -14.5 -38.5t-34.5 -11.5h-520q-22 -74 -65.5 -227t-67.5 -233q141 55 264 55q187 0 276 -125t49 -313q-43 -209 -195 -334t-362 -125q-48 0 -98.5 11t-99.5 34.5t-85 55.5t-53 79t-6 100z" />
<glyph unicode="6" horiz-adv-x="1105" d="M233 530q29 138 93.5 272.5t157.5 253t219.5 214t269.5 149.5q149 58 219 58q49 0 41 -43q-4 -18 -18 -29.5t-43 -21.5t-35 -13q-167 -63 -326 -189t-246 -272q-55 -90 -102 -231q174 125 338 125q83 0 145.5 -32.5t94.5 -87t43 -127t-9 -153.5q-40 -191 -180 -312.5 t-328 -121.5q-213 0 -301.5 152.5t-32.5 408.5zM403 424.5q-5 -55.5 0.5 -118t25 -109t62.5 -77t107 -30.5q111 0 188.5 80t102.5 195q15 83 3 151.5t-65.5 112t-140.5 43.5q-66 0 -124 -24t-134 -73l-8 -38q-12 -57 -17 -112.5z" />
<glyph unicode="7" horiz-adv-x="1114" d="M307 47q6 21 29 53l766 1200h-633q-23 0 -28 8t1 31l19 93q4 23 12.5 29.5t32.5 6.5h762q13 0 18.5 -0.5t14 -3t10.5 -9.5t0 -19q-3 -14 -41 -76q-233 -369 -402 -662.5t-309 -591.5q-3 -6 -9.5 -21t-9 -20.5t-9.5 -15.5t-13 -14.5t-16.5 -8t-22.5 -3.5h-143q-10 0 -16 1 t-10.5 6.5t-2.5 16.5z" />
<glyph unicode="8" horiz-adv-x="1107" d="M186 177.5q-18 70.5 0 166.5q13 58 43.5 111t57.5 86.5t88.5 79t88.5 62.5t104 62q12 7 18 11q-28 24 -48.5 44t-42.5 45t-36.5 48t-27 51.5t-18 57.5t-4.5 64t9 73q34 160 165 249t294 89q72 0 132 -19t103.5 -55.5t60.5 -97.5t1 -138q-12 -55 -37.5 -102.5t-52.5 -80 t-73 -68.5t-79 -56.5t-91 -55.5q-8 -5 -12 -7q30 -21 54 -39t50 -41t45.5 -45.5t38.5 -49.5t30.5 -55.5t18.5 -60.5t6 -68.5t-9 -75.5q-26 -119 -108.5 -210.5t-192 -137t-225.5 -45.5q-89 0 -160.5 22.5t-122 69t-68.5 117zM367 375q-25 -123 31 -203t177 -80q108 0 194 65 t110 173q6 28 6 54t-3.5 48t-12.5 43.5t-19 38.5t-25.5 35t-29.5 31.5t-33 30t-34 28.5t-35.5 28t-33.5 27q-124 -78 -166 -114q-99 -85 -126 -205zM590 1167q-22 -98 29.5 -181t140.5 -126q93 47 162 119t88 160q20 99 -26.5 162t-143.5 63q-89 0 -160.5 -53.5 t-89.5 -143.5z" />
<glyph unicode="9" horiz-adv-x="1105" d="M182 33q3 14 13 24t16.5 13t26.5 9t22 7q240 81 431 272t255 437q-99 -64 -170 -94.5t-155 -30.5q-169 0 -242.5 115.5t-36.5 287.5q40 189 177 307.5t325 118.5q96 0 166.5 -31t110 -83.5t58 -125t16.5 -152t-21 -167.5q-60 -279 -233.5 -509.5t-444.5 -356.5 q-175 -80 -271 -80q-23 0 -35 8.5t-8 30.5zM522 996.5q7 -55.5 27.5 -99t66 -70t107.5 -26.5q125 0 252 96q7 25 10 45q11 52 16 107.5t-0.5 117t-23.5 109t-59 79t-101 31.5q-109 0 -186 -81.5t-101 -194.5q-15 -58 -8 -113.5z" />
<glyph unicode=":" horiz-adv-x="600" d="M238 115q12 55 57 90t100 35t84.5 -38t18.5 -93q-10 -50 -57.5 -85.5t-98.5 -35.5q-54 0 -84 36t-20 91zM352 647q10 55 56 91t102 36q54 0 83 -38.5t17 -92.5q-10 -53 -56.5 -88t-98.5 -35q-56 0 -85.5 35.5t-17.5 91.5z" />
<glyph unicode=";" horiz-adv-x="600" d="M168 -219q3 15 36.5 47.5t68.5 73.5t42 75q4 20 -3.5 35.5t-20.5 27t-26.5 24t-20.5 32.5t-2 45q10 45 48 72t83 27q72 0 96.5 -55t9.5 -130q-32 -149 -207 -270q-39 -34 -73 -37q-17 0 -25.5 9.5t-5.5 23.5zM354 647q10 54 56 90.5t100 36.5q55 0 83.5 -38t16.5 -93 q-10 -54 -56 -88.5t-99 -34.5q-54 0 -83.5 36.5t-17.5 90.5z" />
<glyph unicode="&#x3c;" horiz-adv-x="1017" d="M133 657l14 74v-2l17 74q199 89 577 260t562 254l-15 -70v4l-14 -67q-12 -5 -35.5 -16.5t-36.5 -16.5q-154 -70 -459.5 -210.5t-459.5 -209.5q137 -80 386.5 -223t352.5 -203q-2 2 0 4l59 -30l-28 -138q-77 43 -408.5 229.5t-511.5 286.5z" />
<glyph unicode="=" horiz-adv-x="1017" d="M68 354l10 41l16 80h47h983l-26 -123q-33 2 -99 2h-931zM143 711l11 41l16 82h49h981l-26 -125q-35 2 -103 2h-928z" />
<glyph unicode="&#x3e;" horiz-adv-x="1017" d="M23 141l14 68v-4l14 67q442 203 991 459q-135 75 -399 226.5t-399 226.5l14 67v-4l14 70q82 -49 166.5 -97t183 -102.5t161.5 -88.5t183.5 -99.5t168.5 -91.5q10 -5 29.5 -17.5t29.5 -17.5l-31 -148q-15 -5 -41 -16.5t-32 -13.5q-688 -309 -996 -451q-25 -10 -71 -33z " />
<glyph unicode="?" horiz-adv-x="839" d="M311 113q12 55 55.5 93t96.5 38q56 0 86 -36.5t18 -92.5q-10 -53 -56 -89t-101 -36q-51 0 -80 36t-19 87zM319 1206q15 70 61 124.5t108 85.5t126.5 46t126.5 15q64 0 120 -18t98 -52t60 -89t3 -124q-9 -44 -26.5 -80t-46 -67t-51.5 -51t-63.5 -52t-60.5 -49 q-150 -129 -186 -311q-6 -40 -15 -76q-6 -30 -16 -38.5t-31 -8.5h-28h4q-28 0 -32.5 7.5t1.5 33.5q22 227 43 323q7 38 53 62q57 33 88 54t73 57t67 77.5t36 91.5q16 83 -17 138t-114 55q-51 0 -89.5 -19t-59.5 -47t-40.5 -61t-34 -61t-38 -47t-53.5 -19q-39 0 -56.5 30.5 t-9.5 69.5z" />
<glyph unicode="@" horiz-adv-x="1822" d="M238 181q-30 134 6 304q40 190 150.5 368.5t262.5 311.5t343 213t384 80q273 0 405.5 -159t74.5 -431q-17 -81 -57 -176t-100 -189.5t-129 -172t-153 -126t-165 -48.5q-168 0 -123 202q-93 -91 -178 -144.5t-177 -57.5q-68 0 -114.5 26t-66.5 70.5t-24.5 102.5t11.5 122 q15 70 49 147.5t86.5 153.5t114.5 137t140 98.5t157 37.5q100 0 146 -51.5t62 -153.5q15 55 54 162q21 0 63 1t64 1q-19 -45 -62 -146t-67 -157q-8 -17 -35.5 -80.5t-40.5 -94t-30.5 -80.5t-26.5 -90q-3 -22 -4 -46t13.5 -43t43.5 -19q66 0 164 90q109 101 186.5 245.5 t106.5 282.5q24 106 11 188t-49 140t-96.5 95t-130.5 54t-151 17q-173 0 -345.5 -75t-308.5 -198t-235 -285.5t-135 -332.5q-32 -150 -4 -267t104.5 -197.5t192.5 -122.5t260 -42q195 0 376 75.5t375 223.5q2 -5 19 -36l-2 4q16 -26 24 -33q-385 -318 -819 -318 q-163 0 -293 49.5t-213.5 142.5t-113.5 227zM729 489q-20 -98 12 -158.5t125 -60.5q59 0 116 29.5t101.5 77t81.5 106t60.5 116t34.5 108.5q20 95 -15 165t-125 70q-72 0 -138 -45t-114.5 -117.5t-82.5 -145t-56 -145.5z" />
<glyph unicode="A" horiz-adv-x="1232" d="M0 16q0 9 16 33q158 265 450.5 749t373.5 619q16 29 37 29h79q20 0 26.5 -4.5t10.5 -22.5q30 -169 112.5 -640t129.5 -730q2 -5 2 -13t-2 -18q-3 -18 -21 -18h-165q-19 0 -24 6t-7 25q-20 104 -90 542h-436q-104 -180 -316 -540q-10 -19 -18 -26t-27 -7h-106 q-9 0 -13.5 0.5t-8.5 4.5t-3 11zM561 690h346l-51 363q-1 6 -8.5 47.5t-9.5 66.5q-154 -256 -277 -477z" />
<glyph unicode="B" horiz-adv-x="1191" d="M150 80l274 1296q7 31 27 49q21 17 141.5 25t191.5 8q75 0 139.5 -7t134.5 -29.5t115 -59t67 -100.5q12 -35 11 -77q0 -34 -8 -73q-25 -118 -118.5 -205t-221.5 -135v2q290 -64 290 -298q0 -45 -11 -97q-16 -75 -52.5 -135.5t-82 -100t-107.5 -69t-119 -45.5t-127.5 -25 t-121 -11.5t-111.5 -2.5q-38 0 -92 1.5t-124.5 8t-86.5 16.5q-13 6 -13 28q0 15 5 36zM356 119q95 -10 168 -10q54 0 107.5 8t109.5 28t101 50.5t79.5 79.5t47.5 110q9 53 9 93q0 39 -14 70q-14 32 -33 56t-48.5 41.5t-59.5 29t-67 18t-70.5 9.5t-69.5 3q-27 0 -74 -3 t-63 -4zM504 811q14 0 39 -1t37 -1q44 0 82 3t88 11.5t91 27t79.5 46t66 73t39.5 103.5q8 33 8 61q0 13 -2 25q-6 38 -16.5 65.5t-35 47.5t-49.5 32.5t-58 20t-62 10t-61 2.5q-56 0 -138 -10z" />
<glyph unicode="C" horiz-adv-x="1232" d="M221 725q33 153 103.5 287.5t172 239t241 165t298.5 60.5q125 0 237 -44t161 -135q22 -44 22 -82q0 -13 -2 -26q-9 -41 -41.5 -67.5t-73.5 -26.5q-34 0 -53 18.5t-33 52.5q-75 183 -256 183q-88 0 -168.5 -35.5t-141 -93.5t-110 -134t-80.5 -153.5t-48 -155.5 q-13 -62 -18 -124q-3 -35 -3 -70q0 -30 2 -58q4 -66 18 -124.5t43 -111t70.5 -90.5t103 -60.5t138.5 -22.5q159 0 305 90q47 33 74 33q20 0 31.5 -15t7.5 -35q-6 -35 -70 -86q-175 -135 -422 -135q-107 0 -195 28t-150 78.5t-104 120.5t-62 154q-19 82 -20 174q0 98 23 201z " />
<glyph unicode="D" horiz-adv-x="1363" d="M143 53l279 1313q9 36 24 49q22 21 152.5 32t200.5 11q173 0 309 -49t224 -143q88 -95 118 -234q14 -62 13 -132q0 -87 -21 -187q-34 -161 -112.5 -288.5t-179.5 -208t-226 -133t-246 -74t-246 -21.5q-233 0 -270 18q-20 13 -20 36q0 5 1 11zM360 121q55 -6 107 -6 q299 0 498 154.5t262 451.5q21 99 21 182q0 165 -82 271q-124 159 -421 159q-61 0 -129 -12z" />
<glyph unicode="E" horiz-adv-x="978" d="M139 37l291 1366q5 24 16 33.5t37 9.5h717q19 0 25 -6q4 -4 4 -12q0 -6 -2 -13l-13 -61q-4 -17 -6 -23t-10 -11t-24 -5h-558l-104 -494h467q14 0 20 -1t10 -7.5t1 -19.5l-15 -64q-4 -23 -13 -30t-32 -7h-467l-118 -561h550h8.5h7.5t6 -0.5t5.5 -1t4 -2t2.5 -4t1 -5.5 t0 -7.5t-2 -10.5l-14 -63q-4 -25 -12 -31t-33 -6h-719q-23 0 -29 7q-4 4 -4 14q0 7 2 16z" />
<glyph unicode="F" horiz-adv-x="935" d="M139 33l291 1368q5 25 14.5 35t32.5 10h721q22 0 22 -18q0 -4 -1 -9l-17 -80q-4 -16 -11 -20t-26 -4h-551l-104 -494h457q25 0 30.5 -5t-0.5 -30l-12 -55q-4 -23 -14 -31t-33 -8h-457l-139 -659q-5 -19 -12 -26t-25 -7h-141q-26 0 -26 23q0 5 1 10z" />
<glyph unicode="G" horiz-adv-x="1361" d="M198 472q-1 15 -1 31q0 100 22 214q33 157 108.5 294.5t183.5 241.5t253 164t307 60q128 0 235 -41.5t169 -130.5q40 -62 40 -112q0 -13 -2 -24q-9 -42 -42 -70t-74 -28q-27 0 -45.5 13.5t-26.5 29.5t-18 45q-71 189 -281 189q-98 0 -185.5 -38t-150 -98t-112.5 -140 t-80 -159t-47 -159q-17 -78 -21 -154q-1 -23 -1 -47q0 -52 6 -103q9 -74 37.5 -136.5t73 -110t114.5 -74.5t159 -27q71 0 148.5 19.5t115.5 66.5q7 8 13 18t10 16.5t7.5 18.5t4.5 16.5t4 18.5t4 17l64 303h-279q-27 0 -32.5 9t-1.5 30q2 6 7 23.5t7 27.5l-2 -2q5 23 15 28 t34 5h444q19 0 24 -9t-1 -26l-94 -451q-13 -56 -33.5 -83.5t-75.5 -65.5q-84 -60 -200.5 -86.5t-225.5 -26.5q-135 0 -242.5 36t-177.5 102t-112 158.5t-46 206.5z" />
<glyph unicode="H" horiz-adv-x="1273" d="M140 10q-2 5 -2 11q0 8 3 18l291 1372q6 35 43 35h141q30 0 21 -31l-125 -594h602l123 584q5 24 11.5 32.5t29.5 8.5h141q23 0 23 -18q0 -6 -2 -13l-295 -1386q-3 -29 -33 -29h-141q-21 0 -25 10t2 29l137 653h-602l-139 -659q-6 -33 -39 -33h-141q-19 0 -24 10z" />
<glyph unicode="I" horiz-adv-x="464" d="M137 37l291 1368q5 23 13 32t30 9h129q24 0 30 -6q4 -4 4 -15q0 -7 -1 -16l-291 -1368q-5 -23 -13 -32t-30 -9h-135q-28 0 -28 26q0 5 1 11z" />
<glyph unicode="J" horiz-adv-x="464" d="M-322 -434q4 21 38.5 40.5t86.5 41t76 37.5q210 147 281 475l266 1251q5 20 13 27.5t26 7.5h133q26 0 32 -9q3 -4 3 -12q0 -9 -4 -22l-258 -1215q-40 -192 -150 -349.5t-293 -262.5q-115 -65 -194 -65q-28 0 -45 13q-13 10 -13 28q0 7 2 14z" />
<glyph unicode="K" horiz-adv-x="1105" d="M139 10q-3 5 -3 13t3 18l291 1368q6 37 47 37h127q23 0 26.5 -6t-1.5 -31l-131 -610q102 101 306 301t308 303q5 4 15 14t13.5 13t11.5 8t16.5 6.5t19.5 1.5h98q14 0 20 -6q4 -4 4 -10q0 -3 -1 -7q-2 -16 -27 -41q-497 -497 -573 -575q67 -127 197 -379t196 -379 q6 -10 6 -29q-5 -20 -33 -20h-184q-8 0 -14 2.5t-8.5 5.5t-7.5 10.5l-7 10.5q-178 350 -326 657q-30 53 -39 74l-153 -729q-6 -31 -39 -31h-129q-23 0 -29 10z" />
<glyph unicode="L" horiz-adv-x="935" d="M139 35l293 1374q4 23 13 30t32 7h129q25 0 30.5 -7t0.5 -30l-270 -1274h544q19 0 23 -9q2 -4 2 -11t-2 -17l-14 -65q-3 -11 -5 -17t-8.5 -11t-17.5 -5h-719q-32 0 -32 26q0 4 1 9z" />
<glyph unicode="M" horiz-adv-x="1613" d="M141 33q42 199 135 654t150 722q6 37 47 37h139q25 0 30.5 -7t10.5 -34q44 -196 211 -965q4 -17 13 -50t10 -38q27 45 55 88q100 161 300 481.5t300 481.5q19 27 30 35t36 8h145q21 0 26 -6q3 -3 3 -12q0 -7 -2 -17q-46 -215 -146 -665t-155 -713q-4 -24 -11.5 -28.5 t-33.5 -4.5h-121q-22 0 -25.5 9.5t2.5 29.5l238 1098q-133 -209 -369.5 -591t-314.5 -507q-3 -4 -9 -13.5t-9 -13.5t-9 -9.5t-13 -8t-16 -2.5q-5 0 -9 1t-7 1.5t-6 3.5t-4.5 4t-3.5 5t-2.5 5.5t-1.5 7t-1.5 7t-1.5 7.5t-1 7h4q-14 56 -19 96q-40 198 -117.5 565t-91.5 435 l-16 -93q-132 -626 -211 -1013q-6 -31 -39 -31h-88q-24 0 -30 6q-3 3 -3 12q0 7 2 17v-2z" />
<glyph unicode="N" horiz-adv-x="1404" d="M141 10q-2 4 -2 9q0 8 4 20l289 1366q7 31 17 36q9 5 22 5h131q13 0 19.5 -2.5t8 -4t4.5 -11t5 -15.5q79 -157 264.5 -510t280.5 -547l223 1049q6 26 13.5 33.5t31.5 7.5h94q18 0 23 -8q2 -4 2.5 -10.5t-2.5 -16.5l-293 -1378q-6 -33 -39 -33h-59q-22 0 -28.5 0.5t-15 7 t-16.5 21.5q-91 180 -258 506t-229 448q-58 103 -92 172l-236 -1116q-5 -22 -11.5 -30.5t-25.5 -8.5h-98q-23 0 -27 10z" />
<glyph unicode="O" horiz-adv-x="1447" d="M198 535q0 90 21 184q39 182 137 343.5t254 276.5q110 75 213 106.5t219 31.5q98 0 181.5 -27t143.5 -74.5t104.5 -114t64.5 -145.5q18 -79 22 -168q0 -12 1 -25q0 -77 -19 -157l-10 -47q-30 -141 -101.5 -274t-174 -240t-242 -171.5t-291.5 -64.5q-104 0 -190 29 t-147 80.5t-104 121.5q-42 70 -62 154q-20 86 -20 181zM419 460q4 -72 26 -134.5t59 -112.5t101 -78.5t149 -28.5q129 0 270 103q215 149 295 514q12 58 18 116q5 50 5 103v18q-1 64 -11.5 120t-35.5 107.5t-62.5 88t-96 58.5t-132.5 22q-129 0 -254 -88 q-70 -48 -124.5 -111.5t-90 -136.5t-58 -141t-39.5 -148q-14 -67 -18 -133q-2 -35 -3 -72q0 -32 2 -66z" />
<glyph unicode="P" d="M139 37l287 1341q3 24 20 41q21 17 164.5 28t210.5 11q59 0 111 -6t102.5 -19.5t89 -35.5t70.5 -54t48 -74.5t20 -96.5q1 -12 1 -25q0 -45 -12 -98q-22 -105 -79.5 -185t-130 -127t-167.5 -76t-180 -39t-180 -10q-17 0 -49 4l-123 -579q-5 -25 -11.5 -31t-29.5 -6h-129 q-24 0 -30 6q-4 4 -5 15q0 7 2 16zM492 737q12 -1 44.5 -4.5t51.5 -3.5q165 0 256 47q78 40 129 111t69 155q9 44 9 82q0 219 -310 219q-65 0 -125 -14z" />
<glyph unicode="Q" horiz-adv-x="1492" d="M197 538q2 87 22 181q33 155 106 291t177.5 240.5t247.5 165.5t303 61q108 0 197.5 -27.5t152.5 -77.5t106.5 -119.5t63.5 -153.5q19 -80 19 -170v-9q-1 -96 -23 -199q-26 -121 -82.5 -236.5t-138.5 -215t-195 -172.5t-242 -103q1 -95 64.5 -177t156 -132t199.5 -74 q3 -1 11 -2.5t11 -2.5t10.5 -3t10 -3.5t8 -4t6.5 -5.5t4.5 -7t1.5 -8.5t-1 -10.5q-7 -41 -62 -41q-19 0 -41.5 3t-38 6t-41 9t-36.5 8q-193 42 -326.5 150t-181.5 281q-98 10 -177 42.5t-134 83.5t-92 118t-53 146q-13 71 -13 148v20zM415 584q-1 -25 -1 -51q0 -45 4 -91 q7 -71 31 -133t62.5 -110t102 -75.5t144.5 -27.5q106 0 198.5 42.5t156.5 108t115.5 154t81.5 171.5t48 169q15 71 19 147q1 17 1 34q0 61 -12 128q-14 86 -49.5 152.5t-108.5 110t-176 43.5q-115 0 -231 -64q-282 -159 -367 -567q-15 -70 -19 -141z" />
<glyph unicode="R" horiz-adv-x="1105" d="M139 25l285 1341q1 3 1 8t1 8q15 76 367 76h61q98 0 175 -22.5t131 -69.5q56 -48 74 -120q9 -36 8 -78q0 -44 -9 -95q-62 -285 -442 -393q52 -126 158.5 -358.5t121.5 -266.5q11 -28 10 -35q-5 -20 -32 -20h-166q-22 0 -29 6.5t-14 26.5q-17 43 -162 389q-9 21 -25 70.5 t-28 80.5t-37 57.5t-58 26.5q-34 0 -50.5 -15.5t-22.5 -49.5l-117 -549q-5 -26 -12.5 -34.5t-30.5 -8.5h-129q-30 0 -30 18q0 3 1 7zM489 748h97q104 0 190 28t154 97.5t90 175.5q9 52 9 94q0 25 -3 47q-9 56 -50 90t-97 48.5t-136 14.5q-69 0 -129 -8z" />
<glyph unicode="S" horiz-adv-x="1064" d="M133 276q9 42 42.5 71.5t74.5 29.5q62 0 82 -58q15 -47 24.5 -72.5t28.5 -58.5t41 -49.5t58 -28.5t83 -12q104 0 190 66.5t107 169.5q7 34 7 64q1 26 -5 49q-12 49 -54 88.5t-72 58.5t-94 53q-7 4 -11 6q-37 18 -62.5 31t-58.5 32t-55.5 35.5t-48 39t-41 44.5t-29.5 50.5 t-20 58.5q-5 28 -5 60q1 2 1 6q0 36 8 77q39 181 179.5 285.5t323.5 104.5q59 0 124.5 -16t123 -45.5t89.5 -79.5q23 -36 23 -76q0 -15 -3 -31q-8 -38 -38.5 -66t-70.5 -28q-19 0 -30.5 5t-16.5 11.5t-15 22.5t-20 28q-29 76 -72.5 114t-125.5 38q-97 0 -175 -63t-98 -161 q-6 -25 -6 -49q0 -49 24 -89q36 -60 76 -83.5t121 -61.5l6 -3q44 -20 77 -37.5t69.5 -39.5t62.5 -44.5t51 -50t40 -58t25 -66.5q9 -32 8 -69v-8q-1 -42 -11 -90q-26 -122 -106.5 -216t-198.5 -145t-254 -51q-118 0 -213 47t-137 140q-25 52 -25 95q0 13 2 25z" />
<glyph unicode="T" horiz-adv-x="1024" d="M296 1328q-3 7 -3 16t4 20q12 47 12 49v-4q6 37 49 37h928q22 0 22 -23q0 -5 -1 -12l-13 -61q-6 -24 -13 -30.5t-30 -6.5h-360l-270 -1274q-6 -25 -14.5 -32t-33.5 -7h-116q-29 0 -37 6t-2 35l270 1272h-358q-28 -1 -34 15z" />
<glyph unicode="U" horiz-adv-x="1185" d="M203 430l209 977q5 24 12 31.5t29 7.5h131q26 0 32 -6t2 -31l-202 -948q-13 -55 -13 -104q-1 -15 1 -31q6 -62 30.5 -108t78 -71.5t132.5 -25.5q141 0 234 81.5t129 250.5l206 964q6 29 39 29h88q23 0 29 -8q3 -4 4 -14q0 -7 -2 -17l-209 -979q-99 -459 -592 -459 q-225 -1 -319 119q-64 80 -64 208q0 61 15 134z" />
<glyph unicode="V" horiz-adv-x="1142" d="M299 1395q-2 8 -1.5 15.5t1.5 14.5q6 21 33 21h147h12t8.5 -2t5.5 -3t3.5 -5t2 -6.5t2.5 -10t3 -12.5q59 -434 141 -985q2 -11 7.5 -38.5t7.5 -45.5q9 18 25 45.5t22 38.5q93 165 553 985q15 30 22 34q9 5 27 5h98q11 0 16 -1t9 -6q3 -3 3 -8q0 -3 -1 -8q-2 -12 -12 -28 l-787 -1364q-12 -19 -23.5 -26t-29.5 -7q-7 0 -17.5 1t-17.5 1h6q-25 0 -30.5 4t-8.5 27q-45 264 -227 1364z" />
<glyph unicode="W" horiz-adv-x="1742" d="M297 1382q-1 5 -1 11q0 12 3 26q5 27 39 27h135q10 0 16.5 -1.5t9.5 -6.5t4 -8t1 -13t2 -14q44 -663 59 -1032q7 14 15 27.5t16.5 29t13.5 23.5l514 946q22 39 30 44t52 5h-6q9 0 14.5 -1.5t8 -6t3.5 -7.5t1.5 -11.5t1.5 -12.5q21 -173 66.5 -518t66.5 -518 q7 18 22.5 47.5t18.5 34.5l467 952q13 27 21.5 34t31.5 7h92h17t12 -6q4 -4 3 -10q0 -3 -1 -7q-3 -18 -16 -41q-96 -186 -326.5 -642.5t-360.5 -706.5q-18 -35 -51 -35q-4 0 -16 1t-21 1h7q-24 0 -29 4t-8 27q-38 238 -133 919q0 3 -6 33.5t-7 50.5q-112 -189 -299 -540.5 t-248 -460.5q-11 -22 -21.5 -28.5t-29.5 -6.5q-4 0 -16 1t-21 1h7q-28 0 -35 4.5t-8 28.5q-20 265 -61.5 755.5t-49.5 593.5z" />
<glyph unicode="X" horiz-adv-x="1105" d="M18 51q99 119 296 354.5t296 354.5q-39 105 -117.5 314.5t-117.5 314.5q-11 15 -8 32q6 25 32 25h142q15 0 23 -3.5t11 -9t7 -20.5q32 -78 92.5 -233.5t91.5 -233.5q75 91 391 467q20 24 27.5 28.5t32.5 4.5h96q16 0 16 -13q0 -4 -2 -10q-3 -13 -14 -24 q-83 -102 -249 -300.5t-249 -299.5q30 -77 91 -233t108.5 -279t89.5 -236q8 -16 8 -31q-5 -20 -33 -20h-143q-26 0 -31.5 4.5t-13.5 28.5q-73 179 -227 579l-478 -571q-6 -6 -14 -16.5t-11.5 -14t-12 -7t-21.5 -3.5h-102q-14 0 -19 5q-4 4 -4 12q0 10 16 34z" />
<glyph unicode="Y" horiz-adv-x="1110" d="M299 1425q6 21 33 21h166q19 0 28 -31q37 -102 113 -301.5t113 -300.5q74 95 235 293.5t244 306.5q21 26 27 29.5t32 3.5h103q19 0 19 -13q0 -4 -1 -8q-2 -13 -20 -36q-100 -124 -299.5 -370t-300.5 -370l-132 -616q-5 -21 -11.5 -27t-24.5 -6h-144q-34 0 -28 33l133 626 q-55 143 -153 403t-124 329q-9 24 -8 34z" />
<glyph unicode="Z" horiz-adv-x="1019" d="M37 20q2 12 24 39l934 1258h-592q-23 0 -27 6t1 29l12 57q5 23 12.5 30t30.5 7h830q11 0 16 -1t9 -6q2 -3 2 -8q0 -4 -1 -8q-2 -17 -16 -34l-940 -1258h641q20 0 25 -5t1 -24l-16 -77q-3 -17 -9.5 -21t-25.5 -4h-880q-9 0 -15.5 1t-12.5 6q-4 4 -4 9q0 2 1 4z" />
<glyph unicode="[" horiz-adv-x="550" d="M86 -217l399 1882q4 23 15.5 31t36.5 8h325q29 0 25 -25q-1 -4 -2.5 -9.5t-3.5 -12.5t-4 -12v2q-2 -16 -4.5 -22t-10.5 -11.5t-24 -5.5h-201l-375 -1770h201q23 0 25.5 -7t-3.5 -30v2q-3 -23 -6 -34q-2 -13 -9.5 -18t-29.5 -5h-329l2 -2q-36 0 -27 39z" />
<glyph unicode="\" horiz-adv-x="884" d="M371 1657q0 16 2 22q2 11 20.5 19.5t41.5 14.5t26 7t11 5t13 4q6 0 9.5 -6.5t5 -17t2.5 -13.5l315 -1895q6 -11 2 -22q-1 -5 -3.5 -9t-7.5 -7t-7 -4t-10 -3.5t-9 -3.5q-7 -3 -19.5 -8l-20 -8t-18 -5.5t-19.5 -2.5q-4 0 -7.5 4t-6.5 10.5t-5 9.5z" />
<glyph unicode="]" horiz-adv-x="550" d="M-29 -229q1 6 4.5 16.5l4.5 13.5v-2q0 2 1 8t1.5 8t2 6.5t2.5 6.5t3.5 5t5.5 4t7.5 2t10.5 1h203l377 1772h-201q-23 0 -26 7.5t2 27.5v-2q1 4 2 14.5t2 15.5q8 29 28 29h344q19 0 23 -9t0 -28l-401 -1884q-6 -25 -15.5 -31t-36.5 -6h-331q-20 0 -13 25z" />
<glyph unicode="^" horiz-adv-x="1497" d="M473 715q9 15 39 53q66 92 140.5 196t163 230t140.5 199q27 36 37 51h45h86q28 -124 100.5 -364.5t100.5 -364.5q-16 2 -51 2h-107q-12 47 -14 53l-131 504q-191 -271 -391 -557h-105q-35 0 -53 -2z" />
<glyph unicode="_" horiz-adv-x="1021" d="M-106 -422l8 43l16 80h51h1008q-2 -8 -5 -22.5t-5 -20.5l-17 -80h-104h-952z" />
<glyph unicode="`" horiz-adv-x="512" d="M119 1401l10 24q24 50 61 50q41 0 78 -72q8 -10 27 -32.5t34 -41t31 -40t23.5 -39t5.5 -27.5q-9 -54 -49 -54q-21 0 -33 15l-20 18q-26 23 -76 63t-70 58q-34 26 -22 78z" />
<glyph unicode="a" horiz-adv-x="888" d="M98 144q-5 20 -5 42q0 31 9 66q8 40 26.5 75.5t40.5 64t56.5 55.5t64 46t74.5 39t76 32t81 27.5t77.5 23t76.5 20.5t68 18l23 101q8 37 11.5 64t1.5 59t-13.5 51.5t-37.5 33t-66 13.5q-120 0 -199 -129q-8 -11 -22.5 -31t-20 -27t-17 -16.5t-23 -12.5t-28.5 -3 q-37 0 -55 25t-10 61q13 63 63 112.5t115.5 76.5t129 40.5t116.5 13.5q165 1 217 -81q32 -49 32 -129q0 -53 -14 -119l-117 -549q-23 -91 -55 -125q-52 -58 -164 -82.5t-213 -24.5q-56 0 -104 9t-90.5 29t-68 52.5t-36.5 78.5zM299 281q-7 -31 -7 -57q0 -54 30 -88 q44 -50 139 -50q86 0 131 31.5t63 115.5l68 322q-17 -5 -64 -18t-75 -22.5t-72.5 -26t-74 -35t-60.5 -43t-50.5 -57.5t-27.5 -72z" />
<glyph unicode="b" d="M152 123q2 -2 2 -4q-5 14 -5 36q0 33 11 85l274 1284q4 19 6.5 26.5t12 12t28.5 4.5h99q32 0 38 -6.5t0 -36.5l-122 -574q99 71 178 103t172 32q80 0 139 -30t91.5 -79t47.5 -115q13 -58 13 -119v-16q-2 -69 -17 -142q-62 -288 -234 -448.5t-423 -160.5q-57 0 -119.5 14 t-120 49.5t-71.5 84.5zM358 299q-8 -36 -8 -66q0 -135 164 -135q69 0 131 26t107 68.5t81.5 99t59 115t35.5 119.5q12 57 16 111q1 18 1 36q0 37 -5 75q-8 58 -29.5 100.5t-67 70t-110.5 27.5q-123 0 -262 -115z" />
<glyph unicode="c" horiz-adv-x="933" d="M153 362q1 75 17 154q24 111 71 209.5t117 181t171 130.5t219 48q42 0 87 -11t86.5 -33.5t72.5 -52.5q30 -32 44 -74q8 -25 8 -51q0 -19 -4 -38q-8 -36 -37 -61t-65 -25q-32 0 -50.5 23.5t-29 57t-24.5 67t-49 57t-91 23.5q-55 0 -105.5 -25.5t-88.5 -66t-69.5 -92 t-51 -101t-29.5 -96.5q-12 -58 -15 -117q-1 -14 -1 -27q0 -46 8 -92q10 -60 34 -106.5t71.5 -75.5t113.5 -29q58 0 110 23t87 55.5t63.5 64.5t51.5 55t38 23q37 0 37 -34q0 -8 -2 -17q-14 -61 -67 -131q-155 -203 -389 -203h-7q-88 0 -154 32t-103.5 85t-56.5 124 q-18 67 -18 139v7z" />
<glyph unicode="d" d="M168 498q19 88 56 172t93.5 159.5t125 132t155.5 90t180 33.5q122 0 205 -67l109 510q9 39 47 39h104q23 -1 32 -7q5 -4 5 -13q0 -6 -2 -15l-281 -1329q-12 -60 -49 -99q-65 -66 -184 -97.5t-225 -31.5q-232 1 -327 143q-62 93 -62 225q0 72 18 155zM348 426v-21 q0 -51 10 -100q12 -59 40.5 -103t81.5 -71t126 -27q96 0 146.5 35.5t70.5 126.5l135 635q-72 78 -180 78q-79 0 -151.5 -40.5t-124 -105t-87 -137.5t-50.5 -145q-15 -63 -17 -125z" />
<glyph unicode="e" horiz-adv-x="976" d="M152 366q2 78 20 162q24 113 71.5 210.5t117.5 176.5t170 124.5t219 45.5q123 0 201.5 -58.5t101.5 -170.5q9 -46 9 -83q0 -28 -5 -52q-11 -57 -74 -66q-110 -16 -645 -92q-7 -57 -9 -115q0 -7 -1 -15q0 -51 14 -99q14 -55 39 -98t72 -69t110 -26q97 0 177.5 51.5 t160.5 147.5q3 3 11.5 15.5t12 15.5t12.5 7.5t21 4.5q31 0 31 -31q0 -9 -2 -20q-6 -24 -24.5 -60.5t-36.5 -60.5q-165 -236 -428 -236q-93 0 -162.5 31.5t-108.5 84.5t-57 125q-17 67 -18 138v12zM360 662q88 14 254.5 39t247.5 38q2 18 2 35q0 70 -36 125q-46 68 -136 68 q-64 0 -119 -25t-95 -69t-69 -96t-49 -115z" />
<glyph unicode="f" horiz-adv-x="548" d="M176 13q-1 5 -1 12q0 9 3 20l197 924h-129q-17 0 -21 8t-2 24q4 11 8 29v-4q4 23 12 29t29 6h123q18 71 40.5 135.5t60.5 137t82.5 124.5t109 86.5t137.5 34.5q39 0 61 -20q15 -15 15 -40q0 -9 -2 -20q-7 -34 -34 -53t-64 -19q-7 0 -21.5 1.5t-21.5 1.5q-40 0 -72 -21 t-52 -56t-31.5 -68.5t-18.5 -70.5q-9 -39 -11.5 -54.5t-3.5 -44t6 -54.5h183q17 0 21 -10t-1 -27l-8 -35l2 4q-1 -5 -2.5 -8.5t-2.5 -6.5t-3.5 -4.5t-3.5 -2.5t-5 -1.5t-5 -0.5h-7h-8h-176l-197 -926q-5 -25 -15 -34t-36 -9h-110q-21 0 -25 13z" />
<glyph unicode="g" horiz-adv-x="948" d="M16 -350l4 18l21 17q6 6 25 10q34 -3 103.5 -28t121.5 -25q164 0 272 85t144 255l18 88q-31 -13 -95.5 -45.5t-109 -47t-96.5 -14.5q-97 0 -165 43t-98 114t-37 162q-2 22 -2 45q0 70 17 142q25 118 82.5 229t138.5 199t189 141.5t225 53.5q30 0 69.5 -6t86 -20.5t83 -35 t57.5 -54.5q14 -23 14 -49q0 -12 -3 -24l-202 -952q-28 -133 -125 -236t-220.5 -153.5t-248.5 -50.5q-93 0 -179 38q-51 24 -74 45q-18 17 -18 41q0 7 2 15zM313 366q0 -66 17 -124q17 -60 64.5 -95.5t121.5 -35.5q49 0 138.5 26t97.5 62l141 659q2 10 2 19q0 21 -10 39 q-14 25 -42 37.5t-56.5 18t-57.5 5.5q-64 0 -123 -30t-102.5 -78t-79.5 -110.5t-58.5 -123.5t-35.5 -121q-17 -78 -17 -148z" />
<glyph unicode="h" horiz-adv-x="1064" d="M126 10q-2 5 -2 12q0 9 3 21l315 1485q9 39 45 39h119q30 0 21 -35l-121 -578q158 131 344 131q158 -1 222 -91q42 -60 41 -147q0 -46 -11 -99l-150 -707q-4 -15 -6.5 -21.5t-11 -13t-23.5 -6.5h-110q-27 0 -33 5.5t0 33.5l139 661q9 43 9 82t-12 80.5t-49.5 66.5 t-98.5 25q-130 0 -275 -114l-168 -791q-5 -20 -8 -27.5t-12.5 -14.5t-26.5 -7h-110q-25 0 -30 10z" />
<glyph unicode="i" horiz-adv-x="421" d="M123 29l213 999q4 20 13 26.5t30 6.5h108q25 0 30.5 -7t0.5 -32l-209 -983q-6 -25 -13.5 -32t-29.5 -7h-121q-17 0 -21 6q-2 3 -2 10q0 5 1 13zM387 1350q9 47 47.5 78.5t85.5 31.5q51 0 73 -32q15 -22 15 -52q0 -16 -4 -33q-9 -43 -47.5 -72.5t-83.5 -29.5 q-48 -1 -72 29q-17 21 -17 52q0 13 3 28z" />
<glyph unicode="j" horiz-adv-x="421" d="M-238 -449q1 6 3.5 12t5 10t7 8t7 6.5t9 6t9 5t10 5.5t9.5 5q55 32 100.5 72t78.5 87.5t58 93.5t44 103t31 102.5t24 104.5l180 844q5 24 14 34.5t33 10.5h115q22 0 26.5 -9t-2.5 -34l-157 -748q-93 -425 -338 -632q-45 -39 -116.5 -81t-113.5 -42q-20 0 -31 9 q-7 7 -7 18q0 4 1 9zM393 1348q11 48 48.5 80t84.5 32q49 0 73 -31q16 -21 16 -51q0 -14 -3 -30q-9 -46 -47.5 -76.5t-83.5 -30.5q-47 0 -72 30q-18 22 -18 53q0 12 2 24z" />
<glyph unicode="k" horiz-adv-x="933" d="M121 27l321 1513q6 27 33 27h131q27 0 21 -29l-203 -956q84 74 247 219t247 219q6 5 15 13.5t12 11t9.5 7t11.5 6t13 2.5t18 1h95q11 0 19 -7q6 -5 6 -12q0 -3 -1 -6q-2 -17 -29 -37q-443 -400 -460 -415q29 -47 317 -531q12 -18 12 -33q-6 -20 -28 -20h-146 q-24 0 -32.5 5t-20.5 26q-51 86 -155.5 260t-155.5 260l-113 -526q-3 -17 -10 -21t-27 -4h-121q-19 0 -24 4q-3 3 -3 11q0 5 1 12z" />
<glyph unicode="l" horiz-adv-x="421" d="M125 37l319 1497q3 15 9.5 22.5t13.5 9t22 1.5h107q24 -1 30 -7q3 -3 4 -10q0 -7 -3 -18l-318 -1495q-3 -21 -11 -29t-30 -8h-114q-22 0 -28 7q-3 4 -3 12q0 7 2 18z" />
<glyph unicode="m" horiz-adv-x="1574" d="M126 7q-3 3 -2 11q0 8 3 21l174 819q1 4 3.5 18t3.5 17.5t3.5 14.5t4.5 14.5t6 13t8 14.5t9.5 13t13 15t16.5 15q45 44 162 68t196 24q102 0 171 -27t106 -97q81 70 163 97t187 27q166 -1 232 -75q44 -50 43 -136q0 -44 -11 -96l-156 -739q-5 -22 -14 -30.5t-31 -8.5 h-108q-24 0 -29 6.5t0 32.5l139 661q8 37 12 65.5t5 62t-8 57t-25 43.5t-47 30.5t-74 10.5q-92 0 -155 -51.5t-87 -163.5l-151 -715q-5 -22 -12.5 -30.5t-30.5 -8.5h-115q-35 0 -29 35l150 706q11 40 11 77q-1 7 -1 14q-2 43 -16.5 74.5t-50.5 50t-90 18.5 q-82 0 -151.5 -46.5t-88.5 -137.5q-2 -8 -4 -20.5t-2 -14.5l-152 -717q-6 -25 -15 -32t-32 -7h-104q-24 0 -30 7z" />
<glyph unicode="n" horiz-adv-x="1064" d="M127 39l174 821q6 31 10.5 46.5t18.5 37t37 39.5q64 51 192 76.5t227 25.5q39 0 72.5 -3t68.5 -9.5t62 -19t51.5 -30t40.5 -44t25 -59.5q8 -30 8 -69v-9q-1 -44 -12 -97l-150 -704q-5 -20 -13.5 -30.5t-27.5 -10.5h-106q-26 0 -33.5 6t-3.5 31l147 688q12 48 12 85 q0 12 -1 22q-5 44 -18 73t-42 45.5t-61 22.5t-76 6q-221 0 -260 -186l-160 -752q-5 -24 -13.5 -32.5t-31.5 -8.5h-112q-18 0 -24 10q-3 5 -3 12t2 17z" />
<glyph unicode="o" d="M174 530q22 103 75 201.5t128 177.5t176.5 127.5t210.5 48.5q74 0 134.5 -23t101.5 -64t69.5 -95.5t40.5 -117.5q11 -58 11 -121v-10q-1 -68 -15 -136q-22 -102 -73.5 -198t-125.5 -173.5t-173 -124.5t-206 -47q-91 0 -162 31t-114 84q-42 53 -68 124q-25 70 -26 148 q0 80 16 168zM357 446q-1 -20 -2 -41q-1 -39 5 -80q8 -63 29.5 -112t66 -81t107.5 -32q72 0 134 41t103.5 106.5t68 131.5t40.5 131l11 41q10 49 12 104v13q0 48 -10 98q-11 56 -34 101t-65.5 73.5t-99.5 28.5q-59 0 -112.5 -28t-91 -70.5t-68.5 -99t-49 -109t-29 -103.5 q-12 -55 -16 -113z" />
<glyph unicode="p" d="M23 -444l264 1235q0 3 3 18.5t4 21t4 20t5 22t6.5 20.5t9 21t10.5 18t13 18q53 65 183.5 100t226.5 35q230 0 324 -137q62 -89 62 -218q0 -70 -18 -152q-17 -85 -53.5 -170t-92 -163t-123.5 -138t-154.5 -96t-178.5 -36q-63 0 -109 17.5t-96 56.5l-106 -495 q-6 -35 -41 -35h-111q-21 0 -29 7q-4 5 -4 16q0 6 1 14zM338 170q91 -68 192 -68q65 0 124 28.5t102.5 74t78.5 104.5t57 117t34 115q13 63 15 123v16q0 52 -11 100q-13 57 -41.5 99.5t-81 68t-123.5 25.5q-100 0 -146.5 -42t-68.5 -143z" />
<glyph unicode="q" d="M146 328q2 70 14 143q25 117 82 225t138.5 196t194 140.5t236.5 52.5q49 0 96 -7.5t91.5 -26.5t75.5 -46.5t44 -71.5q8 -23 8 -50q0 -23 -6 -49l-272 -1278q-4 -19 -10 -27t-12.5 -9t-26.5 -1h-99h-15t-10.5 1t-9.5 3t-4 6t-2 10.5t3 16.5l116 542q-83 -63 -157.5 -93 t-157.5 -30q-80 0 -141.5 28.5t-97.5 77.5t-58 113q-20 60 -20 125v9zM343 411v-18q0 -44 8 -89q10 -53 33 -94t67 -67t104 -26q129 0 250 106l113 535q7 33 10 53t4 49v6q0 25 -8 40q-8 17 -24.5 34t-48.5 25t-77 8q-66 0 -126.5 -28t-106.5 -74t-84.5 -106.5t-63 -123 t-37.5 -125.5q-11 -52 -13 -105z" />
<glyph unicode="r" horiz-adv-x="675" d="M125 37l182 854q5 27 8.5 39t14.5 31t28 34q50 41 171.5 65.5t201.5 24.5q34 0 64 -4t63.5 -15.5t49.5 -36.5q10 -16 10 -38q0 -11 -3 -24q-8 -36 -36.5 -62t-63.5 -26q-27 0 -46 17t-30 37t-38.5 37t-69.5 17q-67 0 -101 -38.5t-47 -108.5l-172 -803q-6 -37 -37 -37 h-110q-27 0 -35 6q-5 4 -5 16q0 7 1 15z" />
<glyph unicode="s" horiz-adv-x="849" d="M109 201q8 39 39.5 68t70.5 30q30 2 48 -18.5t29.5 -51t26.5 -61.5t48.5 -52.5t85.5 -21.5q70 0 123.5 41.5t68.5 112.5q4 21 4 40q-1 20 -5 38q-10 35 -33.5 59t-57 46.5t-71 40t-74.5 40.5t-69 47t-54.5 59.5t-29.5 78.5q-3 16 -3 34q0 31 8 70q28 133 138 208.5 t245 75.5q194 0 258 -108q26 -40 26 -76q0 -8 -1 -16q-6 -36 -33 -60.5t-63 -25.5q-32 -2 -50 16.5t-27 45.5t-20 54t-38.5 46.5t-73.5 19.5q-67 0 -119.5 -41.5t-65.5 -108.5q-4 -18 -5 -36q1 -19 7 -37q10 -34 34.5 -56.5t58 -44t71.5 -39t76 -40t70 -47t54 -60.5t30 -81 q3 -16 3 -35q0 -32 -8 -72q-22 -101 -83.5 -172t-145 -103.5t-184.5 -32.5q-87 0 -151.5 21.5t-112.5 77.5q-47 50 -47 105q0 11 2 22z" />
<glyph unicode="t" horiz-adv-x="548" d="M201 268l149 703h-108q-21 0 -26 7t-3 23q2 5 10 33v-2q3 19 11.5 24t27.5 5h109q4 24 10 56.5t8 45.5q8 34 17.5 51t31.5 37q1 1 16.5 14t35 28t41 31.5t39.5 27t26 10.5q23 0 8 -53l-51 -248h180q28 0 28 -19q0 -4 -1 -8l-10 -35v2q-3 -19 -9 -24.5t-24 -5.5h-185 l-147 -699q-7 -32 -7 -59q0 -41 15 -73q25 -54 103 -54q7 0 26 1t27 1q33 0 33 -29q0 -6 -2 -14q-6 -34 -65.5 -49.5t-106.5 -15.5q-218 0 -218 192q0 43 11 96z" />
<glyph unicode="u" horiz-adv-x="1019" d="M164 138q-7 29 -8 66q0 38 8 83l158 735q4 24 14 31.5t35 7.5h102q26 0 33.5 -6t3.5 -31l-145 -680q-11 -51 -12 -90v-8q0 -34 8 -58q9 -27 24 -44.5t40 -27.5t52 -14t64 -4q119 0 175 49t81 168l149 701q9 45 51 45h93q26 0 35 -8q5 -5 5 -16q0 -7 -2 -17l-165 -784 q-23 -99 -60 -140q-42 -45 -127 -74t-156 -38t-135 -9q-84 0 -147 15.5t-111.5 51.5t-62.5 96z" />
<glyph unicode="v" horiz-adv-x="886" d="M217 1008q-2 7 -1.5 14t1.5 14q6 25 33 25h129q17 0 23.5 -8t9.5 -27q4 -30 48 -322.5t64 -447.5q60 115 131.5 244.5t160.5 286t138 245.5q1 1 2.5 4.5t2.5 5l3 4.5t3.5 4t3.5 3.5t4 3.5t5 2t6 1.5t7 0.5h92h3q9 0 14 -0.5t9 -5.5q2 -3 2 -7q0 -3 -1 -8q0 -5 -7.5 -18 t-8.5 -16q-105 -194 -317.5 -553.5t-248.5 -421.5q-14 -25 -22 -28q-6 -3 -19 -3h-67q-25 0 -29 3.5t-10 29.5q-26 164 -82 487.5t-82 487.5z" />
<glyph unicode="w" horiz-adv-x="1310" d="M215 999q-1 6 -1 12q0 12 3 25q6 25 35 25h113q24 0 30 -7t8 -34q7 -74 20 -236t24.5 -282.5t25.5 -229.5h-2q22 43 33 62q75 152 309 612q9 19 19 43t15 34t11.5 20.5t14 14t18.5 3.5q14 0 22 -1t11.5 -3.5t4.5 -6.5t1 -10v-14q10 -100 33 -360.5t38 -403.5 q53 114 115 239t141 282t119 237q13 27 21 34t33 7h75q14 -1 23 -5q7 -3 7 -10q0 -3 -1 -6q-2 -16 -18 -41q-86 -165 -256.5 -487t-253.5 -481q-1 -2 -3.5 -6.5t-3.5 -6t-3 -5t-3.5 -5t-4 -3.5t-5.5 -3t-6.5 -1.5t-7.5 -0.5h-70q-25 0 -30.5 4t-6.5 27q-3 36 -29.5 278 t-33.5 369q-6 -14 -18.5 -33.5t-14.5 -23.5q-97 -181 -305 -590q-12 -23 -18 -27t-29 -4h-58q-20 0 -26.5 5.5t-7.5 25.5q-47 407 -107 968z" />
<glyph unicode="x" horiz-adv-x="849" d="M0 18q1 1 2 3.5t3 7t5 8.5v-2q33 42 228 260t206 233q-70 186 -182 476q-3 1 -5 6.5t-4 14t-3 11.5q3 11 15 18t24 7h127q20 0 25.5 -5t11.5 -23q1 -3 2 -5q29 -66 77.5 -188.5t59.5 -149.5q11 12 107.5 129.5t154.5 179.5t76 62h88q13 0 20 -4q6 -4 6 -12q0 -3 -2 -9 q-2 -3 -4.5 -7t-3.5 -7q-206 -238 -389 -457q34 -86 100.5 -257t100.5 -257q1 -5 4.5 -12t5 -13t0.5 -12q-3 -14 -25 -14h-155q-11 0 -17.5 5.5t-8.5 10.5t-5 15q-105 263 -145 370q-58 -66 -166.5 -189t-159.5 -181q-4 -4 -9.5 -10.5t-7.5 -8.5t-6 -5.5t-7.5 -4t-9 -1.5 t-13.5 -1h-96q-25 0 -25 18z" />
<glyph unicode="y" horiz-adv-x="931" d="M-86 -391q7 38 38 63t68 25q20 0 52.5 -9.5t52.5 -9.5q36 0 73.5 23t65.5 53t61.5 80.5t51.5 82.5t45 83q-9 38 -105 570q-84 464 -86 464q3 13 14.5 20t24.5 7h127q10 0 16 -1t9.5 -2t5.5 -5t2.5 -6.5t1.5 -11.5t2 -15q25 -154 123 -782q6 11 430 782q14 28 23.5 34.5 t40.5 6.5h79q24 0 24 -15q0 -3 -1 -6q-3 -22 -18 -41q-127 -221 -358 -619.5t-302 -522.5q-35 -59 -65.5 -103t-73 -92.5t-85.5 -79t-99.5 -51t-116.5 -20.5q-25 0 -46.5 4t-42 14t-29.5 31q-5 12 -5 27q0 10 2 22z" />
<glyph unicode="z" horiz-adv-x="811" d="M45 20q2 16 21 35q605 813 661 889h-416q-26 0 -33 6.5t-2 24.5q1 7 7.5 26t9.5 31l-2 -2q6 22 14 26.5t33 4.5h612q16 0 25 -5q7 -4 7 -14q0 -4 -1 -8q-6 -23 -23 -35q-109 -148 -327.5 -443t-327.5 -443h451q19 0 23 -10t1 -31q-2 -7 -12 -47v2q-6 -27 -29 -27h-671 q-12 0 -18 5q-4 3 -4 9q0 2 1 6z" />
<glyph unicode="{" horiz-adv-x="724" d="M278.5 701.5q-0.5 13.5 8.5 52.5q2 10 12.5 14.5t26 6t20.5 3.5q18 6 34.5 16.5t29 20.5t24.5 28t20 29.5t17 34.5l13.5 34.5t11.5 39t9 37t9 39t8 35.5l53 254q11 51 27.5 96.5t48.5 96t73.5 86.5t106 59.5t142.5 23.5q35 0 41 -5t0 -30q-5 -24 -17 -35q-40 0 -74 -11 t-57.5 -26.5t-43.5 -43t-31.5 -49.5t-23 -57t-16.5 -54.5t-12 -53.5l-61 -292q-10 -46 -20.5 -81t-29.5 -77.5t-43 -72t-60.5 -53.5t-82.5 -34l-2 -8q50 -12 78.5 -43.5t35 -78t3 -92t-15.5 -103.5l-64 -293q0 -2 -12 -49q-33 -174 45 -216q18 -10 42 -14.5t37 -6 t20.5 -12.5t2.5 -36q-6 -27 -32 -27q-137 0 -203 46t-73.5 139t22.5 233l55 260q39 193 -37 240q-18 10 -36.5 11.5t-23.5 3t-5.5 15z" />
<glyph unicode="|" horiz-adv-x="462" d="M59 -512q3 15 17 73.5t20 90.5l365 1712q6 27 16.5 81.5t16.5 82.5h120l-434 -2042q-12 0 -32 1t-31 1h-58z" />
<glyph unicode="}" horiz-adv-x="724" d="M20 -221l5 22v13q1 6 6 7.5t30 6.5q45 12 72 23t57 33.5t50.5 60t35.5 94.5l78 367q9 46 19.5 82t29.5 78t43.5 71.5t62.5 53.5t85 34l2 8q-66 16 -96.5 65.5t-27 111.5t16.5 132l17 76l63 307q24 131 -34 177q-19 15 -44.5 21.5t-42.5 7t-27 7.5t-7 25q6 27 14 36t27 9 q55 0 99 -9t74 -23.5t51 -38t32.5 -48t16 -58t4 -63.5t-5.5 -70t-11 -71.5t-15 -72.5q-1 -2 -1 -3t-0.5 -3t-0.5 -3q-6 -28 -18 -80.5t-18 -79.5l-17 -77q-33 -167 35 -217q11 -8 27 -13t27.5 -6.5t19 -5.5t6.5 -12l-10 -43q-3 -15 -7.5 -20t-15.5 -5q-43 0 -76.5 -19.5 t-57.5 -57.5t-39.5 -79.5t-31.5 -99.5l-55 -258q-22 -109 -52.5 -183t-78.5 -129t-118 -80.5t-167 -25.5q-23 0 -28.5 5t-2.5 20z" />
<glyph unicode="~" horiz-adv-x="1507" d="M403 582q74 79 139.5 119t149.5 40q52 0 110 -22t101 -48.5t94.5 -48.5t92.5 -22q60 0 113.5 34t109.5 93q7 -20 20.5 -59t20.5 -58q-81 -74 -149.5 -113.5t-145.5 -39.5q-48 0 -102.5 22.5t-95.5 49t-95.5 49t-103.5 22.5h4q-62 0 -112.5 -35t-104.5 -98q-8 23 -46 115z " />
<glyph unicode="&#xa1;" horiz-adv-x="587" d="M143 33l2 12v-2q46 164 127 459.5t123 447.5q5 19 13 27t24 8h43q25 0 28.5 -6t-1.5 -31q-18 -119 -66 -424.5t-74 -480.5l-2 -12q-4 -19 -13 -25t-28 -6h-151q-19 0 -23.5 7t-1.5 26zM397 1329q13 58 59 92.5t103 34.5q50 0 80 -36.5t20 -86.5q-12 -55 -56 -93t-97 -38 q-56 0 -87.5 35.5t-21.5 91.5z" />
<glyph unicode="&#xa2;" horiz-adv-x="927" d="M151 376.5q2 69.5 17 141.5q16 77 46 151t76 145t103.5 126.5t133.5 95t161 51.5l31 140q3 16 9.5 20t19.5 4q34 0 40 -2.5t3 -19.5l-31 -142q70 0 143.5 -33t121 -94.5t32.5 -130.5q-8 -32 -35 -54.5t-59 -22.5q-30 0 -43.5 20t-20 50.5t-17 62t-47 58.5t-98.5 36 l-182 -854q94 0 162.5 45t132.5 137q3 4 11.5 18.5t14 21t15.5 13.5t22 7q19 0 27.5 -15.5t3.5 -36.5q-18 -86 -108.5 -180.5t-184.5 -132.5q-19 -8 -38.5 -12.5t-48.5 -8.5t-40 -6l-26 -129q-7 -30 -33 -30q-37 0 -42 6.5t3 25.5l27 127q-83 10 -144 47.5t-94.5 91.5 t-49.5 123.5t-14 139zM328 459.5q-2 -67.5 10 -134.5t50.5 -118t98.5 -68l179 836q-67 -12 -124 -51t-95.5 -95t-64 -115.5t-38.5 -121.5q-14 -65 -16 -132.5z" />
<glyph unicode="&#xa3;" horiz-adv-x="1191" />
<glyph unicode="&#xa4;" horiz-adv-x="1372" d="M166 231l184 148q-2 4 -14.5 32t-15.5 37t-12.5 36.5t-11.5 45.5t-4.5 46.5t1 59t10.5 64.5q24 109 70.5 184t113.5 144q-18 21 -38 46.5t-42.5 55.5t-35.5 46l73 61l37 31l25 -31q3 -4 37 -50t55 -67q41 26 68.5 41t72 34.5t95 28.5t108.5 9q178 0 303 -111 q22 18 70 56.5t74 60.5l36 31q26 -34 78 -94q-5 -4 -76.5 -62t-107.5 -86q18 -31 29.5 -60t20.5 -69t7.5 -90.5t-14.5 -108.5q-12 -57 -30.5 -104t-50.5 -92t-47 -63t-54 -62l118 -152q-9 -7 -51 -39t-65 -55q-26 41 -117 154q-58 -36 -95.5 -55.5t-108 -38.5t-148.5 -19 q-24 0 -46.5 2t-40 4t-36.5 8.5t-30.5 9.5t-29 13t-24.5 13t-23.5 15.5t-20.5 15t-21 16.5t-19 16q-17 -14 -58.5 -46t-71.5 -56.5t-54 -47.5q-4 6 -25 33zM426 713q-23 -111 7.5 -206t112 -152.5t197.5 -57.5q178 0 318 115.5t178 292.5q18 72 10 122q-3 33 -13.5 67.5 t-35 75t-59.5 71t-92 51t-127 20.5q-171 0 -313 -113.5t-183 -285.5z" />
<glyph unicode="&#xa5;" horiz-adv-x="1105" d="M195 481q-5 12 0 29q9 31 10 39v-4q6 35 41 35q106 2 319 2l17 77q-20 49 -27 74h-274q-21 0 -26 10t-1 31q1 8 10 39l-2 -4q6 22 13.5 27.5t27.5 5.5q72 2 211 2q-39 100 -207 545q-11 11 -8 34q7 23 33 23h166q22 0 28 -31q116 -304 224 -600q79 101 239.5 299 t239.5 299q4 5 10.5 13.5t8.5 10t5.5 5t8.5 3.5t9.5 0.5t16.5 0.5h101q26 0 20 -21q-2 -13 -20 -36q-68 -80 -142.5 -171.5t-164 -202.5t-138.5 -171q38 1 106.5 -0.5t88.5 -1.5q31 0 24 -33q-1 -8 -10 -39l2 4q-1 -4 -2 -9.5t-1.5 -8.5t-2 -7t-3 -6t-3.5 -4.5t-5 -3 t-7.5 -1.5t-10.5 -1h-264q-63 -78 -68 -84l-14 -67q59 1 167.5 -0.5t143.5 -1.5q19 0 23.5 -8t1.5 -27q-1 -7 -5 -19.5t-5 -19.5v2q-5 -28 -13 -34q-7 -5 -24 -5h-313l-93 -436q-5 -21 -11.5 -27t-24.5 -6h-144q-34 0 -28 33l92 436h-320q-21 0 -26 12z" />
<glyph unicode="&#xa6;" horiz-adv-x="462" d="M88 -385q3 17 16 68l136 639q2 12 6 34l6 33h121l-166 -776q-20 2 -62 2h-57zM301 625q16 66 16 67l138 641q11 65 12 68h121l-166 -778q-23 2 -64 2h-57z" />
<glyph unicode="&#xa7;" horiz-adv-x="927" d="M115 10q8 40 39.5 71.5t70.5 31.5q20 0 33.5 -5t22 -18.5t12.5 -21.5t10 -30t8 -28q-2 2 -2 4q9 -38 18.5 -63t27 -51t46 -39t68.5 -13q72 0 123.5 45.5t66.5 116.5q14 64 -8.5 113.5t-68.5 81.5t-103.5 60.5t-115 59.5t-102 69.5t-65 99.5t-3.5 141q11 52 36 96.5 t64 82.5t77.5 66.5t92.5 61.5q-46 61 -63 114t-1 126q30 138 138.5 216.5t248.5 78.5q41 0 83 -9.5t82.5 -30t69.5 -49t42.5 -70.5t3.5 -91q-8 -36 -36 -62t-64 -26q-34 0 -52 23.5t-26.5 56.5t-19 66.5t-38 57t-75.5 23.5q-70 0 -120.5 -44.5t-64.5 -113.5 q-14 -63 6.5 -111t62.5 -77.5t95.5 -55t106.5 -52.5t94.5 -61t60 -88.5t2.5 -127.5q-18 -86 -90 -171t-161 -138q127 -105 92 -275q-30 -144 -145.5 -234.5t-260.5 -90.5q-230 0 -301 161q-30 73 -18 123zM358 676q-10 -45 3.5 -84t40 -66t67 -52t75.5 -39.5t75 -31.5 t57 -26q144 107 166 213q8 39 -2 72.5t-28.5 56t-53 44.5t-59 33.5t-63.5 27.5q-5 2 -8 3.5t-7.5 3t-8.5 3.5q-46 18 -88 53q-61 -40 -108 -96.5t-58 -114.5z" />
<glyph unicode="&#xa8;" horiz-adv-x="512" d="M86 1360q9 49 50 82t89 33q49 0 74 -31.5t14 -79.5q-11 -50 -47.5 -83.5t-85.5 -33.5q-50 0 -77 31.5t-17 81.5zM451 1360q9 49 48 82t87 33q50 0 76 -31t16 -80q-11 -49 -49 -83t-86 -34q-51 0 -76.5 31t-15.5 82z" />
<glyph unicode="&#xa9;" horiz-adv-x="1701" d="M276 723q42 201 174 368t319 263t386 96q124 0 229 -36.5t179.5 -102t123 -157t58.5 -201.5t-14 -236q-42 -199 -176 -365.5t-322 -261t-387 -94.5t-345 95.5t-207 263t-18 368.5zM340 723q-39 -182 15.5 -335t188.5 -242t316 -89q183 0 355 89t292.5 242.5t159.5 336.5 q21 112 11.5 210.5t-54.5 181.5t-112.5 142.5t-162 93t-204.5 33.5q-136 0 -270 -52t-242 -140t-186 -211t-107 -260zM541 721q29 134 114 244.5t207 173.5t256 63q115 0 197.5 -46.5t150.5 -143.5q-78 -57 -108 -82q-43 79 -105.5 116t-158.5 37q-154 0 -277 -103.5 t-155 -256.5q-32 -149 47.5 -251.5t230.5 -102.5q97 0 174.5 36t153.5 115q24 -24 78 -74q-200 -194 -437 -194q-196 0 -303 134.5t-65 334.5z" />
<glyph unicode="&#xaa;" horiz-adv-x="538" d="M223 948q6 31 22 57.5t35 46.5t49 38.5t54 30t61.5 24.5t60 19.5t60.5 17t53 14.5l17 82q10 47 -4.5 77.5t-61.5 30.5q-39 0 -67 -21t-42 -45.5t-34.5 -45.5t-46.5 -21q-24 0 -34.5 16.5t-4.5 41.5q8 39 38 69.5t70 47.5t78.5 25.5t71.5 8.5q103 0 138.5 -47.5 t13.5 -148.5l-72 -340q-35 -154 -275 -154q-43 0 -78.5 9.5t-62.5 29.5t-38 55t-1 82zM350 965q-12 -56 15.5 -86.5t83.5 -30.5q51 0 77.5 19.5t36.5 68.5l41 192q-9 -3 -39.5 -11.5t-46 -14t-43 -15.5t-44 -21t-35.5 -25.5t-30 -33.5t-16 -42z" />
<glyph unicode="&#xab;" horiz-adv-x="747" d="M172 598q1 9 7 17t9.5 11t16 11.5t14.5 9.5q102 77 258 244q7 13 24 28t34 19q14 0 22 -9.5t4 -25.5q-5 -25 -53 -85t-96.5 -123t-55.5 -95q-7 -29 2 -55q2 -22 41.5 -125t32.5 -137q-9 -33 -39 -33q-10 0 -18 8t-16 24.5t-9 18.5v-2q-16 28 -43.5 84.5t-52 95.5 t-57.5 72q-30 25 -25 47zM477 598q3 15 42.5 49.5t96.5 80t84 75.5q10 10 42.5 50t56.5 61.5t41 21.5q13 0 20 -10.5t4 -22.5q-6 -26 -103 -147.5t-104 -155.5q-6 -31 39.5 -162t40.5 -155q-3 -12 -15.5 -22.5t-25.5 -10.5q-24 0 -37 35q-65 166 -172 278q-14 19 -10 35z " />
<glyph unicode="&#xac;" horiz-adv-x="1380" d="M106 535l13 61v-4l14 63h119h1274l-142 -661q-12 0 -32 1t-31 1h4q-40 0 -63 -2l114 541h-1270z" />
<glyph unicode="&#xad;" horiz-adv-x="641" d="M229 504q-5 8 0 28l17 76q6 33 41 33h338q20 0 24.5 -6t1.5 -25l-18 -86q-6 -28 -35 -28h-344q-20 0 -25 8z" />
<glyph unicode="&#xae;" horiz-adv-x="1701" d="M263.5 493.5q-10.5 108.5 12.5 229.5q41 197 173 364.5t320 265t386 97.5q204 0 351.5 -96t207.5 -264t17 -373q-42 -199 -176 -365.5t-322 -261t-387 -94.5q-119 0 -222.5 37t-177 103.5t-123 157.5t-60 199.5zM340 723q-39 -182 15.5 -335t188 -242t314.5 -89 q139 0 274 52.5t243 142t186 213.5t108 262q31 138 2 258.5t-98.5 209.5t-182.5 140t-249 51q-180 0 -350.5 -88.5t-291.5 -241t-159 -333.5zM610 266l15 66l180 852q184 -4 272 -4q35 0 53 2q30 0 57 -2.5t58.5 -8.5t55 -17t47.5 -28t35 -41t17 -56.5t-5 -74.5 q-20 -90 -88 -147.5t-160 -71.5q47 -18 72 -49t30 -67t3 -82.5t-8 -89.5t-4.5 -93t15.5 -88q-8 0 -26.5 1t-26.5 1h-49q-8 0 -26 -1t-27 -1q-12 71 -7 134.5t6 117t-7 92.5t-47 60.5t-113 21.5h-96l-91 -426q-14 2 -47 2h-41q-33 0 -47 -2zM862 803h185q179 0 208 141 q7 20 4.5 36.5t-4 29.5t-11.5 22.5t-18 16.5t-22.5 12t-26 7.5t-29 4t-30.5 2t-31 0.5h-57q-20 0 -55 1t-55 1z" />
<glyph unicode="&#xaf;" horiz-adv-x="512" d="M96 1327l13 59q6 23 14 29t31 6h485q23 0 27.5 -7t-0.5 -30l-13 -55q-6 -28 -12 -32.5t-31 -4.5h-491q-29 0 -23 35z" />
<glyph unicode="&#xb0;" horiz-adv-x="722" d="M322 1231q26 124 132.5 212.5t229.5 88.5q124 0 194 -89t44 -212q-26 -124 -133 -211.5t-232 -87.5q-123 0 -192 87.5t-43 211.5zM444 1231q-15 -72 26.5 -124t113.5 -52q73 0 134.5 51.5t76.5 124.5q15 74 -24 125t-112 51t-136.5 -51.5t-78.5 -124.5z" />
<glyph unicode="&#xb1;" horiz-adv-x="1017" d="M59 0l9 41l16 80h47h850l-25 -121h-94h-803zM207 698l8 41l18 80h392l82 389h41h79l-82 -389h385l-26 -123q-18 2 -51 2h-334l-82 -389h-41h-80l82 389h-391z" />
<glyph unicode="&#xb2;" horiz-adv-x="673" d="M178 563q2 12 21 31l342 348q69 69 115 131.5t59 128.5q14 63 -14 110.5t-91 47.5q-66 0 -109 -40.5t-79 -113.5q-23 -45 -51 -45q-19 0 -25.5 15.5t-3.5 35.5q23 107 115 180.5t198 73.5q105 0 158.5 -65t30.5 -170q-11 -51 -44 -105t-61.5 -86t-83.5 -88l-299 -299h344 q18 0 24 -5t3 -21l-12 -56q-5 -18 -11 -24t-24 -6h-475q-13 0 -21.5 5t-5.5 17z" />
<glyph unicode="&#xb3;" horiz-adv-x="673" d="M199 707q5 25 24 43t45 18q18 0 29.5 -12.5t17.5 -30.5t15.5 -40t21 -40t36.5 -30.5t61 -12.5q64 0 118 49.5t68 114.5q20 92 -26 142.5t-140 78.5q-2 1 -9.5 3.5t-11 4t-8 5t-6 8.5t-0.5 12q4 13 27 27q41 13 71.5 26.5t66 35.5t59 54t32.5 72q11 56 -17.5 92.5 t-84.5 36.5q-50 0 -88 -25.5t-56 -55.5t-38 -55.5t-37 -25.5q-33 0 -25 45q22 102 111 159.5t182 57.5q90 0 143.5 -55t34.5 -145q-16 -67 -61.5 -113.5t-120.5 -91.5q75 -37 112 -105t19 -153q-28 -128 -124 -205.5t-226 -77.5q-85 0 -159 52.5t-56 136.5z" />
<glyph unicode="&#xb4;" horiz-adv-x="512" d="M315 1214q3 14 15 30.5t33.5 35.5t40 33.5t46.5 36t42 32.5q10 8 42.5 37.5t52.5 43.5t34 14q28 0 38 -23.5t5 -52.5q-6 -29 -36 -58.5t-60 -48.5t-83.5 -49t-74.5 -43l-29 -18q-18 -15 -37 -15q-41 0 -29 45z" />
<glyph unicode="&#xb6;" horiz-adv-x="1370" d="M410 1044q40 186 183 294t347 108h449l-21 -94q-14 2 -35 2h-28l-359 -1688q-16 2 -47 2h4q-33 0 -49 -2l358 1688h-319l-358 -1688q-18 2 -50 2h4q-33 0 -47 -2l213 1008q-155 19 -216 120.5t-29 249.5z" />
<glyph unicode="&#xb7;" horiz-adv-x="509" d="M242 555q12 55 55.5 91t99.5 36q55 0 82.5 -38t16.5 -93q-12 -53 -57 -87t-97 -34q-54 0 -82.5 35.5t-17.5 89.5z" />
<glyph unicode="&#xb8;" horiz-adv-x="512" d="M-229 -379q3 12 13.5 21.5t22.5 9.5q13 0 56.5 -10.5t68.5 -10.5q48 0 87 21.5t49 68.5q8 38 -10.5 54t-45 15.5t-47 6.5t-16.5 27l2 6q5 23 25 82.5t26 87.5h96q-7 -15 -29 -63.5t-32 -75.5q33 0 61.5 -7t53 -22t34.5 -43t2 -65q-17 -80 -93.5 -127.5t-155.5 -47.5 q-17 0 -43 3t-58 10.5t-51.5 22.5t-15.5 36z" />
<glyph unicode="&#xb9;" horiz-adv-x="673" d="M303 1231q5 28 41 37q4 1 11 3l5 1q64 18 84.5 24.5t65 24.5t76 40t65.5 54q5 4 14 12t14.5 12.5t15.5 9.5t22 7q27 0 18 -39l-182 -852q-3 -18 -8 -22t-25 -4h-57q-19 0 -23.5 4.5t-1.5 21.5l150 703q-19 -6 -61.5 -22t-68.5 -25t-61.5 -17t-62.5 -8q-14 0 -24 11t-7 24 z" />
<glyph unicode="&#xba;" horiz-adv-x="669" d="M274.5 992.5q-7.5 62.5 8.5 127.5q30 138 130 241t234 103q54 0 97 -20t69 -54t42.5 -79t16 -95t-9.5 -102q-28 -135 -128.5 -237.5t-231.5 -102.5q-71 0 -122 29.5t-74.5 78t-31 111zM399.5 1047q-0.5 -45 9 -89t40 -72t79.5 -28q47 0 85.5 28t63 74.5t39 88t23.5 84.5 q10 35 7 78.5t-13 82.5t-39.5 65.5t-72.5 26.5q-44 0 -82 -25t-63.5 -65t-41.5 -80.5t-24 -80.5q-10 -43 -10.5 -88z" />
<glyph unicode="&#xbb;" horiz-adv-x="747" d="M106 283q5 23 103 147.5t104 155.5q6 30 -39.5 162t-40.5 155q3 12 15.5 22.5t25.5 10.5q20 0 33 -31q2 -4 17.5 -33t18.5 -35t16.5 -31t18.5 -33.5t17.5 -29t20 -32t19.5 -28.5t23 -31.5t23 -28.5q1 -2 4 -5l4 -4t2.5 -3.5t2 -3.5t1.5 -3.5t1 -4.5v-5v-6q-6 -25 -27 -37 q-145 -105 -289 -268q-2 -2 -10 -10.5t-11.5 -11.5t-11.5 -7t-16 -4q-13 0 -20.5 10.5t-4.5 22.5zM457 283q3 16 16 32q12 16 68 86.5t86 114.5t35 70q5 18 0 55q-3 9 -20 53t-29.5 79.5t-22 75t-6.5 56.5q8 31 41 31q15 0 41 -43.5t58.5 -107.5t49.5 -89q5 -6 17 -20 t20.5 -24.5t17.5 -23t13.5 -23t3.5 -17.5q-2 -7 -5 -13t-9 -11.5t-9 -8t-12 -8.5l-12 -8q-159 -116 -269 -256q-1 -2 -5.5 -7.5t-7 -7.5t-7 -6.5t-8 -6.5t-8.5 -3.5t-11 -1.5q-16 0 -22.5 10t-3.5 23z" />
<glyph unicode="&#xbc;" horiz-adv-x="1611" d="M305 1231q1 6 3.5 10.5t4.5 8t7 6.5t7 4.5t8.5 4t8.5 3t9.5 2.5t8.5 2q64 18 84.5 24.5t65 24.5t76 40t65.5 54q5 4 14 12t14.5 12.5t15.5 9.5t22 7q27 0 18 -39l-182 -852q-3 -18 -8 -22t-25 -4h-57q-19 0 -22.5 4.5t-0.5 21.5l150 703q-23 -7 -81 -28.5t-98.5 -32.5 t-76.5 -11q-14 0 -24 11t-7 24zM369 16q4 16 20 35q184 251 525 707.5t483 648.5q5 7 9 11.5t7 9t7 7t6 5t6.5 3.5t6.5 2t8.5 1h8.5h11.5h13.5h-2q9 0 13.5 -0.5t8.5 -4.5t2 -11q-4 -19 -24 -39q-169 -229 -502 -678.5t-502 -677.5q-17 -23 -26.5 -29t-26.5 -6h-31h2 q-9 0 -13.5 0.5t-8 4t-2.5 11.5zM1020 231q2 13 24 41q182 241 443 572q10 12 31 41h-2q21 30 55 30q41 0 31 -51l-123 -577h71q32 0 25 -27l-4 -29v2q-4 -18 -9 -21t-24 -3h-76l-41 -193q-3 -17 -8.5 -20.5t-23.5 -3.5h-62q-16 0 -19 5t-1 21l41 191h-301q-14 0 -22 5 t-5 17zM1143 287h221l90 418q-63 -81 -78 -105z" />
<glyph unicode="&#xbd;" horiz-adv-x="1611" d="M305 1231q1 6 3.5 10.5t4.5 8t7 6.5t7 4.5t8.5 4t8.5 3t9.5 2.5t8.5 2q64 18 84.5 24.5t65 24.5t76 40t65.5 54q5 4 14 12t14.5 12.5t15.5 9.5t22 7q27 0 18 -39l-182 -852q-3 -18 -8 -22t-25 -4h-57q-19 0 -22.5 4.5t-0.5 21.5l150 703q-23 -7 -81 -28.5t-98.5 -32.5 t-76.5 -11q-14 0 -24 11t-7 24zM373 14q3 21 22 37q184 251 525 707.5t483 648.5q12 16 18.5 24t19.5 11.5t16 3.5h28h-2q9 0 13.5 -0.5t8.5 -4.5t2 -11q-3 -15 -22 -39q-169 -229 -503 -678.5t-503 -677.5q-17 -24 -26 -29.5t-29 -5.5h-27h2q-9 0 -14 0.5t-9 3.5t-3 10z M997 20q3 15 21 33q57 60 170.5 172.5t171.5 173.5q46 47 74 79.5t58.5 84t41.5 99.5q13 63 -15.5 109t-91.5 46q-65 0 -107.5 -40.5t-74.5 -110.5q-10 -17 -14 -22.5t-15.5 -13t-25.5 -7.5q-35 0 -27 47q25 116 118 186t196 70q104 0 156.5 -65.5t29.5 -172.5 q-16 -72 -63.5 -137.5t-122.5 -138.5q-199 -199 -301 -299h344q18 0 23 -4.5t1 -22.5l-10 -55q-5 -20 -10 -25.5t-23 -5.5h-477q-9 0 -14.5 1t-10 6t-2.5 13z" />
<glyph unicode="&#xbe;" horiz-adv-x="1611" d="M199 707q5 25 24 43t45 18q18 0 30 -12.5t18 -30.5t15.5 -40t21 -40t37 -30.5t61.5 -12.5q64 0 117 49.5t67 114.5q20 92 -26 142.5t-140 78.5l-15 5t-10.5 5t-9 9.5t-0.5 13.5q4 15 29 27q10 4 38.5 16t42 18t37.5 18.5t37.5 24t29.5 28.5t26 37.5t16 45.5 q11 56 -17.5 92.5t-84.5 36.5q-41 0 -73 -16.5t-51.5 -40.5t-34.5 -48t-29 -40.5t-29 -16.5q-33 0 -25 45q16 73 65.5 124t107.5 72t120 21q90 0 143 -55t33 -145q-16 -67 -61.5 -113.5t-120.5 -91.5q76 -36 112.5 -104.5t18.5 -153.5q-28 -129 -123.5 -206t-224.5 -77 q-85 0 -160 52.5t-57 136.5zM414 16q5 16 18 35q184 251 525 707.5t483 648.5q5 7 9 11.5t7 9t7 7t5.5 5t6.5 3.5t6.5 2t8 1h8.5h11h13h-2q10 0 14.5 -0.5t9 -4.5t2.5 -11q-3 -15 -22 -39q-169 -229 -502 -678.5t-502 -677.5q-17 -23 -26.5 -29t-26.5 -6h-31h2 q-9 0 -13.5 0.5t-8 4t-2.5 11.5zM1020 231q2 13 24 41q84 108 244 313.5t234 301.5q-2 -2 -4 -2h-2q21 30 55 30q25 0 31.5 -13t1.5 -38l-123 -577h69q32 0 25 -27l-4 -29v2q-4 -18 -8.5 -21t-24.5 -3h-74l-41 -193q-3 -17 -8.5 -20.5t-25.5 -3.5h-62q-16 0 -18.5 6t0.5 20 l41 191h-303q-14 0 -22 5t-5 17zM1143 287h221l90 418q-59 -77 -169.5 -227t-141.5 -191z" />
<glyph unicode="&#xbf;" horiz-adv-x="839" d="M119 250q8 39 23.5 71t42 62.5t45.5 49t59 52t59 50.5q50 43 84.5 81t55 68t37 77.5t25 80.5t23.5 106q4 16 8 25t12 12.5t13.5 3.5t19.5 -1t23 -1q27 -2 30.5 -7t-3.5 -36l-45 -319l-4 -11l-2 -8q-3 -16 -8.5 -23t-19 -14t-22.5 -16q-5 -3 -8.5 -3t-5.5 -3 q-22 -16 -53 -25q-167 -100 -203 -231q-27 -84 7 -149.5t116 -69.5q64 0 109 27.5t69 66.5t43.5 78t46.5 66.5t64 27.5q39 0 56 -29.5t9 -68.5q-15 -70 -61 -124.5t-108.5 -85.5t-127.5 -46t-127 -15q-88 0 -157.5 30.5t-106.5 96t-18 154.5zM578 1333q10 53 55 89t100 36 q54 0 81.5 -36.5t16.5 -90.5q-11 -52 -54.5 -89.5t-96.5 -37.5q-56 0 -85 36t-17 93z" />
<glyph unicode="&#xc0;" horiz-adv-x="1232" d="M0 16q0 9 16 33q158 265 450.5 749t373.5 619q16 29 37 29h79q20 0 26.5 -4.5t10.5 -22.5q30 -169 112.5 -640t129.5 -730q4 -10 0 -31q-3 -18 -21 -18h-165q-19 0 -24 6t-7 25q-20 104 -90 542h-436q-104 -180 -316 -540q-10 -19 -18 -26t-27 -7h-106q-9 0 -13.5 0.5 t-8.5 4.5t-3 11zM561 690h346l-51 363q-1 6 -8.5 47.5t-9.5 66.5q-154 -256 -277 -477zM698 1810q34 82 80 82q29 0 49 -30l33 -43q8 -10 32 -38.5t39 -47.5t32.5 -44t25 -45t4.5 -34q-5 -20 -19.5 -35.5t-33.5 -15.5q-3 0 -17 6t-14 10q-48 41 -186 151q-34 27 -25 84z" />
<glyph unicode="&#xc1;" horiz-adv-x="1232" d="M0 16q0 9 16 33q158 265 450.5 749t373.5 619q16 29 37 29h79q20 0 26.5 -4.5t10.5 -22.5q30 -169 112.5 -640t129.5 -730q4 -10 0 -31q-3 -18 -21 -18h-165q-19 0 -24 6t-7 25q-20 104 -90 542h-436q-104 -180 -316 -540q-10 -19 -18 -26t-27 -7h-106q-9 0 -13.5 0.5 t-8.5 4.5t-3 11zM561 690h346l-51 363q-1 6 -8.5 47.5t-9.5 66.5q-154 -256 -277 -477zM918 1608q5 21 32 51t53.5 52.5t73 58t62.5 49.5l53 43q33 30 61 30t38 -26t3 -56l-2 -16q-10 -44 -53 -68q-31 -17 -102.5 -62.5t-122.5 -75t-66 -29.5q-39 0 -30 49z" />
<glyph unicode="&#xc2;" horiz-adv-x="1232" d="M0 16q0 9 16 33q158 265 450.5 749t373.5 619q16 29 37 29h79q20 0 26.5 -4.5t10.5 -22.5q30 -169 112.5 -640t129.5 -730q4 -10 0 -31q-3 -18 -21 -18h-165q-19 0 -24 6t-7 25q-20 104 -90 542h-436q-104 -180 -316 -540q-10 -19 -18 -26t-27 -7h-106q-9 0 -13.5 0.5 t-8.5 4.5t-3 11zM561 690h346l-51 363q-1 6 -8.5 47.5t-9.5 66.5q-154 -256 -277 -477zM647 1589q5 23 162 153t188 134q1 -1 18.5 -9t22.5 -16q6 -9 20.5 -31t22.5 -34t21.5 -29t27.5 -31q12 -14 44 -38.5t45 -42.5l10 -13q13 -21 10 -39q-1 0 -18.5 -18.5t-18.5 -18.5 q-21 0 -115.5 79t-119.5 79t-156 -81t-143 -81q-1 1 -2 3.5t-2 3.5q0 3 -3.5 6t-3.5 6z" />
<glyph unicode="&#xc3;" horiz-adv-x="1232" d="M0 16q0 9 16 33q158 265 450.5 749t373.5 619q16 29 37 29h79q20 0 26.5 -4.5t10.5 -22.5q30 -169 112.5 -640t129.5 -730q4 -10 0 -31q-3 -18 -21 -18h-165q-19 0 -24 6t-7 25q-20 104 -90 542h-436q-104 -180 -316 -540q-10 -19 -18 -26t-27 -7h-106q-9 0 -13.5 0.5 t-8.5 4.5t-3 11zM561 690h346l-51 363q-1 6 -8.5 47.5t-9.5 66.5q-154 -256 -277 -477zM623 1620q17 77 92 133.5t147 56.5q36 0 66 -12t51 -29t41 -34t46 -29t56 -12t58.5 16t45.5 35t35 35t29 16q34 0 25 -39q-18 -85 -86 -139.5t-144 -54.5h-4q-46 0 -84 18.5t-59.5 40.5 t-53 40.5t-65.5 18.5q-31 0 -59 -16.5t-44.5 -35.5t-35.5 -35.5t-35 -16.5t-21 13.5t-1 29.5z" />
<glyph unicode="&#xc4;" horiz-adv-x="1277" d="M0 16q0 9 16 33q158 265 450.5 749t373.5 619q16 29 37 29h79q20 0 26.5 -4.5t10.5 -22.5q30 -169 112.5 -640t129.5 -730q4 -10 0 -31q-3 -18 -21 -18h-165q-19 0 -24 6t-7 25q-20 104 -90 542h-436q-104 -180 -316 -540q-10 -19 -18 -26t-27 -7h-106q-9 0 -13.5 0.5 t-8.5 4.5t-3 11zM561 690h346l-51 363q-1 6 -8.5 47.5t-9.5 66.5q-154 -256 -277 -477zM668 1716q10 55 51.5 88t97.5 33q48 0 73 -33t15 -82q-11 -52 -49.5 -85t-91.5 -33q-50 0 -78 31.5t-18 80.5zM1042 1716q10 53 52.5 87t97.5 34q48 0 74 -33t16 -82q-10 -51 -51 -84.5 t-92 -33.5q-52 0 -79.5 31.5t-17.5 80.5z" />
<glyph unicode="&#xc5;" horiz-adv-x="1277" d="M0 16q0 9 16 33q158 265 450.5 749t373.5 619q16 29 37 29h79q20 0 26.5 -4.5t10.5 -22.5q30 -169 112.5 -640t129.5 -730q4 -10 0 -31q-3 -18 -21 -18h-165q-19 0 -24 6t-7 25q-20 104 -90 542h-436q-104 -180 -316 -540q-10 -19 -18 -26t-27 -7h-106q-9 0 -13.5 0.5 t-8.5 4.5t-3 11zM561 690h346l-51 363q-1 6 -8.5 47.5t-9.5 66.5q-154 -256 -277 -477zM803 1714q15 71 79 120.5t134 49.5q77 0 112 -50t19 -126q-15 -72 -75 -120t-132 -48q-73 0 -112.5 50t-24.5 124zM893 1714q-8 -38 9 -63t54 -25q38 0 66.5 25.5t36.5 62.5 q8 31 -9 55.5t-49 24.5q-38 0 -68.5 -20.5t-39.5 -59.5z" />
<glyph unicode="&#xc6;" horiz-adv-x="1794" d="M4 27q6 21 21 36q307 473 868 1342l6 9t5.5 8l4.5 6t5 5.5t4.5 4t5 3.5t6 2.5t7.5 1.5t8.5 0.5t10.5 0.5h756q25 0 29 -9t-4 -32l-13 -59q-3 -16 -4.5 -22t-9 -11.5t-22.5 -5.5h-578v-484h475q19 0 23 -9t-2 -26l-15 -67q-3 -17 -11 -21t-28 -4h-444q-1 -94 -4 -281.5 t-4 -281.5h491q21 0 26 -6t1 -29l-14 -63q-3 -19 -11 -27t-26 -8h-639q-35 0 -35 31q2 87 5 261t5 261h-395q-54 -87 -163 -260t-163 -260q-9 -16 -12.5 -20t-11.5 -8.5t-21 -4.5h-104q-13 0 -22.5 7t-6.5 20zM582 670h323l10 362v180l-141 -233q-167 -270 -192 -309z" />
<glyph unicode="&#xc7;" horiz-adv-x="1232" d="M221 727q33 153 103.5 287t172 238t241 164.5t298.5 60.5q77 0 153 -17.5t145 -60t100 -103.5q30 -58 20 -106q-9 -41 -41.5 -67.5t-73.5 -26.5q-34 0 -53 18.5t-33 52.5q-35 85 -101 134t-155 49t-170 -35.5t-142.5 -93.5t-111 -133.5t-81.5 -153.5t-48 -156v-6 q-19 -89 -19.5 -179t21.5 -176t65 -152.5t118 -107t174 -40.5q91 0 160.5 23t162.5 79q34 21 56 21q20 0 31.5 -15t7.5 -35q-2 -11 -7.5 -21.5t-15 -20.5t-16.5 -16t-20 -16t-17 -14q-169 -133 -424 -133q-8 -22 -24.5 -57.5t-22.5 -50.5q34 0 63.5 -7t53.5 -22t34 -43 t2 -65q-18 -81 -93 -128t-156 -47q-19 0 -45.5 3t-58 10.5t-51 22.5t-15.5 36q8 31 34 31q14 0 57.5 -10.5t69.5 -10.5q48 0 87.5 20.5t50.5 69.5q3 16 -1.5 28.5t-12 19.5t-23.5 12.5t-24.5 7t-24.5 4.5q-3 1 -9 1q-18 3 -19 8q-1 2 -2 7q-2 13 -5 25q8 24 23.5 71t23.5 70 q-135 24 -209 70q-151 98 -199.5 284t-3.5 398z" />
<glyph unicode="&#xc8;" horiz-adv-x="978" d="M139 37l291 1364q5 24 16 34.5t35 10.5h719q19 0 25 -6t2 -25l-13 -61q-5 -25 -11.5 -33t-28.5 -8h-560l-104 -492h469q14 0 20 -1t10 -7.5t1 -19.5l-15 -64q-4 -24 -12.5 -30.5t-32.5 -6.5h-469l-119 -561h553h4q15 0 20 -1t9.5 -8t-0.5 -22l-14 -63q-4 -25 -12 -31 t-33 -6h-719q-24 0 -29.5 6.5t-1.5 30.5zM565 1792q23 100 86 100q13 0 21.5 -4.5t12 -8.5t11.5 -17l154 -197q15 -27 12 -55q-5 -20 -19 -35.5t-32 -15.5q-10 0 -16 6q-28 19 -59 41.5t-76.5 58.5t-72 70.5t-22.5 56.5z" />
<glyph unicode="&#xc9;" horiz-adv-x="978" d="M139 37l291 1364q5 24 16 34.5t35 10.5h719q19 0 25 -6t2 -25l-13 -61q-5 -25 -11.5 -33t-28.5 -8h-560l-104 -492h469q14 0 20 -1t10 -7.5t1 -19.5l-15 -64q-4 -24 -12.5 -30.5t-32.5 -6.5h-469l-119 -561h553h4q15 0 20 -1t9.5 -8t-0.5 -22l-14 -63q-4 -25 -12 -31 t-33 -6h-719q-24 0 -29.5 6.5t-1.5 30.5zM793 1608q9 35 34 57q27 20 187 154l53 43q14 12 19 16.5t16 9t24 4.5q29 0 40.5 -25t4.5 -57q-9 -56 -57 -84q-31 -17 -102.5 -62.5t-122.5 -75t-66 -29.5q-18 0 -25.5 15t-4.5 34z" />
<glyph unicode="&#xca;" horiz-adv-x="978" d="M139 37l291 1364q5 24 16 34.5t35 10.5h719q19 0 25 -6t2 -25l-13 -61q-5 -25 -11.5 -33t-28.5 -8h-560l-104 -492h469q14 0 20 -1t10 -7.5t1 -19.5l-15 -64q-4 -24 -12.5 -30.5t-32.5 -6.5h-469l-119 -561h553h4q15 0 20 -1t9.5 -8t-0.5 -22l-14 -63q-4 -25 -12 -31 t-33 -6h-719q-24 0 -29.5 6.5t-1.5 30.5zM522 1589q5 25 58 70.5t128.5 101.5t100.5 78q35 35 61 37q23 -10 44.5 -37.5t45 -61.5t44.5 -51q12 -14 45 -39.5t51 -47.5t14 -46q-16 -12 -37 -37q-31 7 -80.5 46.5t-93 75.5t-61.5 36q-22 0 -156.5 -83.5t-148.5 -80.5 q1 2 -3.5 12t-9 19t-2.5 10v-2z" />
<glyph unicode="&#xcb;" horiz-adv-x="978" d="M139 37l291 1366q5 24 16 33.5t37 9.5h717q19 0 25 -6t2 -25l-13 -61q-4 -17 -6 -23t-10 -11t-24 -5h-558l-104 -494h467q14 0 20 -1t10 -7.5t1 -19.5l-15 -64q-4 -23 -13 -30t-32 -7h-467l-118 -561h550h8.5h7.5t6 -0.5t5.5 -1t4 -2t2.5 -4t1 -5.5t0 -7.5t-2 -10.5 l-14 -63q-4 -25 -12 -31t-33 -6h-719q-23 0 -29 7t-2 30zM545 1718q10 54 50.5 86.5t96.5 32.5q47 0 73.5 -33t16.5 -80q-10 -55 -49.5 -87.5t-95.5 -32.5q-50 0 -76 31.5t-16 82.5zM920 1718q10 53 52 86t97 33q53 0 76 -34t12 -87q-10 -50 -51 -81t-90 -31 q-53 0 -80.5 30.5t-15.5 83.5z" />
<glyph unicode="&#xcc;" horiz-adv-x="464" d="M135 37l291 1366q5 23 13.5 33t29.5 10h129q26 0 32.5 -7t2.5 -32l-291 -1366q-5 -23 -13 -32t-30 -9h-137q-33 0 -27 37zM317 1810q7 32 28.5 57t51.5 25q17 0 25.5 -7t19.5 -23q3 -5 51 -60t83 -109t30 -83q-5 -20 -19 -35.5t-32 -15.5q-10 0 -16 6q-3 2 -199 161 q-33 28 -23 84z" />
<glyph unicode="&#xcd;" horiz-adv-x="464" d="M135 37l291 1366q5 23 13.5 33t29.5 10h129q26 0 32.5 -7t2.5 -32l-291 -1366q-5 -23 -13 -32t-30 -9h-137q-33 0 -27 37zM537 1608q9 35 34 57l240 197q11 11 17 16t16.5 9.5t23.5 4.5q29 0 40.5 -25t4.5 -57q-12 -61 -55 -84q-34 -18 -103.5 -62.5t-121 -74.5 t-68.5 -30t-24 15t-4 34z" />
<glyph unicode="&#xce;" horiz-adv-x="464" d="M135 37l291 1366q5 23 13.5 33t29.5 10h129q26 0 32.5 -7t2.5 -32l-291 -1366q-5 -23 -13 -32t-30 -9h-137q-33 0 -27 37zM266 1589q5 22 56.5 66.5t128.5 103t102 80.5q35 35 61 37q27 -13 69.5 -72.5t64.5 -77.5q13 -16 44 -40t44 -41l10 -13q13 -25 10 -39l-37 -37 q-27 13 -121.5 85.5t-113.5 72.5q-21 0 -154.5 -82t-146.5 -82q0 1 -4.5 11t-9 19.5t-3.5 10.5q2 0 0 -2z" />
<glyph unicode="&#xcf;" horiz-adv-x="464" d="M137 37l291 1368q5 23 13 32t30 9h129q24 0 30.5 -6.5t2.5 -30.5l-291 -1368q-5 -23 -13 -32t-30 -9h-135q-33 0 -27 37zM289 1718q10 54 50.5 86.5t96.5 32.5q47 0 73.5 -33t16.5 -80q-10 -55 -49.5 -87.5t-95.5 -32.5q-50 0 -76 31.5t-16 82.5zM664 1718q10 53 52 86 t97 33q53 0 76 -34t12 -87q-10 -50 -51 -81t-90 -31q-53 0 -80.5 30.5t-15.5 83.5z" />
<glyph unicode="&#xd1;" horiz-adv-x="1404" d="M141 9.5q-4 9.5 2 29.5l289 1366q7 31 17 36q9 5 22 5h131q13 0 19.5 -2.5t8 -4t4.5 -11t5 -15.5q79 -157 264.5 -510t280.5 -547l223 1049q6 26 13.5 33.5t31.5 7.5h94q18 0 23 -7.5t0 -27.5l-293 -1378q-6 -33 -39 -33h-59q-22 0 -28.5 0.5t-15 7t-16.5 21.5 q-91 180 -258 506t-229 448q-58 103 -92 172l-236 -1116q-5 -22 -11.5 -30.5t-25.5 -8.5h-98q-23 0 -27 9.5zM709 1620q17 77 92 133.5t147 56.5q36 0 66 -12t51 -29t41 -34t46 -29t56 -12q31 0 59 16t45 35t35.5 35t30.5 16q30 0 23 -39q-17 -81 -86.5 -137.5t-149.5 -56.5 q-44 0 -81.5 18.5t-59.5 40.5t-53.5 40.5t-65.5 18.5t-62 -16.5t-42.5 -35.5t-33 -35.5t-34.5 -16.5q-17 0 -22.5 13.5t-1.5 29.5z" />
<glyph unicode="&#xd2;" horiz-adv-x="1447" d="M198.5 530.5q-0.5 92.5 20.5 188.5q39 182 137 343.5t254 276.5q110 75 213 106.5t219 31.5q98 0 181.5 -27t143.5 -74.5t104.5 -114t64 -145.5t23 -168t-18.5 -182l-10 -47q-30 -141 -101.5 -274t-174 -240t-242 -171.5t-291.5 -64.5q-104 0 -190 29t-147 80.5 t-103.5 122t-62 154t-20 176zM419 459.5q4 -72.5 26 -134.5t59 -112t101 -78.5t149 -28.5q129 0 270 103q215 149 295 514q12 58 18 116t5 121.5t-11.5 119.5t-35.5 107.5t-62.5 88t-96 58.5t-132.5 22q-129 0 -254 -88q-70 -48 -124.5 -111.5t-90 -136.5t-58 -141 t-39.5 -148q-14 -66 -18.5 -132.5t-0.5 -139zM805 1810q7 27 31 54.5t49 27.5q29 0 49 -30l33 -43q8 -10 32 -38.5t39 -47.5t32.5 -44t25 -45t4.5 -34q-5 -20 -19.5 -35.5t-33.5 -15.5q-3 0 -17 6t-14 10q-24 20 -187 151q-33 26 -24 84z" />
<glyph unicode="&#xd3;" horiz-adv-x="1447" d="M198.5 530.5q-0.5 92.5 20.5 188.5q39 182 137 343.5t254 276.5q110 75 213 106.5t219 31.5q98 0 181.5 -27t143.5 -74.5t104.5 -114t64 -145.5t23 -168t-18.5 -182l-10 -47q-30 -141 -101.5 -274t-174 -240t-242 -171.5t-291.5 -64.5q-104 0 -190 29t-147 80.5 t-103.5 122t-62 154t-20 176zM419 459.5q4 -72.5 26 -134.5t59 -112t101 -78.5t149 -28.5q129 0 270 103q215 149 295 514q12 58 18 116t5 121.5t-11.5 119.5t-35.5 107.5t-62.5 88t-96 58.5t-132.5 22q-129 0 -254 -88q-70 -48 -124.5 -111.5t-90 -136.5t-58 -141 t-39.5 -148q-14 -66 -18.5 -132.5t-0.5 -139zM1026 1608q5 21 32 51t53.5 52.5t73 58t62.5 49.5l53 43q33 30 62 30q28 0 38 -26t3 -56l-2 -16q-10 -44 -53 -68q-35 -24 -156.5 -95.5t-136.5 -71.5q-18 0 -25 15t-4 34z" />
<glyph unicode="&#xd4;" horiz-adv-x="1447" d="M198.5 530.5q-0.5 92.5 20.5 188.5q39 182 137 343.5t254 276.5q110 75 213 106.5t219 31.5q98 0 181.5 -27t143.5 -74.5t104.5 -114t64 -145.5t23 -168t-18.5 -182l-10 -47q-30 -141 -101.5 -274t-174 -240t-242 -171.5t-291.5 -64.5q-104 0 -190 29t-147 80.5 t-103.5 122t-62 154t-20 176zM419 459.5q4 -72.5 26 -134.5t59 -112t101 -78.5t149 -28.5q129 0 270 103q215 149 295 514q12 58 18 116t5 121.5t-11.5 119.5t-35.5 107.5t-62.5 88t-96 58.5t-132.5 22q-129 0 -254 -88q-70 -48 -124.5 -111.5t-90 -136.5t-58 -141 t-39.5 -148q-14 -66 -18.5 -132.5t-0.5 -139zM756 1589q5 21 161 152t187 135q1 -1 18.5 -9t22.5 -16q13 -16 39.5 -57.5t44.5 -60.5q12 -13 49 -42.5t55.5 -52.5t14.5 -45q-3 0 -21 -18l-16 -19q-17 0 -115 79t-121 79q-9 0 -20 -4t-16.5 -7.5t-18 -13t-14.5 -10.5 q-4 -2 -61 -35t-110.5 -62.5t-60.5 -29.5q-1 1 -2 3.5t-2 3.5q0 3 -2 6t-2 6z" />
<glyph unicode="&#xd5;" horiz-adv-x="1447" d="M198.5 530.5q-0.5 92.5 20.5 188.5q39 182 137 343.5t254 276.5q110 75 213 106.5t219 31.5q98 0 181.5 -27t143.5 -74.5t104.5 -114t64 -145.5t23 -168t-18.5 -182l-10 -47q-30 -141 -101.5 -274t-174 -240t-242 -171.5t-291.5 -64.5q-104 0 -190 29t-147 80.5 t-103.5 122t-62 154t-20 176zM419 459.5q4 -72.5 26 -134.5t59 -112t101 -78.5t149 -28.5q129 0 270 103q215 149 295 514q12 58 18 116t5 121.5t-11.5 119.5t-35.5 107.5t-62.5 88t-96 58.5t-132.5 22q-129 0 -254 -88q-70 -48 -124.5 -111.5t-90 -136.5t-58 -141 t-39.5 -148q-14 -66 -18.5 -132.5t-0.5 -139zM731 1620q15 76 89.5 133t150.5 57q36 0 65 -12t49.5 -29t40.5 -34t46.5 -29t58.5 -12t61 16t45.5 35t34 35t29.5 16q31 0 22 -39q-18 -84 -86 -139t-143 -55h-4q-39 0 -70.5 12t-52 29.5t-40.5 35t-45.5 29.5t-55.5 12 q-31 0 -58.5 -16.5t-43 -35.5t-34.5 -35.5t-36 -16.5q-16 0 -21.5 13.5t-1.5 29.5z" />
<glyph unicode="&#xd6;" horiz-adv-x="1447" d="M198.5 530.5q-0.5 92.5 20.5 188.5q39 182 137 343.5t254 276.5q110 75 213 106.5t219 31.5q98 0 181.5 -27t143.5 -74.5t104.5 -114t64 -145.5t23 -168t-18.5 -182l-10 -47q-30 -141 -101.5 -274t-174 -240t-242 -171.5t-291.5 -64.5q-104 0 -190 29t-147 80.5 t-103.5 122t-62 154t-20 176zM419 459.5q4 -72.5 26 -134.5t59 -112t101 -78.5t149 -28.5q129 0 270 103q215 149 295 514q12 58 18 116t5 121.5t-11.5 119.5t-35.5 107.5t-62.5 88t-96 58.5t-132.5 22q-129 0 -254 -88q-70 -48 -124.5 -111.5t-90 -136.5t-58 -141 t-39.5 -148q-14 -66 -18.5 -132.5t-0.5 -139zM786 1716q10 54 51 87.5t95 33.5q50 0 76 -32t16 -83q-11 -51 -49 -84.5t-88 -33.5q-56 0 -84.5 29.5t-16.5 82.5zM1161 1716q10 54 52 87.5t96 33.5q48 0 75 -32.5t17 -82.5q-9 -48 -48.5 -83t-88.5 -35q-56 0 -85.5 30 t-17.5 82z" />
<glyph unicode="&#xd7;" horiz-adv-x="1017" d="M180 291l367 303l-238 303l35 29l70 57l237 -303l369 303l22 -29l45 -57l-368 -303l239 -303l-34 -29l-70 -57l-240 303l-366 -303l-23 28z" />
<glyph unicode="&#xd8;" horiz-adv-x="1445" d="M96 -92q1 5 51.5 61t105 115t60.5 68q-59 71 -88 165t-27.5 191.5t21.5 202.5q25 116 75.5 227t126.5 209t169 171.5t209.5 116t240.5 42.5q214 0 346 -121l195 215q1 1 3 4t3 5t3.5 4t4.5 3.5t5 2.5t6 1q8 0 32 -18t23 -29q-3 -10 -97 -115t-122 -133 q81 -134 101.5 -270.5t-13.5 -296.5q-30 -143 -103.5 -278t-178 -243t-245.5 -173.5t-292 -65.5q-205 0 -342 125q-16 -18 -72 -83t-96.5 -108.5t-50.5 -43.5q-8 0 -31.5 21t-22.5 28zM402 498q7 -96 47 -199q159 182 823 930q-50 63 -107.5 94t-140.5 31q-119 0 -223.5 -57 t-178.5 -151t-125 -205t-77 -230q-25 -117 -18 -213zM487 223q61 -61 113 -89t133 -28q100 0 189 40t154 104.5t118 150t85.5 172.5t51.5 177q49 218 -20 403q-138 -156 -412 -465.5t-412 -464.5z" />
<glyph unicode="&#xd9;" horiz-adv-x="1185" d="M203 430l209 977q5 24 12 31.5t29 7.5h131q26 0 32 -6t2 -31l-202 -948q-17 -73 -11.5 -135.5t30 -108t78 -71t132.5 -25.5q141 0 234 81.5t129 250.5l206 964q6 29 39 29h88q24 0 29.5 -7.5t1.5 -31.5l-209 -979q-99 -459 -592 -459q-225 0 -319.5 119.5t-48.5 341.5z M672.5 1764q-4.5 18 3.5 48q7 33 29 57.5t55 24.5q0 -2 -6 -2q7 0 12 -0.5t9 -2.5t6.5 -3t6 -5t4.5 -5t4.5 -7t4.5 -7l51 -66q9 -11 36.5 -43.5t42.5 -52t27 -45t9 -41.5q-13 -58 -52 -58q-3 2 -16.5 9t-15.5 10h2q-30 25 -93 77t-94 77q-21 17 -25.5 35z" />
<glyph unicode="&#xda;" horiz-adv-x="1185" d="M203 430l209 977q5 24 12 31.5t29 7.5h131q26 0 32 -6t2 -31l-202 -948q-17 -73 -11.5 -135.5t30 -108t78 -71t132.5 -25.5q141 0 234 81.5t129 250.5l206 964q6 29 39 29h88q24 0 29.5 -7.5t1.5 -31.5l-209 -979q-99 -459 -592 -459q-225 0 -319.5 119.5t-48.5 341.5z M897 1616q7 30 35 49q23 19 86 72t100 82q8 6 26.5 23.5t29 25.5t26 16t29.5 8q29 0 40.5 -25t4.5 -57q-12 -58 -57 -84q-34 -18 -103.5 -62.5t-120.5 -74.5t-67 -30q-38 0 -29 57z" />
<glyph unicode="&#xdb;" horiz-adv-x="1185" d="M203 430l209 977q5 24 12 31.5t29 7.5h131q26 0 32 -6t2 -31l-202 -948q-17 -73 -11.5 -135.5t30 -108t78 -71t132.5 -25.5q141 0 234 81.5t129 250.5l206 964q6 29 39 29h88q24 0 29.5 -7.5t1.5 -31.5l-209 -979q-99 -459 -592 -459q-225 0 -319.5 119.5t-48.5 341.5z M625 1589q5 23 57.5 68.5t128.5 102t102 79.5q35 35 62 37q22 -7 43 -34t44 -64t42 -56q13 -14 46 -36.5t46 -40.5l10 -13q13 -27 11 -39l-37 -37q-35 16 -125.5 87t-110.5 71q-24 0 -155 -81t-144 -81q-1 1 -2 3.5t-2 3.5q0 3 -3 6t-3 6z" />
<glyph unicode="&#xdc;" horiz-adv-x="1185" d="M205 442l207 965q5 24 12 31.5t29 7.5h131q27 0 32.5 -4.5t-0.5 -32.5l-202 -948q-33 -156 21 -248t210 -92q295 0 363 332l204 954q5 25 11.5 32t29.5 7h86q24 0 30.5 -7t2.5 -32l-209 -979q-21 -99 -62.5 -178t-95 -131t-120.5 -86t-136 -49t-145 -15 q-251 0 -351 114.5t-48 358.5zM649 1716q10 55 51 88t97 33q48 0 75 -33t17 -82q-10 -53 -50.5 -85.5t-95.5 -32.5q-48 0 -76 32t-18 80zM1024 1716q10 54 52.5 87.5t94.5 33.5q50 0 76.5 -32.5t16.5 -82.5q-11 -54 -50 -86t-94 -32q-49 0 -77.5 32t-18.5 80z" />
<glyph unicode="&#xdd;" horiz-adv-x="1110" d="M299 1425q6 21 33 21h166q19 0 28 -31q37 -102 113 -301.5t113 -300.5q74 95 235 293.5t244 306.5q21 26 27 29.5t32 3.5h103q24 0 18 -21q-2 -13 -20 -36q-100 -124 -299.5 -370t-300.5 -370l-132 -616q-5 -21 -11.5 -27t-24.5 -6h-144q-34 0 -28 33l133 626 q-55 143 -153 403t-124 329q-9 24 -8 34zM856 1608q9 34 35 57l239 197q30 30 58 30q29 0 40.5 -25t4.5 -57l-2 -16q-10 -44 -53 -68q-34 -18 -103.5 -62.5t-121 -74.5t-68.5 -30q-18 0 -25 15t-4 34z" />
<glyph unicode="&#xde;" d="M139 37l293 1374q4 23 13.5 30t33.5 7h133q20 0 25 -8t0 -29l-59 -274q130 37 241 37q200 0 308 -107.5t67 -304.5q-21 -97 -72 -174.5t-117.5 -126t-150.5 -81t-166 -45.5t-168 -13q-56 0 -112 6l-64 -291q-5 -24 -11.5 -30.5t-29.5 -6.5h-131q-24 0 -30.5 7t-2.5 30z M432 449q13 -1 45.5 -5t50.5 -4q86 0 155.5 15t131.5 50t105 100t63 157q63 299 -240 299q-101 0 -186 -21z" />
<glyph unicode="&#xdf;" horiz-adv-x="1015" d="M126 9.5q-4 7.5 1 23.5l213 1005q15 73 37.5 140t65 145t96 134t136.5 94t181 38q127 0 202 -73.5t48 -196.5q-12 -58 -47 -116.5t-77.5 -105.5t-84 -89.5t-73 -84t-38.5 -73.5q-9 -39 11.5 -78.5t56 -73t76.5 -76t74.5 -88t48 -109.5t-1.5 -140q-31 -148 -145.5 -229 t-264.5 -81q-33 0 -69 6.5t-72 21t-55 43.5t-11 67q8 33 33 54t57 21q18 0 37.5 -15.5t35.5 -33.5t46 -33.5t66 -15.5q66 0 115 45.5t63 114.5q10 48 -2 90.5t-39 76t-61.5 65.5t-69 65t-61 67.5t-38 80t-0.5 96.5q10 48 43.5 97.5t75.5 92.5t84 87t76.5 98.5t46.5 109.5 q19 88 -19 145.5t-122 57.5q4 0 4 2q-50 0 -90.5 -21.5t-66 -51.5t-46.5 -76t-31 -80.5t-20 -80.5l-244 -1144q-6 -27 -33 -27h-118q-16 0 -21 1t-9 8.5z" />
<glyph unicode="&#xe0;" horiz-adv-x="888" d="M98 143.5q-11 46.5 4 108.5q8 40 26.5 75.5t40.5 64t56.5 55.5t64 46t74.5 39t76 32t81 27.5t77.5 23t76.5 20.5t68 18l23 101q8 37 11.5 64t1.5 59t-13.5 51.5t-37.5 33t-66 13.5q-120 0 -199 -129q-8 -11 -22.5 -31t-20 -27t-17 -16.5t-23 -12.5t-28.5 -3q-37 0 -55 25 t-10 61q13 63 63 112.5t115.5 76.5t129 40.5t116.5 13.5q165 0 217.5 -81.5t17.5 -247.5l-117 -549q-23 -91 -55 -125q-52 -58 -164 -82.5t-213 -24.5q-56 0 -104 9t-90.5 29t-68 52t-36.5 78.5zM299 281q-21 -95 23 -145t139 -50q86 0 131 31.5t63 115.5l68 322 q-17 -5 -64 -18t-75 -22.5t-72.5 -26t-74 -35t-60.5 -43t-50.5 -57.5t-27.5 -72zM463 1393q6 28 26 55t48 27q11 0 20 -6t12 -9.5t11 -15.5q0 3 41 -43t79.5 -103t34.5 -81q-13 -48 -51 -48q-20 0 -31 15l-20 18q-14 11 -54.5 41.5t-62.5 49t-40 47t-13 53.5z" />
<glyph unicode="&#xe1;" horiz-adv-x="888" d="M98 143.5q-11 46.5 4 108.5q8 40 26.5 75.5t40.5 64t56.5 55.5t64 46t74.5 39t76 32t81 27.5t77.5 23t76.5 20.5t68 18l23 101q8 37 11.5 64t1.5 59t-13.5 51.5t-37.5 33t-66 13.5q-120 0 -199 -129q-8 -11 -22.5 -31t-20 -27t-17 -16.5t-23 -12.5t-28.5 -3q-37 0 -55 25 t-10 61q13 63 63 112.5t115.5 76.5t129 40.5t116.5 13.5q165 0 217.5 -81.5t17.5 -247.5l-117 -549q-23 -91 -55 -125q-52 -58 -164 -82.5t-213 -24.5q-56 0 -104 9t-90.5 29t-68 52t-36.5 78.5zM299 281q-21 -95 23 -145t139 -50q86 0 131 31.5t63 115.5l68 322 q-17 -5 -64 -18t-75 -22.5t-72.5 -26t-74 -35t-60.5 -43t-50.5 -57.5t-27.5 -72zM659 1214q0 5 12.5 25.5t18.5 24.5q21 17 59 50.5t67 57.5t61.5 49.5t56.5 39.5t37 14q26 0 34.5 -23.5t2.5 -52.5q-12 -53 -54 -76q-5 -3 -49 -30.5t-86.5 -53t-82 -48t-46.5 -22.5 q-18 0 -27 13t-4 32z" />
<glyph unicode="&#xe2;" horiz-adv-x="888" d="M98 143.5q-11 46.5 4 108.5q8 40 26.5 75.5t40.5 64t56.5 55.5t64 46t74.5 39t76 32t81 27.5t77.5 23t76.5 20.5t68 18l23 101q8 37 11.5 64t1.5 59t-13.5 51.5t-37.5 33t-66 13.5q-120 0 -199 -129q-8 -11 -22.5 -31t-20 -27t-17 -16.5t-23 -12.5t-28.5 -3q-37 0 -55 25 t-10 61q13 63 63 112.5t115.5 76.5t129 40.5t116.5 13.5q165 0 217.5 -81.5t17.5 -247.5l-117 -549q-23 -91 -55 -125q-52 -58 -164 -82.5t-213 -24.5q-56 0 -104 9t-90.5 29t-68 52t-36.5 78.5zM299 281q-21 -95 23 -145t139 -50q86 0 131 31.5t63 115.5l68 322 q-17 -5 -64 -18t-75 -22.5t-72.5 -26t-74 -35t-60.5 -43t-50.5 -57.5t-27.5 -72zM408 1190q3 5 8.5 14t10 15t9.5 10q160 120 256 209q31 26 43 26l12 -11q12 -11 28 -26t37.5 -36.5t42.5 -43t41.5 -45t36 -43t24 -36.5t6.5 -27q-2 -1 -19 -18t-18 -17q-3 2 -20 15.5t-27 21 t-30.5 22.5t-34.5 24.5t-32.5 22t-32 19.5t-26.5 12t-21 5q-25 0 -63 -23q-3 -2 -38 -24t-68 -42.5t-65 -38.5t-38 -18q-2 3 -4.5 8t-4.5 8.5t-5.5 8.5t-7.5 8z" />
<glyph unicode="&#xe3;" horiz-adv-x="888" d="M98 143.5q-11 46.5 4 108.5q8 40 26.5 75.5t40.5 64t56.5 55.5t64 46t74.5 39t76 32t81 27.5t77.5 23t76.5 20.5t68 18l23 101q8 37 11.5 64t1.5 59t-13.5 51.5t-37.5 33t-66 13.5q-120 0 -199 -129q-8 -11 -22.5 -31t-20 -27t-17 -16.5t-23 -12.5t-28.5 -3q-37 0 -55 25 t-10 61q13 63 63 112.5t115.5 76.5t129 40.5t116.5 13.5q165 0 217.5 -81.5t17.5 -247.5l-117 -549q-23 -91 -55 -125q-52 -58 -164 -82.5t-213 -24.5q-56 0 -104 9t-90.5 29t-68 52t-36.5 78.5zM299 281q-21 -95 23 -145t139 -50q86 0 131 31.5t63 115.5l68 322 q-17 -5 -64 -18t-75 -22.5t-72.5 -26t-74 -35t-60.5 -43t-50.5 -57.5t-27.5 -72zM399 1260q15 71 85.5 126.5t140.5 55.5q32 0 58.5 -11.5t46 -28t38.5 -33.5t44.5 -28.5t55.5 -11.5q29 0 55 15.5t41.5 33.5t32 33.5t27.5 15.5t19 -14.5t8 -23.5q-17 -76 -85 -131.5 t-139 -55.5q-34 0 -61.5 12t-45.5 29t-35 33.5t-40.5 28.5t-52.5 12q-33 0 -61 -15.5t-43.5 -33.5t-32.5 -33.5t-31 -15.5q-17 0 -23 12.5t-2 28.5z" />
<glyph unicode="&#xe4;" horiz-adv-x="888" d="M102 252q8 40 26.5 75.5t40.5 64t56.5 55.5t64 46t74.5 39t76 32t81 27.5t77.5 23t76.5 20.5t68 18l23 101q8 37 11.5 64t1.5 59t-13.5 51.5t-37.5 33t-66 13.5q-53 0 -94.5 -23t-66 -55.5t-45 -64.5t-46 -55t-56.5 -23q-38 0 -56.5 25.5t-10.5 62.5q13 63 62.5 112.5 t115 76.5t129 40.5t117.5 13.5q161 0 215.5 -80t21.5 -239l-117 -551q-11 -52 -27 -87.5t-50 -64.5q-53 -44 -161.5 -66t-193.5 -22q-74 0 -132 14t-102.5 44.5t-61.5 86t-1 132.5zM299 281q-21 -95 23 -145t139 -50q108 0 162 59q21 27 30 82l70 328q-17 -5 -64 -18 t-75 -22.5t-72.5 -26t-74 -35t-60.5 -43t-50.5 -57.5t-27.5 -72zM455 1360q9 48 48.5 81.5t88.5 33.5q50 0 75 -32t15 -81q-9 -46 -47 -81.5t-84 -35.5q-53 0 -80.5 30.5t-15.5 84.5zM817 1360q9 48 49.5 81.5t89.5 33.5q50 0 75.5 -32t15.5 -81q-11 -48 -49.5 -82.5 t-84.5 -34.5q-51 0 -78.5 32t-17.5 83z" />
<glyph unicode="&#xe5;" horiz-adv-x="888" d="M102 252q8 40 26.5 75.5t40.5 64t56.5 55.5t64 46t74.5 39t76 32t81 27.5t77.5 23t76.5 20.5t68 18l23 101q8 37 11.5 64t1.5 59t-13.5 51.5t-37.5 33t-66 13.5q-53 0 -94.5 -23t-66 -55.5t-45 -64.5t-46 -55t-56.5 -23q-38 0 -56.5 25.5t-10.5 62.5q13 63 62.5 112.5 t115 76.5t129 40.5t117.5 13.5q161 0 215.5 -80t21.5 -239l-117 -551q-11 -52 -27 -87.5t-50 -64.5q-53 -44 -161.5 -66t-193.5 -22q-74 0 -132 14t-102.5 44.5t-61.5 86t-1 132.5zM299 281q-21 -95 23 -145t139 -50q108 0 162 59q21 27 30 82l70 328q-17 -5 -64 -18 t-75 -22.5t-72.5 -26t-74 -35t-60.5 -43t-50.5 -57.5t-27.5 -72zM592 1321q14 66 65 109t117 43q68 0 103 -42.5t22 -109.5q-15 -66 -69.5 -111t-120.5 -45t-99 45t-18 111zM664 1321q-8 -35 10 -58.5t53 -23.5q36 0 63 25t35 61q7 34 -11 54t-52 20q-36 0 -64 -21.5 t-34 -56.5z" />
<glyph unicode="&#xe6;" horiz-adv-x="1619" d="M109 262q9 45 31 84t50.5 69t69 56.5t78.5 45t89 34.5t90.5 26t92 19.5t85 14t77.5 10.5q1 15 9.5 80t9.5 100q0 81 -28.5 128.5t-103.5 47.5q-70 0 -110.5 -30.5t-75.5 -86.5q-4 -6 -20.5 -33t-23 -35t-21.5 -24t-30.5 -21.5t-35.5 -5.5q-37 0 -53 26t-8 64 q10 54 77 121q139 133 353 133q105 0 163.5 -44.5t77.5 -141.5q153 186 346 186q254 0 283 -280q5 -74 0 -98q-8 -38 -30.5 -53.5t-65.5 -22.5q-94 -15 -283.5 -41.5t-283.5 -42.5q-9 -52 -11 -104.5t7.5 -108t31 -97.5t64.5 -69t102 -27q47 0 88 12.5t68.5 28.5t57.5 47 t45.5 51t41.5 58q10 16 16 24.5t19 17.5t27 9q21 0 27 -15.5t1 -37.5q-12 -57 -65 -137q-70 -106 -169 -165t-214 -59q-213 0 -279 222q-81 -123 -176.5 -172.5t-218.5 -49.5q-60 0 -114.5 19t-95.5 53.5t-59 90.5t-3 124zM299 285q-19 -86 25 -139.5t131 -53.5q54 0 100 22 t75.5 54t53 77.5t36 83.5t21.5 81q15 72 17 114q-17 -3 -67.5 -11t-81 -14.5t-79 -18.5t-80.5 -28t-66 -38.5t-55.5 -55.5t-29.5 -73zM938 645q71 11 222 32.5t231 33.5q10 61 3 118t-46.5 97.5t-102.5 40.5q-59 0 -113 -30.5t-92 -79t-64 -103t-38 -109.5z" />
<glyph unicode="&#xe7;" horiz-adv-x="933" d="M152.5 374q1.5 67 15.5 132l2 10q35 161 111 287.5t195 204t261 77.5h11q53 0 109.5 -19t102.5 -51.5t70 -83t12 -106.5q-8 -36 -37 -61t-65 -25q-34 0 -52.5 23.5t-28 57t-22.5 67t-48 57t-93 23.5q-55 0 -105.5 -25.5t-88.5 -66t-69.5 -92t-51 -101t-29.5 -96.5 q-12 -58 -15 -117t7 -119.5t34 -106.5t71.5 -75t113.5 -29q47 0 87 12.5t77 41t62 53.5t65 71q3 3 12.5 13.5t14.5 15.5t14 9.5t18 4.5q45 0 35 -51q-18 -83 -89.5 -161.5t-167 -125.5t-183.5 -47q-8 -19 -24.5 -57t-24.5 -57q33 0 61.5 -7t53 -22t34.5 -43t2 -65 q-18 -81 -93 -128t-155 -47q-19 0 -45.5 3t-59 10.5t-52 22.5t-15.5 36q6 31 37 31q13 0 56 -10.5t69 -10.5q48 0 87.5 21.5t49.5 68.5q6 32 -12.5 48.5t-44.5 19t-46 9.5t-17 22q0 8 4 16q0 -2 -2 -2q43 132 49 148q-72 10 -126 47t-84 90.5t-44.5 120.5t-13 134z" />
<glyph unicode="&#xe8;" horiz-adv-x="976" d="M152.5 366q1.5 78 19.5 162q24 113 71.5 210.5t117.5 176.5t170 124.5t219 45.5q123 0 201.5 -58.5t101.5 -170.5q15 -79 4 -135q-11 -57 -74 -66q-110 -16 -645 -92q-7 -57 -9 -115.5t12.5 -113.5t39.5 -98t72 -69t110 -26q97 0 177.5 51.5t160.5 147.5q3 3 11.5 15.5 t12 15.5t12.5 7.5t21 4.5q40 0 29 -51q-6 -24 -24.5 -60.5t-36.5 -60.5q-165 -236 -428 -236q-93 0 -162.5 31.5t-108.5 84.5t-57.5 125t-17 150zM360 662q88 14 254.5 39t247.5 38q11 92 -34.5 160t-135.5 68q-64 0 -119 -25t-95 -69t-69 -96t-49 -115zM508 1395 q6 29 25.5 54.5t48.5 25.5q16 0 27 -9.5t25.5 -32t20.5 -30.5q11 -16 49 -58t59 -74t17 -54q-5 -19 -18.5 -33.5t-32.5 -14.5q-10 0 -19.5 5t-11.5 10l-20 18q-14 12 -54.5 41.5t-63 48t-40.5 47.5t-12 56z" />
<glyph unicode="&#xe9;" horiz-adv-x="976" d="M152.5 366q1.5 78 19.5 162q24 113 71.5 210.5t117.5 176.5t170 124.5t219 45.5q123 0 201.5 -58.5t101.5 -170.5q15 -79 4 -135q-11 -57 -74 -66q-110 -16 -645 -92q-7 -57 -9 -115.5t12.5 -113.5t39.5 -98t72 -69t110 -26q97 0 177.5 51.5t160.5 147.5q3 3 11.5 15.5 t12 15.5t12.5 7.5t21 4.5q40 0 29 -51q-6 -24 -24.5 -60.5t-36.5 -60.5q-165 -236 -428 -236q-93 0 -162.5 31.5t-108.5 84.5t-57.5 125t-17 150zM360 662q88 14 254.5 39t247.5 38q11 92 -34.5 160t-135.5 68q-64 0 -119 -25t-95 -69t-69 -96t-49 -115zM705 1214 q2 10 10 22.5t22.5 27.5t28.5 28t35.5 30t35.5 28.5t36.5 28.5t31.5 24q67 72 111 72q26 0 34.5 -23.5t2.5 -52.5q-12 -53 -54 -76q-241 -154 -264 -154q-19 0 -25.5 10t-4.5 35z" />
<glyph unicode="&#xea;" horiz-adv-x="976" d="M152.5 366q1.5 78 19.5 162q24 113 71.5 210.5t117.5 176.5t170 124.5t219 45.5q123 0 201.5 -58.5t101.5 -170.5q15 -79 4 -135q-11 -57 -74 -66q-110 -16 -645 -92q-7 -57 -9 -115.5t12.5 -113.5t39.5 -98t72 -69t110 -26q97 0 177.5 51.5t160.5 147.5q3 3 11.5 15.5 t12 15.5t12.5 7.5t21 4.5q40 0 29 -51q-6 -24 -24.5 -60.5t-36.5 -60.5q-165 -236 -428 -236q-93 0 -162.5 31.5t-108.5 84.5t-57.5 125t-17 150zM360 662q88 14 254.5 39t247.5 38q11 92 -34.5 160t-135.5 68q-64 0 -119 -25t-95 -69t-69 -96t-49 -115zM453 1190 q2 4 6 13.5t8.5 15t11.5 10.5q34 25 107 87t126.5 105t65.5 43q30 -18 38 -29q3 -5 9 -14q26 -40 86.5 -101.5t71.5 -74.5l8 -12q18 -18 15 -37q-2 -1 -19 -18l-16 -17q-3 0 -33 19q-42 27 -78.5 54t-52 40t-31.5 21t-31 8q-23 0 -61 -23q-4 -2 -56.5 -34.5t-100 -60.5 t-54.5 -28q-19 32 -20 33z" />
<glyph unicode="&#xeb;" horiz-adv-x="976" d="M152.5 366q1.5 78 19.5 162q24 113 71.5 210.5t117.5 176.5t170 124.5t219 45.5q123 0 201.5 -58.5t101.5 -170.5q15 -79 4 -135q-11 -57 -74 -66q-110 -16 -645 -92q-7 -57 -9 -115.5t12.5 -113.5t39.5 -98t72 -69t110 -26q97 0 177.5 51.5t160.5 147.5q3 3 11.5 15.5 t12 15.5t12.5 7.5t21 4.5q40 0 29 -51q-6 -24 -24.5 -60.5t-36.5 -60.5q-165 -236 -428 -236q-93 0 -162.5 31.5t-108.5 84.5t-57.5 125t-17 150zM360 662q88 14 254.5 39t247.5 38q11 92 -34.5 160t-135.5 68q-64 0 -119 -25t-95 -69t-69 -96t-49 -115zM475 1360 q9 48 48.5 81.5t88.5 33.5q50 0 75 -32t15 -81q-9 -46 -48 -81.5t-85 -35.5q-54 0 -79.5 32t-14.5 83zM838 1360q9 47 50.5 81t90.5 34q47 0 71 -32.5t15 -80.5q-11 -49 -48 -83t-83 -34q-51 0 -78.5 32t-17.5 83z" />
<glyph unicode="&#xec;" horiz-adv-x="421" d="M121 27l213 999q4 22 13 28.5t30 6.5h108q26 0 31.5 -7.5t-0.5 -33.5l-207 -981q-4 -25 -13 -32t-32 -7h-121q-17 0 -21 5t-1 22zM231 1395q5 28 26 54t50 26q6 0 10.5 -1.5t8 -3t7 -5.5t5 -6.5t5.5 -7.5t5 -7l40 -44q39 -45 78.5 -100t35.5 -77q-8 -54 -47 -54 q-21 0 -33 15l-21 18q-14 12 -54.5 41.5t-63 48t-40.5 47.5t-12 56z" />
<glyph unicode="&#xed;" horiz-adv-x="421" d="M121 27l213 999q4 22 13 28.5t30 6.5h108q26 0 31.5 -7.5t-0.5 -33.5l-207 -981q-6 -25 -13.5 -32t-31.5 -7h-121q-17 0 -21 5t-1 22zM428 1214q21 42 33 52v-2q128 106 170 139q67 72 108 72q24 0 34 -24.5t5 -51.5q-14 -55 -55 -76q-9 -5 -74.5 -45.5t-123.5 -74.5 t-68 -34q-18 0 -25 13t-4 32z" />
<glyph unicode="&#xee;" horiz-adv-x="421" d="M123 29l213 999q4 20 13 26.5t30 6.5h108q25 0 30.5 -7t0.5 -32l-209 -983q-6 -25 -13.5 -32t-29.5 -7h-121q-17 0 -21 5.5t-1 23.5zM174 1192q7 13 12.5 21t8 10.5t13.5 10.5t17 13q58 41 85.5 60.5t71 56.5t77.5 72q1 1 -1.5 2t1.5 2q30 24 43 24q16 -8 23.5 -13.5 t11 -9.5t14.5 -20q26 -38 85 -98t81 -90q17 -17 14 -37q-1 0 -19.5 -17.5t-19.5 -17.5q-4 3 -14.5 7.5t-13.5 7.5l-144 108q-19 19 -51 19q-23 0 -61 -23q-30 -21 -115 -72t-98 -51z" />
<glyph unicode="&#xef;" horiz-adv-x="421" d="M123 29l213 999q4 20 13 26.5t30 6.5h108q25 0 30.5 -7t0.5 -32l-209 -983q-6 -25 -13.5 -32t-29.5 -7h-121q-17 0 -21 5.5t-1 23.5zM199 1360q9 49 50 82t89 33q49 0 74 -31.5t14 -79.5q-11 -50 -47.5 -83.5t-83.5 -33.5q-52 0 -79 31.5t-17 81.5zM563 1360q9 49 48 82 t87 33q51 0 77 -31t16 -80q-11 -49 -49.5 -83t-86.5 -34q-51 0 -76.5 31t-15.5 82z" />
<glyph unicode="&#xf1;" horiz-adv-x="1064" d="M127 39l174 821q6 31 10.5 46.5t18.5 37t37 39.5q64 51 192 76.5t227 25.5q39 0 72.5 -3t68.5 -9.5t62 -19t51.5 -30t40.5 -44t25 -59.5t8 -77.5t-12 -97.5l-150 -704q-5 -20 -13.5 -30.5t-27.5 -10.5h-106q-26 0 -33.5 6t-3.5 31l147 688q16 63 11 107.5t-18 73t-42 45 t-61 22.5t-76 6q-221 0 -260 -186l-160 -752q-5 -24 -13.5 -32.5t-31.5 -8.5h-112q-19 0 -24.5 9.5t-0.5 29.5zM485 1260q15 68 87.5 125t140.5 57q38 0 71 -17.5t53 -39t51 -39t66 -17.5q31 0 58 15.5t42 33.5t31.5 33.5t28.5 15.5q10 0 17.5 -14.5t5.5 -23.5 q-17 -73 -85 -130t-137 -57q-34 0 -62 12t-46 29t-35.5 33.5t-40.5 28.5t-51 12q-38 0 -67 -15.5t-43 -33.5t-30 -33.5t-30 -15.5q-16 0 -22 13t-3 28z" />
<glyph unicode="&#xf2;" d="M158.5 365q0.5 80 15.5 165q22 103 75 201.5t128 177.5t176.5 127.5t210.5 48.5q74 0 134.5 -23t101.5 -64t69.5 -95.5t40.5 -117.5t11 -131t-15 -136q-22 -102 -73.5 -198t-125.5 -173.5t-173 -124.5t-206 -47q-91 0 -162 31t-114 84t-68.5 124t-25 151zM357 446.5 q-4 -58.5 3.5 -121.5t29 -112t66 -81t107.5 -32q72 0 134 41t103.5 106.5t68 131.5t40.5 131l11 41q10 49 11.5 104t-9.5 111.5t-34 101t-65.5 73t-99.5 28.5q-59 0 -112.5 -28t-91 -70.5t-68.5 -99t-49 -109t-29 -103.5q-12 -54 -16 -112.5zM553 1401q5 24 26.5 49t45.5 25 q11 0 20 -6t12 -9.5t11 -15.5q18 -18 47.5 -50t71 -92t36.5 -85q-13 -48 -49 -48q-22 0 -33 15l-20 18q-25 23 -76 63t-72 58q-30 24 -20 78z" />
<glyph unicode="&#xf3;" d="M158.5 365q0.5 80 15.5 165q22 103 75 201.5t128 177.5t176.5 127.5t210.5 48.5q74 0 134.5 -23t101.5 -64t69.5 -95.5t40.5 -117.5t11 -131t-15 -136q-22 -102 -73.5 -198t-125.5 -173.5t-173 -124.5t-206 -47q-91 0 -162 31t-114 84t-68.5 124t-25 151zM357 446.5 q-4 -58.5 3.5 -121.5t29 -112t66 -81t107.5 -32q72 0 134 41t103.5 106.5t68 131.5t40.5 131l11 41q10 49 11.5 104t-10 111.5t-34.5 101t-65 73t-99 28.5q-59 0 -112.5 -28t-91 -70.5t-68.5 -99t-49 -109t-29 -103.5q-12 -54 -16 -112.5zM750 1214q3 19 26.5 45.5t47.5 46 t66 52t58 45.5q7 6 25 22t29 25t27 17t30 8q24 0 33 -24.5t4 -51.5q-6 -30 -17.5 -46.5t-36.5 -29.5q-10 -5 -74 -45t-123 -74.5t-69 -34.5q-38 0 -26 45z" />
<glyph unicode="&#xf4;" d="M158.5 365q0.5 80 15.5 165q22 103 75 201.5t128 177.5t176.5 127.5t210.5 48.5q74 0 134.5 -23t101.5 -64t69.5 -95.5t40.5 -117.5t11 -131t-15 -136q-22 -102 -73.5 -198t-125.5 -173.5t-173 -124.5t-206 -47q-91 0 -162 31t-114 84t-68.5 124t-25 151zM357 446.5 q-4 -58.5 3.5 -121.5t29 -112t66 -81t107.5 -32q72 0 134 41t103.5 106.5t68 131.5t40.5 131l11 41q10 49 11.5 104t-10 111.5t-34.5 101t-65 73t-99 28.5q-59 0 -112.5 -28t-91 -70.5t-68.5 -99t-49 -109t-29 -103.5q-12 -54 -16 -112.5zM496 1190q5 10 7.5 15.5t7 10.5 t6.5 6.5t10 8t14 10.5q13 10 55.5 41.5t61.5 46.5t50 42t54 52q1 1 11.5 12.5t23 20t24.5 8.5q30 -18 38 -29q3 -5 9 -14q17 -28 67 -76.5t85 -88t31 -60.5q-26 -21 -37 -35q-29 11 -111.5 76.5t-114.5 65.5q-36 0 -144 -73t-128 -73q-3 5 -10 16.5t-10 16.5z" />
<glyph unicode="&#xf5;" d="M158.5 365q0.5 80 15.5 165q22 103 75 201.5t128 177.5t176.5 127.5t210.5 48.5q74 0 134.5 -23t101.5 -64t69.5 -95.5t40.5 -117.5t11 -131t-15 -136q-22 -102 -73.5 -198t-125.5 -173.5t-173 -124.5t-206 -47q-91 0 -162 31t-114 84t-68.5 124t-25 151zM357 446.5 q-4 -58.5 3.5 -121.5t29 -112t66 -81t107.5 -32q72 0 134 41t103.5 106.5t68 131.5t40.5 131l11 41q10 49 11.5 104t-9.5 111.5t-34 101t-65.5 73t-99.5 28.5q-59 0 -112.5 -28t-91 -70.5t-68.5 -99t-49 -109t-29 -103.5q-12 -54 -16 -112.5zM485 1260q15 68 86.5 125 t141.5 57q38 0 71 -17.5t53 -39t51 -39t66 -17.5q32 0 59 15.5t41.5 33.5t30 33.5t27.5 15.5q9 0 16 -14.5t7 -23.5q-17 -74 -83.5 -130.5t-136.5 -56.5q-34 0 -62 12t-46 29t-35.5 33.5t-40.5 28.5t-51 12q-38 0 -67 -15.5t-43 -33.5t-30 -33.5t-30 -15.5q-16 0 -22 13 t-3 28z" />
<glyph unicode="&#xf6;" d="M157.5 360.5q-0.5 78.5 14.5 161.5q23 107 74.5 206t125.5 179.5t176.5 129t215.5 48.5q74 0 134.5 -23t102 -63.5t70 -94.5t40.5 -117.5t11 -131t-16 -135.5q-21 -101 -73 -197.5t-125.5 -174.5t-173 -125.5t-206.5 -47.5q-88 0 -159 31t-114.5 83.5t-70 122.5 t-27 148.5zM354.5 427q-2.5 -60 7.5 -119t32.5 -105t65.5 -74.5t101 -28.5t110.5 28t90.5 71t68.5 99.5t49 108.5t29.5 103l11 41q10 49 11.5 104t-10 111.5t-34.5 101t-65 73t-99 28.5q-61 0 -115 -29t-91.5 -73t-68.5 -102.5t-49 -112t-30 -107.5q-12 -58 -14.5 -118z M524 1360q9 47 50.5 81t89.5 34q47 0 73 -33t17 -80q-9 -46 -48.5 -81.5t-87.5 -35.5q-50 0 -77 32.5t-17 82.5zM887 1360q9 48 48.5 81.5t88.5 33.5q50 0 75 -32t15 -81q-11 -48 -49 -82.5t-84 -34.5q-50 0 -77 32.5t-17 82.5z" />
<glyph unicode="&#xf7;" horiz-adv-x="1017" d="M106 532l9 41l16 80h49h981l-24 -123q-18 0 -52.5 1t-50.5 1h-928zM487 330q7 40 41 66t74 26q38 0 60 -28.5t14 -65.5q-9 -38 -42 -64t-71 -26q-42 0 -63.5 25.5t-12.5 66.5zM600 858q8 37 41.5 64.5t71.5 27.5q41 0 61.5 -27.5t11.5 -68.5t-39.5 -65.5t-72.5 -24.5 q-41 0 -62 26.5t-12 67.5z" />
<glyph unicode="&#xf8;" horiz-adv-x="1060" d="M51 -53q2 7 39.5 47t80.5 85t52 56q-101 163 -51 389q22 106 74.5 205.5t127.5 179.5t176.5 128t211.5 48q83 0 140.5 -22.5t109.5 -75.5q157 180 180 180q11 0 22.5 -15.5t8.5 -25.5q-3 -12 -69 -83.5t-101 -106.5q104 -169 53 -412q-22 -102 -75 -199.5t-128 -175.5 t-175.5 -126t-207.5 -48q-158 0 -258 109q-5 -5 -81.5 -88t-90.5 -94q-11 0 -29 18h2q-15 15 -12 27zM356 563q-33 -148 4 -280l543 589q-30 54 -69 80.5t-101 26.5q-73 0 -139.5 -40.5t-113 -104.5t-78 -133.5t-46.5 -137.5zM379 209q26 -51 72 -82t104 -31q73 0 139 42.5 t112 108.5t77 135t45 134q32 143 -4 283q-273 -299 -545 -590z" />
<glyph unicode="&#xf9;" horiz-adv-x="1019" d="M163.5 138.5q-14.5 59.5 0.5 148.5l158 735q4 24 14 31.5t35 7.5h102q26 0 33.5 -6t3.5 -31l-145 -680q-11 -51 -12 -90t8 -66t24 -44.5t40 -27.5t52 -14t64 -4q119 0 175 49t81 168l149 701q9 45 51 45h93q26 0 35 -8t3 -33l-165 -784q-23 -99 -60 -140 q-42 -45 -127 -74t-156 -38t-135 -9q-84 0 -147 15.5t-111.5 52t-63 96zM530 1401l11 24q24 50 61 50q25 0 47 -31l50 -55q111 -129 102 -170q-3 -19 -16 -34.5t-31 -15.5q-21 0 -33 15l-21 18q-15 13 -56.5 43.5t-63.5 49t-39 48t-11 58.5z" />
<glyph unicode="&#xfa;" horiz-adv-x="1019" d="M163.5 138.5q-14.5 59.5 0.5 148.5l158 735q4 24 14 31.5t35 7.5h102q26 0 33.5 -6t3.5 -31l-145 -680q-11 -51 -12 -90t8 -66t24 -44.5t40 -27.5t52 -14t64 -4q119 0 175 49t81 168l149 701q9 45 51 45h93q26 0 35 -8t3 -33l-165 -784q-23 -99 -60 -140 q-42 -45 -127 -74t-156 -38t-135 -9q-84 0 -147 15.5t-111.5 52t-63 96zM725 1214q3 18 28 45t50 47.5t67.5 52.5t57.5 44q4 4 16.5 16t18 17t17 14t19 13.5t18 8t19.5 3.5q26 0 34.5 -23.5t2.5 -52.5q-12 -55 -51 -76q-5 -3 -35.5 -22t-64.5 -39.5t-70.5 -42.5t-63 -36 t-32.5 -14q-18 0 -27 13t-4 32z" />
<glyph unicode="&#xfb;" horiz-adv-x="1019" d="M163.5 138.5q-14.5 59.5 0.5 148.5l158 735q4 24 14 31.5t35 7.5h102q26 0 33.5 -6t3.5 -31l-145 -680q-11 -51 -12 -90t8 -66t24 -44.5t40 -27.5t52 -14t64 -4q119 0 175 49t81 168l149 701q9 45 51 45h93q26 0 35 -8t3 -33l-165 -784q-23 -99 -60 -140 q-42 -45 -127 -74t-156 -38t-135 -9q-84 0 -147 15.5t-111.5 52t-63 96zM473 1190q18 32 29 39q31 23 104.5 85.5t127.5 106t65 43.5l24 -23q24 -23 59.5 -57.5t70 -71.5t57.5 -69.5t20 -46.5q-2 -1 -8.5 -7.5t-11.5 -10.5q-8 -6 -19 -17q-13 7 -61.5 45t-94.5 67.5 t-69 29.5q-32 0 -142.5 -73t-127.5 -73q-4 5 -11.5 16.5t-11.5 16.5z" />
<glyph unicode="&#xfc;" horiz-adv-x="1019" d="M163.5 137q-14.5 59 0.5 146l158 739q4 24 14 31.5t35 7.5h102q26 0 33.5 -6t3.5 -31q0 -2 -2 -2v4l-150 -704q-25 -116 20 -170t163 -54q119 0 175 49t81 168l149 701q9 45 51 45h93q26 0 35 -8t3 -33l-163 -770q-23 -111 -62 -152q-41 -44 -127.5 -73.5t-159.5 -39.5 t-131 -10q-84 0 -147 15.5t-111.5 51.5t-63 95zM492 1360q9 47 49.5 81t87.5 34q50 0 75 -32t15 -81q-11 -48 -49 -82.5t-84 -34.5q-50 0 -77 32.5t-17 82.5zM854 1360q9 48 49.5 81.5t89.5 33.5q50 0 75 -32t15 -81q-11 -48 -49 -82.5t-84 -34.5q-55 0 -81.5 30t-14.5 85z " />
<glyph unicode="&#xfd;" horiz-adv-x="931" d="M-86 -391q7 38 38 63t68 25q20 0 52.5 -9.5t52.5 -9.5q36 0 73.5 23t65.5 53t61.5 80.5t51.5 82.5t45 83q-9 38 -105 570q-84 464 -86 464q3 13 14.5 20t24.5 7h127q10 0 16 -1t9.5 -2t5.5 -5t2.5 -6.5t1.5 -11.5t2 -15q25 -154 123 -782q6 11 430 782q14 28 23.5 34.5 t40.5 6.5h79q28 0 23 -21q-3 -22 -18 -41q-127 -221 -358 -619.5t-302 -522.5q-35 -59 -65.5 -103t-73 -92.5t-85.5 -79t-99.5 -51t-116.5 -20.5q-25 0 -46.5 4t-42 14t-29.5 30.5t-3 49.5zM682 1214q21 42 33 52l-2 -2q29 24 85 70t85 69q8 7 25 22.5t27.5 24.5t26 17 t29.5 8q27 0 35.5 -23.5t3.5 -52.5q-14 -56 -53 -76q-10 -5 -74 -45t-123 -74.5t-69 -34.5q-18 0 -25 13t-4 32z" />
<glyph unicode="&#xfe;" d="M25 -442l417 1966q5 26 13.5 34.5t33.5 8.5h99q28 0 35.5 -7t1.5 -36l-105 -490q160 56 266 56q73 0 132.5 -20t99.5 -55.5t67 -84t38.5 -107t10 -122.5t-15.5 -132q-17 -82 -53 -164.5t-91.5 -160t-123 -137.5t-154 -96t-178.5 -36q-64 0 -111 18t-96 58l-106 -495 q-6 -37 -39 -37h-111q-22 0 -29 7.5t-1 31.5zM336 170q99 -70 194 -70q64 0 123 29t102 74.5t78.5 104.5t57 115.5t33.5 111.5l2 14q13 61 16.5 118t-6.5 114t-34.5 99t-73 68.5t-117.5 26.5q-68 0 -113.5 -14t-71 -43.5t-37.5 -57.5t-22 -74z" />
<glyph unicode="&#xff;" horiz-adv-x="931" d="M-86 -391q7 38 38 63t68 25q20 0 52.5 -9.5t52.5 -9.5q36 0 73.5 23t65.5 53t61.5 80.5t51.5 82.5t45 83q-9 38 -105 570q-84 464 -86 464q3 13 14.5 20t24.5 7h127q10 0 16 -1t9.5 -2t5.5 -5t2.5 -6.5t1.5 -11.5t2 -15q25 -154 123 -782q6 11 430 782q14 28 23.5 34.5 t40.5 6.5h79q28 0 23 -21q-3 -22 -18 -41q-127 -221 -358 -619.5t-302 -522.5q-35 -59 -65.5 -103t-73 -92.5t-85.5 -79t-99.5 -51t-116.5 -20.5q-25 0 -46.5 4t-42 14t-29.5 30.5t-3 49.5zM453 1360q9 47 50.5 81t88.5 34q49 0 73 -32.5t15 -80.5q-11 -49 -48 -83t-85 -34 q-50 0 -77 32.5t-17 82.5zM815 1360q9 47 49.5 81t87.5 34q50 0 76 -32t16 -81q-9 -46 -49 -81.5t-86 -35.5q-51 0 -77.5 32t-16.5 83z" />
<glyph unicode="&#x152;" horiz-adv-x="2209" d="M202 538q2 93 23 191q25 117 72.5 225.5t119.5 204t160.5 166t203 111.5t239.5 41q58 0 104 -9q120 -23 226 -139l18 82q4 22 15 28.5t34 6.5h723q23 0 27.5 -7t-0.5 -30l-13 -57q-4 -15 -6 -20.5t-9.5 -11t-20.5 -5.5h-580l-104 -490h499q24 0 29.5 -5t1.5 -27l-12 -60 q-4 -14 -6.5 -20.5t-10 -11.5t-20.5 -5h-508l-119 -561h578q21 0 24 -11t-4 -30l-14 -67q-5 -27 -39 -27h-721q-26 0 -33.5 6t-3.5 31l19 86q-116 -116 -293 -146q-47 -8 -107 -8q-103 0 -187 29.5t-141 82t-95.5 123.5t-54.5 156t-14 178zM414.5 591q-4.5 -72 2.5 -144.5 t31.5 -134t63.5 -109.5t102 -75.5t144 -27.5q107 0 214 67t156 169q21 42 35 108l115 543q22 102 -0.5 186.5t-90 135.5t-169.5 51q-94 0 -180 -38t-150 -100.5t-116.5 -145t-86 -168.5t-51.5 -173q-15 -72 -19.5 -144z" />
<glyph unicode="&#x153;" horiz-adv-x="1789" d="M158 367q1 80 20 168q22 103 70 199t117.5 175.5t166.5 127.5t205 48q130 0 199.5 -58.5t103.5 -180.5q4 5 24 35t34 45q144 159 325 159q127 0 199.5 -69t87.5 -191q10 -65 -2 -123q-6 -34 -25 -49t-55 -20q-32 -5 -293 -43t-293 -43q-44 -406 201 -406q58 0 112.5 27.5 t91.5 64.5t81 93q2 3 11.5 16.5t13.5 18t13 13t17.5 12t18.5 3.5q38 0 30 -51q-15 -66 -61 -135q-152 -228 -375 -228h-6q-115 0 -191 64t-100 172q-77 -117 -169.5 -176.5t-217.5 -59.5q-93 0 -163 31t-110.5 84t-61 125t-19.5 152zM348.5 432.5q-3.5 -60.5 5.5 -120.5 t31 -107t64.5 -76t101.5 -29q70 0 128.5 38.5t97 101t62.5 125t38 127.5q14 68 16.5 144.5t-10 156.5t-57 132t-117.5 52q-58 0 -110.5 -29.5t-89 -74.5t-67 -104t-48.5 -112.5t-29 -105.5q-13 -58 -16.5 -118.5zM1063 645l457 68q8 43 2 88.5t-20.5 82.5t-48.5 61t-83 24 q-197 0 -307 -324z" />
<glyph unicode="&#x178;" horiz-adv-x="1110" d="M299 1425q6 21 33 21h166q19 0 28 -31q37 -102 113 -301.5t113 -300.5q74 95 235 293.5t244 306.5q21 26 27 29.5t32 3.5h103q24 0 18 -21q-2 -13 -20 -36q-100 -124 -299.5 -370t-300.5 -370l-132 -616q-5 -21 -11.5 -27t-24.5 -6h-144q-34 0 -28 33l133 626 q-55 143 -153 403t-124 329q-9 24 -8 34zM608 1716q10 55 52.5 88t97.5 33q48 0 73 -33t15 -82q-10 -54 -48.5 -86t-92.5 -32q-52 0 -79.5 31t-17.5 81zM985 1716q10 55 51 88t97 33q48 0 74 -33t16 -82q-10 -51 -51.5 -84.5t-92.5 -33.5t-77.5 31.5t-16.5 80.5z" />
<glyph unicode="&#x2c6;" horiz-adv-x="512" d="M66 1190q3 14 7.5 20.5t18.5 18.5q20 16 64 48.5t68.5 51.5t58.5 49.5t61 59.5q22 26 45 26q21 0 37 -28q17 -21 70.5 -78t88.5 -100.5t31 -61.5q-3 -11 -14.5 -23t-21.5 -12q-5 0 -35 19q-50 29 -90 62t-59.5 47t-39.5 14q-23 0 -61 -23q-2 -1 -25 -16t-48.5 -31.5 t-54.5 -34.5t-52 -29.5t-31 -11.5q-10 0 -15 10.5t-3 22.5z" />
<glyph unicode="&#x2dc;" horiz-adv-x="512" d="M55 1260q15 68 86.5 125t139.5 57q34 0 66.5 -17.5t54.5 -39t53.5 -39t64.5 -17.5q32 0 58.5 15.5t41 33.5t31.5 33.5t31 15.5q25 0 20 -38q-17 -73 -84 -130t-135 -57q-35 0 -62.5 12t-46.5 29t-36.5 33.5t-40 28.5t-49.5 12q-33 0 -61 -15.5t-43.5 -33.5t-32.5 -33.5 t-31 -15.5q-16 0 -22 13t-3 28z" />
<glyph unicode="&#x2000;" horiz-adv-x="947" />
<glyph unicode="&#x2001;" horiz-adv-x="1894" />
<glyph unicode="&#x2002;" horiz-adv-x="947" />
<glyph unicode="&#x2003;" horiz-adv-x="1894" />
<glyph unicode="&#x2004;" horiz-adv-x="631" />
<glyph unicode="&#x2005;" horiz-adv-x="473" />
<glyph unicode="&#x2006;" horiz-adv-x="315" />
<glyph unicode="&#x2007;" horiz-adv-x="315" />
<glyph unicode="&#x2008;" horiz-adv-x="236" />
<glyph unicode="&#x2009;" horiz-adv-x="378" />
<glyph unicode="&#x200a;" horiz-adv-x="105" />
<glyph unicode="&#x2010;" horiz-adv-x="641" d="M229 504q-5 8 0 28l17 76q6 33 41 33h338q20 0 24.5 -6t1.5 -25l-18 -86q-6 -28 -35 -28h-344q-20 0 -25 8z" />
<glyph unicode="&#x2011;" horiz-adv-x="641" d="M229 504q-5 8 0 28l17 76q6 33 41 33h338q20 0 24.5 -6t1.5 -25l-18 -86q-6 -28 -35 -28h-344q-20 0 -25 8z" />
<glyph unicode="&#x2012;" horiz-adv-x="641" d="M229 504q-5 8 0 28l17 76q6 33 41 33h338q20 0 24.5 -6t1.5 -25l-18 -86q-6 -28 -35 -28h-344q-20 0 -25 8z" />
<glyph unicode="&#x2013;" horiz-adv-x="1134" d="M241 540q-3 7 1 17l10 49q5 20 12.5 27.5t26.5 7.5h815q23 0 28.5 -7t0.5 -30l-11 -47q-3 -20 -9.5 -27.5t-24.5 -7.5h-809q-12 0 -16.5 0.5t-12 2t-8 5t-3.5 10.5z" />
<glyph unicode="&#x2014;" horiz-adv-x="1406" d="M245.5 561q-3.5 8 0.5 25l6 24q6 31 35 31h1099q19 0 24 -4.5t1 -20.5l-6 -30q-2 -10 -3 -13t-4 -9.5t-8.5 -8.5t-13.5 -2h-1110q-17 0 -20.5 8z" />
<glyph unicode="&#x2018;" horiz-adv-x="509" d="M395 1227q28 136 156 235q76 60 106 60q15 0 24.5 -9.5t6.5 -25.5q-3 -14 -33.5 -41t-62.5 -61.5t-39 -67.5q-5 -23 4 -44t22 -34.5t21.5 -36t3.5 -49.5q-8 -36 -40 -63t-70 -27q-67 0 -90.5 48t-8.5 116z" />
<glyph unicode="&#x2019;" horiz-adv-x="509" d="M367 1094q1 13 13.5 27.5t30 29t36 30.5t33.5 39t20 48q7 32 -25 78.5t-24 83.5q9 41 41 67.5t73 26.5q62 0 85 -50.5t9 -115.5q-27 -134 -159 -242q-62 -52 -103 -55q-14 0 -23.5 10t-6.5 23z" />
<glyph unicode="&#x201a;" horiz-adv-x="509" d="M94 -186q1 15 20.5 34t42.5 36t45.5 44.5t28.5 57.5q7 31 -26.5 79.5t-26.5 81.5q9 42 41.5 67.5t71.5 25.5q65 0 88 -49t8 -115q-27 -133 -160 -242q-65 -55 -102 -55q-14 0 -24 11t-7 24z" />
<glyph unicode="&#x201c;" horiz-adv-x="792" d="M386 1149.5q-3 36.5 3 77.5q26 126 152 233q73 62 108 62q36 0 27 -39q-3 -13 -22 -31.5t-40.5 -36t-42.5 -44.5t-26 -54q-6 -30 10 -54t31.5 -49.5t7.5 -60.5q-9 -40 -41.5 -65t-71.5 -25q-43 0 -67.5 25t-27.5 61.5zM688 1227q15 75 64.5 144t121.5 116q45 35 74 35 q15 0 24.5 -9.5t6.5 -25.5q-3 -13 -22 -32t-41.5 -37t-44 -45.5t-27.5 -55.5q-6 -30 10 -54t31.5 -49.5t7.5 -60.5q-9 -41 -41 -65.5t-74 -24.5q-61 0 -82.5 50.5t-7.5 113.5z" />
<glyph unicode="&#x201d;" horiz-adv-x="792" d="M358 1094q1 14 20 33.5t43 37.5t46.5 45.5t28.5 55.5q6 27 -10.5 53.5t-33 54t-10.5 56.5q7 38 42 66t73 28q43 0 68 -26t27.5 -63t-3.5 -77q-13 -66 -48.5 -120.5t-100.5 -113.5q-65 -60 -109 -63q-14 0 -25 10t-8 23zM657 1094q3 14 22.5 33.5t42.5 37.5t45 45.5 t28 55.5q5 23 -4.5 44.5t-23 35.5t-22.5 36.5t-4 47.5q9 41 43 67.5t76 26.5q62 0 83 -51t7 -115q-27 -136 -162 -244q-5 -3 -21.5 -15t-26 -18t-24 -12.5t-26.5 -7.5q-13 0 -24.5 10t-8.5 23z" />
<glyph unicode="&#x201e;" horiz-adv-x="792" d="M86 -186q1 15 20.5 34.5t42.5 37t45.5 45t28.5 55.5q5 23 -4.5 43.5t-23 34.5t-22 36t-3.5 47q9 42 41.5 67.5t71.5 25.5q64 0 86.5 -48.5t7.5 -115.5q-27 -131 -150 -232q-70 -65 -108 -65q-14 0 -25 11t-8 24zM385 -186q3 15 34 42.5t63.5 62t39.5 67.5q5 23 -4.5 44 t-23 34.5t-22 35.5t-3.5 47q9 41 43 67t72 26q64 0 86 -48.5t10 -113.5q-30 -140 -164 -244q-4 -3 -27.5 -20.5t-39.5 -26t-31 -8.5q-14 0 -25 11t-8 24z" />
<glyph unicode="&#x2022;" horiz-adv-x="1945" d="M467 4l223 1047h1051l-223 -1047h-1051z" />
<glyph unicode="&#x2026;" horiz-adv-x="2070" d="M268 80q8 39 40 66.5t73 27.5t62 -25.5t12 -66.5t-40.5 -67.5t-72.5 -26.5t-62 25.5t-12 66.5zM958 80q9 41 40.5 67.5t72.5 26.5q42 0 62.5 -25t11.5 -67q-8 -37 -40.5 -65.5t-70.5 -28.5q-42 0 -63.5 25.5t-12.5 66.5zM1649 82q9 41 41.5 66.5t74.5 25.5q38 0 58 -26.5 t12 -65.5q-9 -41 -40.5 -67.5t-72.5 -26.5t-61.5 26.5t-11.5 67.5z" />
<glyph unicode="&#x202f;" horiz-adv-x="378" />
<glyph unicode="&#x2039;" horiz-adv-x="452" d="M178 598q1 9 7 17t9.5 11t16 11.5t14.5 9.5q45 34 93 78.5t76 73.5t87 92q39 45 60 45q19 0 23.5 -10t-1.5 -33q-6 -31 -101.5 -145.5t-103.5 -151.5q-6 -34 40 -164t42 -149q-3 -11 -15.5 -22t-25.5 -11q-24 0 -37 35q-85 193 -172 278q-17 17 -12 35z" />
<glyph unicode="&#x203a;" horiz-adv-x="452" d="M135 283q3 14 17 32q10 14 67 86t86.5 115.5t34.5 69.5q5 18 0 55q-3 8 -19.5 53.5t-29 80.5t-22.5 74.5t-7 55.5q9 31 41 31q14 0 39.5 -43t58.5 -106.5t52 -90.5q8 -12 29 -36t32.5 -41.5t9.5 -30.5q-1 -5 -3 -9t-5.5 -8.5t-6 -7t-8 -6.5t-7.5 -6t-8.5 -6.5t-8.5 -5.5 q-148 -109 -266 -256q-28 -33 -49 -33q-16 0 -23 10t-4 23z" />
<glyph unicode="&#x205f;" horiz-adv-x="473" />
<glyph unicode="&#x20ac;" horiz-adv-x="1239" d="M197.5 570q-2.5 3 1.5 26l6 29q4 19 27 25.5t49.5 3.5t52.5 1q8 64 10 72q0 2 12 49h-90q-20 0 -23.5 4.5t1.5 24.5l6 31q4 19 10.5 23.5t26.5 4.5h94q100 295 280.5 454t413.5 159q101 0 189.5 -41t135.5 -108.5t32 -139.5q-9 -42 -38 -68t-65 -26q-32 0 -46 11.5 t-28 59.5q-61 185 -225 185q-147 0 -278.5 -136t-194.5 -352q99 0 293 1t293 1q24 0 27.5 -4.5t-1.5 -23.5l-6 -29q-3 -19 -9.5 -25t-29.5 -6h-589l-5 -20q-7 -39 -12 -101q93 0 274.5 -1t274.5 -1q21 0 26 -5t1 -23l-4 -27q-4 -20 -12 -25.5t-31 -5.5h-82 q-52 0 -209.5 -1.5t-245.5 -0.5q-2 -211 83 -329.5t238 -118.5q58 0 127.5 22t124.5 58l35 24q38 21 53 21q17 0 25.5 -15.5t3.5 -36.5q-6 -38 -61 -84q-166 -137 -379 -137q-227 0 -342 156t-96 440q-20 -1 -54.5 0.5t-46.5 1.5q-21 0 -23.5 3z" />
<glyph unicode="&#x2122;" horiz-adv-x="1388" d="M334 1360q9 36 10 43v-2q1 6 4 21t4 24h51h486l-19 -86q-8 0 -23 1t-22 1h-172l-125 -590h-51h6h-51l125 590h-176q-31 0 -47 -2zM801 772l12 62q25 114 65 310.5t62 301.5h137q30 -240 53 -553q144 294 289 553h142q-23 -109 -73.5 -328t-76.5 -346h-47h4h-49l12 57 q54 262 119 523q-23 -45 -88 -177t-114 -225t-101 -178h-43h2h-45q-6 71 -29 269t-26 309q-33 -193 -103 -521l-12 -57h-49h4h-45z" />
<glyph unicode="&#x25fc;" horiz-adv-x="1064" d="M0 0v1065h1065v-1065h-1065z" />
</font>
</defs>
</svg>
